{
.appVersion = "3095";
classes = (
{
automatic = 1;
code = "A Aacute Abreve Abreveacute Abrevedotbelow Abrevegrave Abrevehookabove Abrevetilde Acircumflex Acircumflexacute Acircumflexdotbelow Acircumflexgrave Acircumflexhookabove Acircumflextilde Adieresis Adotbelow Agrave Ahookabove Amacron Aogonek Aring Atilde AE B C Cacute Ccaron Ccedilla Cdotaccent D Eth Dcaron Dcroat E Eacute Ecaron Ecircumflex Ecircumflexacute Ecircumflexdotbelow Ecircumflexgrave Ecircumflexhookabove Ecircumflextilde Edieresis Edotaccent Edotbelow Egrave Ehookabove Emacron Eogonek Etilde F G Gbreve Gcaron Gdotaccent Gmacron H Hbar I Iacute Icircumflex Idieresis Idotaccent Idotbelow Igrave Ihookabove Imacron Iogonek Itilde J K L Lacute Lcaron Lslash M N Nacute Ncaron Ntilde O Oacute Ocircumflex Ocircumflexacute Ocircumflexdotbelow Ocircumflexgrave Ocircumflexhookabove Ocircumflextilde Odieresis Odotbelow Ograve Ohookabove Ohorn Ohornacute Ohorndotbelow Ohorngrave Ohornhookabove Ohorntilde Ohungarumlaut Omacron Oslash Otilde OE P Thorn Q R Racute Rcaron S Sacute Scaron Scedilla Germandbls T Tbar Tcaron Tcedilla U Uacute Ucircumflex Udieresis Udotbelow Ugrave Uhookabove Uhorn Uhornacute Uhorndotbelow Uhorngrave Uhornhookabove Uhorntilde Uhungarumlaut Umacron Uogonek Uring Utilde V W Wacute Wcircumflex Wdieresis Wgrave X Y Yacute Ycircumflex Ydieresis Ydotbelow Ygrave Yhookabove Ytilde Z Zacute Zcaron Zdotaccent";
name = Uppercase;
},
{
automatic = 1;

glyphs = (
{
glyphname = A;
lastChange = "2021-03-31 02:57:40 +0000";
layers = (
{
anchors = (
{
name = bottom;
position = "{273, 0}";
},
{
name = ogonek;
position = "{581, 0}";
},
{
name = top;
position = "{448, 740}";
}
);
layerId = "3EF6EAEC-888F-4BA2-8550-D36A3DFF40E2";
paths = (
{
closed = 1;
nodes = (
"45 0 LINE",
"170.624 220 LINE",
"512.805 220 LINE",
"545 0 LINE",
"581 0 LINE",
"471 740 LINE",
"428 740 LINE",
"4 0 LINE"
);
},
{
closed = 1;
nodes = (
"443 697 LINE",
"508.122 252 LINE",
"188.897 252 LINE"
);
}
);
width = 657;
},
{
anchors = (
{
name = bottom;
position = "{296, 0}";
},
{
name = ogonek;
position = "{556, 0}";
},
{
name = top;
position = "{453, 740}";
}
);
layerId = "DFC78E06-237F-4D33-BFB3-2388B696AEC9";
paths = (
{
closed = 1;
nodes = (
"83 0 LINE",
"182 177 LINE",
"493 177 LINE",
"517 0 LINE",
"613 0 LINE",
"509 740 LINE",
"393 740 LINE",
"-26 0 LINE"
);
},
{
closed = 1;
nodes = (
"433 623 LINE",
"481 265 LINE",
"232 265 LINE"
);
}
);
width = 704;
},
{
anchors = (
{
name = bottom;
position = "{332, 0}";
},
{
name = ogonek;
position = "{710, 0}";
},
{
name = top;
position = "{489, 740}";
}
);
guideLines = (
{
angle = 90;
position = "{298, 582}";
}
);
layerId = "1F0C3569-068D-41D8-99BF-71FC09839D59";
paths = (
{
closed = 1;
nodes = (
"169 0 LINE",
"234 124 LINE",
"507 124 LINE",
"520 0 LINE",
"710 0 LINE",
"621 740 LINE",
"362 740 LINE",
"-41 0 LINE"
);
},
{
closed = 1;
nodes = (
"463 561 LINE",
"491 288 LINE",
"320 288 LINE"
);
}
);
width = 776;
}
);
leftKerningGroup = A;
rightKerningGroup = A;
unicode = 0041;
},
{
glyphname = Aacute;
lastChange = "2021-03-14 09:41:58 +0000";
layers = (
{
anchors = (
{
name = bottom;
position = "{273, 0}";
},
{
name = ogonek;
position = "{581, 0}";
},
{
name = top;
position = "{531, 980}";
}
);
guideLines = (
{
position = "{451, 805}";
},
{
position = "{451, 769}";
}
);
layerId = "3EF6EAEC-888F-4BA2-8550-D36A3DFF40E2";
paths = (
{
closed = 1;
nodes = (
"45 0 LINE",
"171 220 LINE",
"513 220 LINE",
"545 0 LINE",
"581 0 LINE",
"471 740 LINE",
"428 740 LINE",
"4 0 LINE"
);
},
{
closed = 1;
nodes = (
"443 697 LINE",
"508 252 LINE",
"189 252 LINE"
);
},
{
closed = 1;
nodes = (
"558 980 LINE",
"521 980 LINE",
"448 828 LINE",
"478 828 LINE"
);
}
);
width = 657;
},
{
anchors = (
{
name = bottom;
position = "{296, 0}";
},
{
name = ogonek;
position = "{556, 0}";
},
{
name = top;
position = "{551, 1001}";
}
);
guideLines = (
{
position = "{451, 805}";
},
{
position = "{451, 769}";
}
);
layerId = "DFC78E06-237F-4D33-BFB3-2388B696AEC9";
paths = (
{
closed = 1;
nodes = (
"83 0 LINE",
"182 177 LINE",
"493 177 LINE",
"517 0 LINE",
"613 0 LINE",
"509 740 LINE",
"393 740 LINE",
"-26 0 LINE"
);
},
{
closed = 1;
nodes = (
"433 623 LINE",
"481 265 LINE",
"232 265 LINE"
);
},
{
closed = 1;
nodes = (
"626 1001 LINE",
"531 1001 LINE",
"438 821 LINE",
"516 820 LINE"
);
}
);
width = 704;
},
{
anchors = (
{
name = bottom;
position = "{330, 0}";
},
{
name = ogonek;
position = "{708, 0}";
},
{
name = top;
position = "{588, 989}";
}
);
layerId = "1F0C3569-068D-41D8-99BF-71FC09839D59";
paths = (
{
closed = 1;
nodes = (
"167 0 LINE",
"232 124 LINE",
"505 124 LINE",
"518 0 LINE",
"708 0 LINE",
"619 740 LINE",
"360 740 LINE",
"-43 0 LINE"
);
},
{
closed = 1;
nodes = (
"461 561 LINE",
"489 288 LINE",
"318 288 LINE"
);
},
{
closed = 1;
nodes = (
"692 989 LINE",
"522 989 LINE",
"445 810 LINE",
"578 809 LINE"
);
}
);
width = 771;
}
);
leftKerningGroup = A;
rightKerningGroup = A;
unicode = 00C1;
},
{
glyphname = Abreve;
lastChange = "2021-03-14 09:41:58 +0000";
layers = (
{
anchors = (
{
name = bottom;
position = "{273, 0}";
},
{
name = ogonek;
position = "{581, 0}";
},
{
name = top;
position = "{475, 868}";
}
);
layerId = "3EF6EAEC-888F-4BA2-8550-D36A3DFF40E2";
paths = (
{
closed = 1;
nodes = (
"45 0 LINE",
"171 220 LINE",
"513 220 LINE",
"545 0 LINE",
"581 0 LINE",
"471 740 LINE",
"428 740 LINE",
"4 0 LINE"
);
},
{
closed = 1;
nodes = (
"443 697 LINE",
"508 252 LINE",
"189 252 LINE"
);
},
{
closed = 1;
nodes = (
"596 823 OFFCURVE",
"623 933 OFFCURVE",
"623 933 CURVE",
"592 933 LINE",
"592 933 OFFCURVE",
"567 852 OFFCURVE",
"472 852 CURVE SMOOTH",
"376 852 OFFCURVE",
"386 933 OFFCURVE",
"386 933 CURVE",
"355 933 LINE",
"355 933 OFFCURVE",
"346 823 OFFCURVE",
"472 823 CURVE SMOOTH"
);
}
);
width = 657;
},
{
anchors = (
{
name = bottom;
position = "{296, 0}";
},
{
name = ogonek;
position = "{556, 0}";
},
{
name = top;
position = "{488, 905}";
}
);
layerId = "DFC78E06-237F-4D33-BFB3-2388B696AEC9";
paths = (
{
closed = 1;
nodes = (
"83 0 LINE",
"182 177 LINE",
"493 177 LINE",
"517 0 LINE",
"613 0 LINE",
"509 740 LINE",
"393 740 LINE",
"-26 0 LINE"
);
},
{
closed = 1;
nodes = (
"433 623 LINE",
"481 265 LINE",
"232 265 LINE"
);
},
{
closed = 1;
nodes = (
"632 815 OFFCURVE",
"659 957 OFFCURVE",
"659 957 CURVE",
"588 957 LINE",
"588 957 OFFCURVE",
"566 878 OFFCURVE",
"482 878 CURVE SMOOTH",
"398 878 OFFCURVE",
"410 957 OFFCURVE",
"410 957 CURVE",
"339 957 LINE",
"339 957 OFFCURVE",
"327 815 OFFCURVE",
"481 815 CURVE SMOOTH"
);
}
);
width = 704;
},
{
anchors = (
{
name = bottom;
position = "{330, 0}";
},
{
name = ogonek;
position = "{708, 0}";
},
{
name = top;
position = "{528, 933}";
}
);
layerId = "1F0C3569-068D-41D8-99BF-71FC09839D59";
paths = (
{
closed = 1;
nodes = (
"167 0 LINE",
"232 124 LINE",
"505 124 LINE",
"518 0 LINE",
"708 0 LINE",
"619 740 LINE",
"360 740 LINE",
"-43 0 LINE"
);
},
{
closed = 1;
nodes = (
"461 561 LINE",
"489 288 LINE",
"318 288 LINE"
);
},
{
closed = 1;
nodes = (
"715 802 OFFCURVE",
"729 968 OFFCURVE",
"729 968 CURVE",
"610 968 LINE",
"610 968 OFFCURVE",
"595 904 OFFCURVE",
"521 904 CURVE SMOOTH",
"449 904 OFFCURVE",
"460 968 OFFCURVE",
"460 968 CURVE",
"341 968 LINE",
"341 968 OFFCURVE",
"325 802 OFFCURVE",
"520 802 CURVE SMOOTH"
);
}
);
width = 771;
}
);
leftKerningGroup = A;
rightKerningGroup = A;
unicode = 0102;
},
{
glyphname = Abreveacute;
lastChange = "2021-03-14 09:41:58 +0000";
layers = (
{
anchors = (
{
name = bottom;
position = "{273, 0}";
},
{
name = ogonek;
position = "{581, 0}";
},
{
name = top;
position = "{676, 1141}";
}
);
layerId = "3EF6EAEC-888F-4BA2-8550-D36A3DFF40E2";
paths = (
{
closed = 1;
nodes = (
"45 0 LINE",
"171 220 LINE",
"513 220 LINE",
"545 0 LINE",
"581 0 LINE",
"471 740 LINE",
"428 740 LINE",
"4 0 LINE"
);
},
{
closed = 1;
nodes = (
"443 697 LINE",
"508 252 LINE",
"189 252 LINE"
);
},
{
closed = 1;
nodes = (
"596 823 OFFCURVE",
"623 933 OFFCURVE",
"623 933 CURVE",
"592 933 LINE",
"592 933 OFFCURVE",
"567 852 OFFCURVE",
"472 852 CURVE SMOOTH",
"376 852 OFFCURVE",
"386 933 OFFCURVE",
"386 933 CURVE",
"355 933 LINE",
"355 933 OFFCURVE",
"346 823 OFFCURVE",
"472 823 CURVE SMOOTH"
);
},
{
closed = 1;
nodes = (
"585 1108 LINE",
"548 1108 LINE",
"475 956 LINE",
"505 956 LINE"
);
}
);
width = 657;
},
{
anchors = (
{
name = bottom;
position = "{296, 0}";
},
{
name = ogonek;
position = "{556, 0}";
},
{
name = top;
position = "{340, 1141}";
}
);
layerId = "DFC78E06-237F-4D33-BFB3-2388B696AEC9";
paths = (
{
closed = 1;
nodes = (
"83 0 LINE",
"182 177 LINE",
"493 177 LINE",
"517 0 LINE",
"613 0 LINE",
"509 740 LINE",
"393 740 LINE",
"-26 0 LINE"
);
},
{
closed = 1;
nodes = (
"433 623 LINE",
"481 265 LINE",
"232 265 LINE"
);
},
{
closed = 1;
nodes = (
"632 815 OFFCURVE",
"659 957 OFFCURVE",
"659 957 CURVE",
"588 957 LINE",
"588 957 OFFCURVE",
"566 878 OFFCURVE",
"482 878 CURVE SMOOTH",
"398 878 OFFCURVE",
"410 957 OFFCURVE",
"410 957 CURVE",
"339 957 LINE",
"339 957 OFFCURVE",
"327 815 OFFCURVE",
"481 815 CURVE SMOOTH"
);
},
{
closed = 1;
nodes = (
"661 1166 LINE",
"566 1166 LINE",
"473 986 LINE",
"551 985 LINE"
);
}
);
width = 704;
},
{
anchors = (
{
name = bottom;
position = "{330, 0}";
},
{
name = ogonek;
position = "{708, 0}";
},
{
name = top;
position = "{374, 1233}";
}
);
layerId = "1F0C3569-068D-41D8-99BF-71FC09839D59";
paths = (
{
closed = 1;
nodes = (
"167 0 LINE",
"232 124 LINE",
"505 124 LINE",
"518 0 LINE",
"708 0 LINE",
"619 740 LINE",
"360 740 LINE",
"-43 0 LINE"
);
},
{
closed = 1;
nodes = (
"461 561 LINE",
"489 288 LINE",
"318 288 LINE"
);
},
{
closed = 1;
nodes = (
"715 802 OFFCURVE",
"729 968 OFFCURVE",
"729 968 CURVE",
"610 968 LINE",
"610 968 OFFCURVE",
"595 904 OFFCURVE",
"521 904 CURVE SMOOTH",
"449 904 OFFCURVE",
"460 968 OFFCURVE",
"460 968 CURVE",
"341 968 LINE",
"341 968 OFFCURVE",
"325 802 OFFCURVE",
"520 802 CURVE SMOOTH"
);
},
{
closed = 1;
nodes = (
"733 1182 LINE",
"563 1182 LINE",
"486 1003 LINE",
"619 1002 LINE"
);
}
);
width = 771;
}
);
leftKerningGroup = A;
rightKerningGroup = A;
unicode = 1EAE;
},
{
glyphname = Abrevedotbelow;
lastChange = "2021-05-04 15:46:38 +0000";
layers = (
{
anchors = (
{
name = bottom;
position = "{232, -192}";
},
{
name = ogonek;
position = "{581, 0}";
},
{
name = top;
position = "{479, 888}";
}
);
layerId = "3EF6EAEC-888F-4BA2-8550-D36A3DFF40E2";
paths = (
{
closed = 1;
nodes = (
"45 0 LINE",
"171 220 LINE",
"513 220 LINE",
"545 0 LINE",
"581 0 LINE",
"471 740 LINE",
"428 740 LINE",
"4 0 LINE"
);
},
{
closed = 1;
nodes = (
"443 697 LINE",
"508 252 LINE",
"189 252 LINE"
);
},
{
closed = 1;
nodes = (
"261 -192 OFFCURVE",
"278 -175 OFFCURVE",
"278 -154 CURVE SMOOTH",
"278 -134 OFFCURVE",
"261 -117 OFFCURVE",
"240 -117 CURVE SMOOTH",
"219 -117 OFFCURVE",
"203 -134 OFFCURVE",
"203 -154 CURVE SMOOTH",
"203 -175 OFFCURVE",
"219 -192 OFFCURVE",
"240 -192 CURVE SMOOTH"
);
},
{
closed = 1;
nodes = (
"604 823 OFFCURVE",
"627 953 OFFCURVE",
"627 953 CURVE",
"595 953 LINE",
"595 953 OFFCURVE",
"572 853 OFFCURVE",
"472 853 CURVE SMOOTH",
"371 853 OFFCURVE",
"391 953 OFFCURVE",
"391 953 CURVE",
"359 953 LINE",
"359 953 OFFCURVE",
"340 823 OFFCURVE",
"472 823 CURVE SMOOTH"
);
}
);
width = 657;
},
{
anchors = (
{
name = bottom;
position = "{248, -227}";
},
{
name = ogonek;
position = "{556, 0}";
},
{
name = top;
position = "{490, 915}";
}
);
layerId = "DFC78E06-237F-4D33-BFB3-2388B696AEC9";
paths = (
{
closed = 1;
nodes = (
"83 0 LINE",
"182 177 LINE",
"493 177 LINE",
"517 0 LINE",
"613 0 LINE",
"509 740 LINE",
"393 740 LINE",
"-26 0 LINE"
);
},
{
closed = 1;
nodes = (
"433 623 LINE",
"481 265 LINE",
"232 265 LINE"
);
},
{
closed = 1;
nodes = (
"299 -227 OFFCURVE",
"327 -198 OFFCURVE",
"327 -162 CURVE SMOOTH",
"327 -126 OFFCURVE",
"299 -97 OFFCURVE",
"262 -97 CURVE SMOOTH",
"224 -97 OFFCURVE",
"197 -126 OFFCURVE",
"197 -162 CURVE SMOOTH",
"197 -197 OFFCURVE",
"224 -227 OFFCURVE",
"262 -227 CURVE SMOOTH"
);
},
{
closed = 1;
nodes = (
"642 815 OFFCURVE",
"661 967 OFFCURVE",
"661 967 CURVE",
"590 967 LINE",
"590 967 OFFCURVE",
"570 879 OFFCURVE",
"482 879 CURVE SMOOTH",
"397 879 OFFCURVE",
"412 967 OFFCURVE",
"412 967 CURVE",
"341 967 LINE",
"341 967 OFFCURVE",
"321 815 OFFCURVE",
"482 815 CURVE SMOOTH"
);
}
);
width = 704;
},
{
anchors = (
{
name = bottom;
position = "{275, -260}";
},
{
name = ogonek;
position = "{708, 0}";
},
{
name = top;
position = "{533, 957}";
}
);
layerId = "1F0C3569-068D-41D8-99BF-71FC09839D59";
paths = (
{
closed = 1;
nodes = (
"167 0 LINE",
"232 124 LINE",
"505 124 LINE",
"518 0 LINE",
"708 0 LINE",
"619 740 LINE",
"360 740 LINE",
"-43 0 LINE"
);
},
{
closed = 1;
nodes = (
"461 561 LINE",
"489 288 LINE",
"318 288 LINE"
);
},
{
closed = 1;
nodes = (
"344.9 -260 OFFCURVE",
"382.7 -219.5 OFFCURVE",
"382.7 -170.9 CURVE SMOOTH",
"382.7 -121.4 OFFCURVE",
"344.9 -81.8 OFFCURVE",
"293.6 -81.8 CURVE SMOOTH",
"241.4 -81.8 OFFCURVE",
"204.5 -121.4 OFFCURVE",
"204.5 -170.9 CURVE SMOOTH",
"204.5 -219.5 OFFCURVE",
"241.4 -260 OFFCURVE",
"293.6 -260 CURVE SMOOTH"
);
},
{
closed = 1;
nodes = (
"715 802 OFFCURVE",
"734 988 OFFCURVE",
"734 988 CURVE",
"615 988 LINE",
"615 988 OFFCURVE",
"596 907 OFFCURVE",
"523 907 CURVE SMOOTH",
"449 907 OFFCURVE",
"465 988 OFFCURVE",
"465 988 CURVE",
"346 988 LINE",
"346 988 OFFCURVE",
"315 802 OFFCURVE",
"515 802 CURVE SMOOTH"
);
}
);
width = 771;
}
);
leftKerningGroup = A;
rightKerningGroup = A;
unicode = 1EB6;
},
{
glyphname = Abrevegrave;
lastChange = "2021-03-14 09:41:58 +0000";
layers = (
{
anchors = (
{
name = bottom;
position = "{273, 0}";
},
{
name = ogonek;
position = "{581, 0}";
},
{
name = top;
position = "{676, 1141}";
}
);
layerId = "3EF6EAEC-888F-4BA2-8550-D36A3DFF40E2";
paths = (
{
closed = 1;
nodes = (
"45 0 LINE",
"171 220 LINE",
"513 220 LINE",
"545 0 LINE",
"581 0 LINE",
"471 740 LINE",
"428 740 LINE",
"4 0 LINE"
);
},
{
closed = 1;
nodes = (
"443 697 LINE",
"508 252 LINE",
"189 252 LINE"
);
},
{
closed = 1;
nodes = (
"596 823 OFFCURVE",
"623 933 OFFCURVE",
"623 933 CURVE",
"592 933 LINE",
"592 933 OFFCURVE",
"567 852 OFFCURVE",
"472 852 CURVE SMOOTH",
"376 852 OFFCURVE",
"386 933 OFFCURVE",
"386 933 CURVE",
"355 933 LINE",
"355 933 OFFCURVE",
"346 823 OFFCURVE",
"472 823 CURVE SMOOTH"
);
},
{
closed = 1;
nodes = (
"503 956 LINE",
"450 1108 LINE",
"414 1108 LINE",
"474 956 LINE"
);
}
);
width = 657;
},
{
anchors = (
{
name = bottom;
position = "{296, 0}";
},
{
name = ogonek;
position = "{556, 0}";
},
{
name = top;
position = "{342, 1141}";
}
);
layerId = "DFC78E06-237F-4D33-BFB3-2388B696AEC9";
paths = (
{
closed = 1;
nodes = (
"83 0 LINE",
"182 177 LINE",
"493 177 LINE",
"517 0 LINE",
"613 0 LINE",
"509 740 LINE",
"393 740 LINE",
"-26 0 LINE"
);
},
{
closed = 1;
nodes = (
"433 623 LINE",
"481 265 LINE",
"232 265 LINE"
);
},
{
closed = 1;
nodes = (
"632 815 OFFCURVE",
"659 957 OFFCURVE",
"659 957 CURVE",
"588 957 LINE",
"588 957 OFFCURVE",
"566 878 OFFCURVE",
"482 878 CURVE SMOOTH",
"398 878 OFFCURVE",
"410 957 OFFCURVE",
"410 957 CURVE",
"339 957 LINE",
"339 957 OFFCURVE",
"327 815 OFFCURVE",
"481 815 CURVE SMOOTH"
);
},
{
closed = 1;
nodes = (
"533 986 LINE",
"467 1166 LINE",
"374 1166 LINE",
"457 985 LINE"
);
}
);
width = 704;
},
{
anchors = (
{
name = bottom;
position = "{330, 0}";
},
{
name = ogonek;
position = "{708, 0}";
},
{
name = top;
position = "{374, 1233}";
}
);
layerId = "1F0C3569-068D-41D8-99BF-71FC09839D59";
paths = (
{
closed = 1;
nodes = (
"167 0 LINE",
"232 124 LINE",
"505 124 LINE",
"518 0 LINE",
"708 0 LINE",
"619 740 LINE",
"360 740 LINE",
"-43 0 LINE"
);
},
{
closed = 1;
nodes = (
"461 561 LINE",
"489 288 LINE",
"318 288 LINE"
);
},
{
closed = 1;
nodes = (
"715 802 OFFCURVE",
"729 968 OFFCURVE",
"729 968 CURVE",
"610 968 LINE",
"610 968 OFFCURVE",
"595 904 OFFCURVE",
"521 904 CURVE SMOOTH",
"449 904 OFFCURVE",
"460 968 OFFCURVE",
"460 968 CURVE",
"341 968 LINE",
"341 968 OFFCURVE",
"325 802 OFFCURVE",
"520 802 CURVE SMOOTH"
);
},
{
closed = 1;
nodes = (
"597 1003 LINE",
"530 1182 LINE",
"365 1182 LINE",
"469 1002 LINE"
);
}
);
width = 771;
}
);
leftKerningGroup = A;
rightKerningGroup = A;
unicode = 1EB0;
},
{
glyphname = Abrevehookabove;
lastChange = "2021-03-14 09:41:58 +0000";
layers = (
{
anchors = (
{
name = bottom;
position = "{273, 0}";
},
{
name = ogonek;
position = "{581, 0}";
},
{
name = top;
position = "{667, 1118}";
}
);
layerId = "3EF6EAEC-888F-4BA2-8550-D36A3DFF40E2";
paths = (
{
closed = 1;
nodes = (
"45 0 LINE",
"171 220 LINE",
"513 220 LINE",
"545 0 LINE",
"581 0 LINE",
"471 740 LINE",
"428 740 LINE",
"4 0 LINE"
);
},
{
closed = 1;
nodes = (
"443 697 LINE",
"508 252 LINE",
"189 252 LINE"
);
},
{
closed = 1;
nodes = (
"596 823 OFFCURVE",
"623 933 OFFCURVE",
"623 933 CURVE",
"592 933 LINE",
"592 933 OFFCURVE",
"567 852 OFFCURVE",
"472 852 CURVE SMOOTH",
"376 852 OFFCURVE",
"386 933 OFFCURVE",
"386 933 CURVE",
"355 933 LINE",
"355 933 OFFCURVE",
"346 823 OFFCURVE",
"472 823 CURVE SMOOTH"
);
},
{
closed = 1;
nodes = (
"497 942 LINE",
"508 993 LINE",
"479 964 LINE",
"505 975 LINE SMOOTH",
"564 1000 OFFCURVE",
"597 1027 OFFCURVE",
"597 1066 CURVE SMOOTH",
"597 1100 OFFCURVE",
"574 1133 OFFCURVE",
"522 1133 CURVE SMOOTH",
"440 1133 OFFCURVE",
"434 1056 OFFCURVE",
"434 1056 CURVE",
"463 1056 LINE",
"463 1056 OFFCURVE",
"466 1105 OFFCURVE",
"520 1105 CURVE SMOOTH",
"553 1105 OFFCURVE",
"567 1085 OFFCURVE",
"567 1066 CURVE SMOOTH",
"567 1039 OFFCURVE",
"546 1019 OFFCURVE",
"507 1002 CURVE SMOOTH",
"493 996 LINE SMOOTH",
"484 992 OFFCURVE",
"478 984 OFFCURVE",
"476 974 CURVE SMOOTH",
"469 942 LINE"
);
}
);
width = 657;
},
{
anchors = (
{
name = bottom;
position = "{296, 0}";
},
{
name = ogonek;
position = "{556, 0}";
},
{
name = top;
position = "{342, 1118}";
}
);
layerId = "DFC78E06-237F-4D33-BFB3-2388B696AEC9";
paths = (
{
closed = 1;
nodes = (
"83 0 LINE",
"182 177 LINE",
"493 177 LINE",
"517 0 LINE",
"613 0 LINE",
"509 740 LINE",
"393 740 LINE",
"-26 0 LINE"
);
},
{
closed = 1;
nodes = (
"433 623 LINE",
"481 265 LINE",
"232 265 LINE"
);
},
{
closed = 1;
nodes = (
"632 815 OFFCURVE",
"659 957 OFFCURVE",
"659 957 CURVE",
"588 957 LINE",
"588 957 OFFCURVE",
"566 878 OFFCURVE",
"482 878 CURVE SMOOTH",
"398 878 OFFCURVE",
"410 957 OFFCURVE",
"410 957 CURVE",
"339 957 LINE",
"339 957 OFFCURVE",
"327 815 OFFCURVE",
"481 815 CURVE SMOOTH"
);
},
{
closed = 1;
nodes = (
"529 971 LINE",
"542 1030 LINE",
"500 987 LINE",
"527 998 LINE SMOOTH",
"587 1022 OFFCURVE",
"634 1050 OFFCURVE",
"634 1100 CURVE SMOOTH",
"634 1142 OFFCURVE",
"603 1186 OFFCURVE",
"532 1186 CURVE SMOOTH",
"429 1186 OFFCURVE",
"423 1091 OFFCURVE",
"423 1091 CURVE",
"481 1091 LINE",
"481 1091 OFFCURVE",
"483 1134 OFFCURVE",
"531 1134 CURVE SMOOTH",
"559 1134 OFFCURVE",
"572 1117 OFFCURVE",
"572 1100 CURVE SMOOTH",
"572 1077 OFFCURVE",
"552 1060 OFFCURVE",
"515 1043 CURVE SMOOTH",
"500 1036 LINE SMOOTH",
"487 1030 OFFCURVE",
"477 1019 OFFCURVE",
"474 1004 CURVE SMOOTH",
"467 971 LINE"
);
}
);
width = 704;
},
{
anchors = (
{
name = bottom;
position = "{330, 0}";
},
{
name = ogonek;
position = "{708, 0}";
},
{
name = top;
position = "{528, 933}";
}
);
layerId = "1F0C3569-068D-41D8-99BF-71FC09839D59";
paths = (
{
closed = 1;
nodes = (
"167 0 LINE",
"232 124 LINE",
"505 124 LINE",
"518 0 LINE",
"708 0 LINE",
"619 740 LINE",
"360 740 LINE",
"-43 0 LINE"
);
},
{
closed = 1;
nodes = (
"461 561 LINE",
"489 288 LINE",
"318 288 LINE"
);
},
{
closed = 1;
nodes = (
"715 802 OFFCURVE",
"729 968 OFFCURVE",
"729 968 CURVE",
"610 968 LINE",
"610 968 OFFCURVE",
"595 904 OFFCURVE",
"521 904 CURVE SMOOTH",
"449 904 OFFCURVE",
"460 968 OFFCURVE",
"460 968 CURVE",
"341 968 LINE",
"341 968 OFFCURVE",
"325 802 OFFCURVE",
"520 802 CURVE SMOOTH"
);
},
{
closed = 1;
nodes = (
"587 988 LINE",
"603 1059 LINE",
"551 994 LINE",
"599 1018 LINE SMOOTH",
"629 1033 OFFCURVE",
"710 1064 OFFCURVE",
"710 1136 CURVE SMOOTH",
"710 1190 OFFCURVE",
"663 1239 OFFCURVE",
"580 1239 CURVE SMOOTH",
"430 1239 OFFCURVE",
"427 1115 OFFCURVE",
"427 1115 CURVE",
"528 1115 LINE",
"528 1115 OFFCURVE",
"530 1150 OFFCURVE",
"568 1150 CURVE SMOOTH",
"588 1150 OFFCURVE",
"599 1138 OFFCURVE",
"599 1123 CURVE SMOOTH",
"599 1105 OFFCURVE",
"584 1092 OFFCURVE",
"548 1076 CURVE SMOOTH",
"530 1068 LINE SMOOTH",
"506 1057 OFFCURVE",
"496 1040 OFFCURVE",
"492 1021 CURVE SMOOTH",
"485 988 LINE"
);
}
);
width = 771;
}
);
leftKerningGroup = A;
rightKerningGroup = A;
unicode = 1EB2;
},
{
glyphname = Abrevetilde;
lastChange = "2021-03-14 09:41:58 +0000";
layers = (
{
anchors = (
{
name = bottom;
position = "{273, 0}";
},
{
name = ogonek;
position = "{581, 0}";
},
{
name = top;
position = "{642, 1061}";
}
);
layerId = "3EF6EAEC-888F-4BA2-8550-D36A3DFF40E2";
paths = (
{
closed = 1;
nodes = (
"45 0 LINE",
"171 220 LINE",
"513 220 LINE",
"545 0 LINE",
"581 0 LINE",
"471 740 LINE",
"428 740 LINE",
"4 0 LINE"
);
},
{
closed = 1;
nodes = (
"443 697 LINE",
"508 252 LINE",
"189 252 LINE"
);
},
{
closed = 1;
nodes = (
"596 823 OFFCURVE",
"623 933 OFFCURVE",
"623 933 CURVE",
"592 933 LINE",
"592 933 OFFCURVE",
"567 852 OFFCURVE",
"472 852 CURVE SMOOTH",
"376 852 OFFCURVE",
"386 933 OFFCURVE",
"386 933 CURVE",
"355 933 LINE",
"355 933 OFFCURVE",
"346 823 OFFCURVE",
"472 823 CURVE SMOOTH"
);
},
{
closed = 1;
nodes = (
"605 979 OFFCURVE",
"631 1026 OFFCURVE",
"642 1084 CURVE",
"611 1084 LINE",
"603 1035 OFFCURVE",
"586 1008 OFFCURVE",
"562 1008 CURVE SMOOTH",
"521 1008 OFFCURVE",
"520 1089 OFFCURVE",
"457 1089 CURVE SMOOTH",
"410 1089 OFFCURVE",
"383 1045 OFFCURVE",
"372 984 CURVE",
"403 984 LINE",
"410 1029 OFFCURVE",
"428 1060 OFFCURVE",
"454 1060 CURVE SMOOTH",
"496 1060 OFFCURVE",
"499 979 OFFCURVE",
"559 979 CURVE SMOOTH"
);
}
);
width = 657;
},
{
anchors = (
{
name = bottom;
position = "{296, 0}";
},
{
name = ogonek;
position = "{556, 0}";
},
{
name = top;
position = "{340, 1061}";
}
);
layerId = "DFC78E06-237F-4D33-BFB3-2388B696AEC9";
paths = (
{
closed = 1;
nodes = (
"83 0 LINE",
"182 177 LINE",
"493 177 LINE",
"517 0 LINE",
"613 0 LINE",
"509 740 LINE",
"393 740 LINE",
"-26 0 LINE"
);
},
{
closed = 1;
nodes = (
"433 623 LINE",
"481 265 LINE",
"232 265 LINE"
);
},
{
closed = 1;
nodes = (
"632 815 OFFCURVE",
"659 957 OFFCURVE",
"659 957 CURVE",
"588 957 LINE",
"588 957 OFFCURVE",
"566 878 OFFCURVE",
"482 878 CURVE SMOOTH",
"398 878 OFFCURVE",
"410 957 OFFCURVE",
"410 957 CURVE",
"339 957 LINE",
"339 957 OFFCURVE",
"327 815 OFFCURVE",
"481 815 CURVE SMOOTH"
);
},
{
closed = 1;
nodes = (
"645 1001 OFFCURVE",
"672 1055 OFFCURVE",
"687 1133 CURVE",
"625 1133 LINE",
"618 1092 OFFCURVE",
"607 1069 OFFCURVE",
"585 1069 CURVE SMOOTH",
"548 1069 OFFCURVE",
"529 1138 OFFCURVE",
"458 1138 CURVE SMOOTH",
"396 1138 OFFCURVE",
"369 1085 OFFCURVE",
"354 1007 CURVE",
"416 1007 LINE",
"423 1048 OFFCURVE",
"436 1072 OFFCURVE",
"457 1072 CURVE SMOOTH",
"495 1072 OFFCURVE",
"515 1001 OFFCURVE",
"584 1001 CURVE SMOOTH"
);
}
);
width = 704;
},
{
anchors = (
{
name = bottom;
position = "{330, 0}";
},
{
name = ogonek;
position = "{708, 0}";
},
{
name = top;
position = "{374, 1169}";
}
);
layerId = "1F0C3569-068D-41D8-99BF-71FC09839D59";
paths = (
{
closed = 1;
nodes = (
"167 0 LINE",
"232 124 LINE",
"505 124 LINE",
"518 0 LINE",
"708 0 LINE",
"619 740 LINE",
"360 740 LINE",
"-43 0 LINE"
);
},
{
closed = 1;
nodes = (
"461 561 LINE",
"489 288 LINE",
"318 288 LINE"
);
},
{
closed = 1;
nodes = (
"715 802 OFFCURVE",
"729 968 OFFCURVE",
"729 968 CURVE",
"610 968 LINE",
"610 968 OFFCURVE",
"595 904 OFFCURVE",
"521 904 CURVE SMOOTH",
"449 904 OFFCURVE",
"460 968 OFFCURVE",
"460 968 CURVE",
"341 968 LINE",
"341 968 OFFCURVE",
"325 802 OFFCURVE",
"520 802 CURVE SMOOTH"
);
},
{
closed = 1;
nodes = (
"724 1015 OFFCURVE",
"749 1095 OFFCURVE",
"766 1174 CURVE",
"673 1174 LINE",
"665 1139 OFFCURVE",
"655 1121 OFFCURVE",
"636 1121 CURVE SMOOTH",
"602 1121 OFFCURVE",
"573 1180 OFFCURVE",
"500 1180 CURVE SMOOTH",
"409 1180 OFFCURVE",
"385 1100 OFFCURVE",
"368 1021 CURVE",
"461 1021 LINE",
"468 1055 OFFCURVE",
"479 1074 OFFCURVE",
"498 1074 CURVE SMOOTH",
"533 1074 OFFCURVE",
"561 1015 OFFCURVE",
"634 1015 CURVE SMOOTH"
);
}
);
width = 771;
}
);
leftKerningGroup = A;
rightKerningGroup = A;
unicode = 1EB4;
},
{
glyphname = Acircumflex;
lastChange = "2021-03-14 09:41:58 +0000";
layers = (
{
anchors = (
{
name = bottom;
position = "{273, 0}";
},
{
name = ogonek;
position = "{581, 0}";
},
{
name = top;
position = "{604, 849}";
}
);
layerId = "3EF6EAEC-888F-4BA2-8550-D36A3DFF40E2";
paths = (
{
closed = 1;
nodes = (
"45 0 LINE",
"171 220 LINE",
"513 220 LINE",
"545 0 LINE",
"581 0 LINE",
"471 740 LINE",
"428 740 LINE",
"4 0 LINE"
);
},
{
closed = 1;
nodes = (
"443 697 LINE",
"508 252 LINE",
"189 252 LINE"
);
},
{
closed = 1;
nodes = (
"380 818 LINE",
"493 931 LINE",
"559 818 LINE",
"595 818 LINE",
"513 956 LINE",
"476 956 LINE",
"336 818 LINE"
);
}
);
width = 657;
},
{
anchors = (
{
name = bottom;
position = "{296, 0}";
},
{
name = ogonek;
position = "{556, 0}";
},
{
name = top;
position = "{622, 864}";
}
);
layerId = "DFC78E06-237F-4D33-BFB3-2388B696AEC9";
paths = (
{
closed = 1;
nodes = (
"83 0 LINE",
"182 177 LINE",
"493 177 LINE",
"517 0 LINE",
"613 0 LINE",
"509 740 LINE",
"393 740 LINE",
"-26 0 LINE"
);
},
{
closed = 1;
nodes = (
"433 623 LINE",
"481 265 LINE",
"232 265 LINE"
);
},
{
closed = 1;
nodes = (
"390 816 LINE",
"484 910 LINE",
"541 816 LINE",
"621 816 LINE",
"531 963 LINE",
"450 963 LINE",
"298 816 LINE"
);
}
);
width = 704;
},
{
anchors = (
{
name = bottom;
position = "{330, 0}";
},
{
name = ogonek;
position = "{708, 0}";
},
{
name = top;
position = "{710, 860}";
}
);
layerId = "1F0C3569-068D-41D8-99BF-71FC09839D59";
paths = (
{
closed = 1;
nodes = (
"167 0 LINE",
"232 124 LINE",
"505 124 LINE",
"518 0 LINE",
"708 0 LINE",
"619 740 LINE",
"360 740 LINE",
"-43 0 LINE"
);
},
{
closed = 1;
nodes = (
"461 561 LINE",
"489 288 LINE",
"318 288 LINE"
);
},
{
closed = 1;
nodes = (
"434 799 LINE",
"519 884 LINE",
"569 799 LINE",
"702 799 LINE",
"601 958 LINE",
"454 958 LINE",
"285 799 LINE"
);
}
);
width = 771;
}
);
leftKerningGroup = A;
rightKerningGroup = A;
unicode = 00C2;
},
{
glyphname = Acircumflexacute;
lastChange = "2021-03-14 09:41:58 +0000";
layers = (
{
anchors = (
{
name = bottom;
position = "{273, 0}";
},
{
name = ogonek;
position = "{581, 0}";
},
{
name = top;
position = "{448, 740}";
}
);
layerId = "3EF6EAEC-888F-4BA2-8550-D36A3DFF40E2";
paths = (
{
closed = 1;
nodes = (
"45 0 LINE",
"171 220 LINE",
"513 220 LINE",
"545 0 LINE",
"581 0 LINE",
"471 740 LINE",
"428 740 LINE",
"4 0 LINE"
);
},
{
closed = 1;
nodes = (
"443 697 LINE",
"508 252 LINE",
"189 252 LINE"
);
},
{
closed = 1;
nodes = (
"380 818 LINE",
"493 931 LINE",
"559 818 LINE",
"595 818 LINE",
"513 956 LINE",
"476 956 LINE",
"336 818 LINE"
);
},
{
closed = 1;
nodes = (
"714 1089 LINE",
"677 1089 LINE",
"604 937 LINE",
"634 937 LINE"
);
}
);
width = 657;
},
{
anchors = (
{
name = bottom;
position = "{296, 0}";
},
{
name = ogonek;
position = "{556, 0}";
},
{
name = top;
position = "{453, 740}";
}
);
layerId = "DFC78E06-237F-4D33-BFB3-2388B696AEC9";
paths = (
{
closed = 1;
nodes = (
"83 0 LINE",
"182 177 LINE",
"493 177 LINE",
"517 0 LINE",
"613 0 LINE",
"509 740 LINE",
"393 740 LINE",
"-26 0 LINE"
);
},
{
closed = 1;
nodes = (
"433 623 LINE",
"481 265 LINE",
"232 265 LINE"
);
},
{
closed = 1;
nodes = (
"400 816 LINE",
"494 910 LINE",
"551 816 LINE",
"631 816 LINE",
"541 963 LINE",
"460 963 LINE",
"308 816 LINE"
);
},
{
closed = 1;
nodes = (
"805 1125 LINE",
"710 1125 LINE",
"617 945 LINE",
"695 944 LINE"
);
}
);
width = 704;
},
{
anchors = (
{
name = bottom;
position = "{330, 0}";
},
{
name = ogonek;
position = "{708, 0}";
},
{
name = top;
position = "{487, 740}";
}
);
layerId = "1F0C3569-068D-41D8-99BF-71FC09839D59";
paths = (
{
closed = 1;
nodes = (
"167 0 LINE",
"232 124 LINE",
"505 124 LINE",
"518 0 LINE",
"708 0 LINE",
"619 740 LINE",
"360 740 LINE",
"-43 0 LINE"
);
},
{
closed = 1;
nodes = (
"461 561 LINE",
"489 288 LINE",
"318 288 LINE"
);
},
{
closed = 1;
nodes = (
"434 799 LINE",
"519 884 LINE",
"569 799 LINE",
"702 799 LINE",
"601 958 LINE",
"454 958 LINE",
"285 799 LINE"
);
},
{
closed = 1;
nodes = (
"915 1109 LINE",
"745 1109 LINE",
"668 930 LINE",
"801 929 LINE"
);
}
);
width = 771;
}
);
leftKerningGroup = A;
rightKerningGroup = A;
unicode = 1EA4;
},
{
glyphname = Acircumflexdotbelow;
lastChange = "2021-03-14 09:41:58 +0000";
layers = (
{
anchors = (
{
name = bottom;
position = "{232, -192}";
},
{
name = ogonek;
position = "{581, 0}";
},
{
name = top;
position = "{604, 849}";
}
);
layerId = "3EF6EAEC-888F-4BA2-8550-D36A3DFF40E2";
paths = (
{
closed = 1;
nodes = (
"45 0 LINE",
"171 220 LINE",
"513 220 LINE",
"545 0 LINE",
"581 0 LINE",
"471 740 LINE",
"428 740 LINE",
"4 0 LINE"
);
},
{
closed = 1;
nodes = (
"443 697 LINE",
"508 252 LINE",
"189 252 LINE"
);
},
{
closed = 1;
nodes = (
"261 -192 OFFCURVE",
"278 -175 OFFCURVE",
"278 -154 CURVE SMOOTH",
"278 -134 OFFCURVE",
"261 -117 OFFCURVE",
"240 -117 CURVE SMOOTH",
"219 -117 OFFCURVE",
"203 -134 OFFCURVE",
"203 -154 CURVE SMOOTH",
"203 -175 OFFCURVE",
"219 -192 OFFCURVE",
"240 -192 CURVE SMOOTH"
);
},
{
closed = 1;
nodes = (
"380 818 LINE",
"493 931 LINE",
"559 818 LINE",
"595 818 LINE",
"513 956 LINE",
"476 956 LINE",
"336 818 LINE"
);
}
);
width = 657;
},
{
anchors = (
{
name = bottom;
position = "{248, -227}";
},
{
name = ogonek;
position = "{556, 0}";
},
{
name = top;
position = "{622, 864}";
}
);
layerId = "DFC78E06-237F-4D33-BFB3-2388B696AEC9";
paths = (
{
closed = 1;
nodes = (
"83 0 LINE",
"182 177 LINE",
"493 177 LINE",
"517 0 LINE",
"613 0 LINE",
"509 740 LINE",
"393 740 LINE",
"-26 0 LINE"
);
},
{
closed = 1;
nodes = (
"433 623 LINE",
"481 265 LINE",
"232 265 LINE"
);
},
{
closed = 1;
nodes = (
"299 -227 OFFCURVE",
"327 -198 OFFCURVE",
"327 -162 CURVE SMOOTH",
"327 -126 OFFCURVE",
"299 -97 OFFCURVE",
"262 -97 CURVE SMOOTH",
"224 -97 OFFCURVE",
"197 -126 OFFCURVE",
"197 -162 CURVE SMOOTH",
"197 -197 OFFCURVE",
"224 -227 OFFCURVE",
"262 -227 CURVE SMOOTH"
);
},
{
closed = 1;
nodes = (
"390 816 LINE",
"484 910 LINE",
"541 816 LINE",
"621 816 LINE",
"531 963 LINE",
"450 963 LINE",
"298 816 LINE"
);
}
);
width = 704;
},
{
anchors = (
{
name = bottom;
position = "{275, -260}";
},
{
name = ogonek;
position = "{708, 0}";
},
{
name = top;
position = "{710, 860}";
}
);
layerId = "1F0C3569-068D-41D8-99BF-71FC09839D59";
paths = (
{
closed = 1;
nodes = (
"167 0 LINE",
"232 124 LINE",
"505 124 LINE",
"518 0 LINE",
"708 0 LINE",
"619 740 LINE",
"360 740 LINE",
"-43 0 LINE"
);
},
{
closed = 1;
nodes = (
"461 561 LINE",
"489 288 LINE",
"318 288 LINE"
);
},
{
closed = 1;
nodes = (
"344.9 -260 OFFCURVE",
"382.7 -219.5 OFFCURVE",
"382.7 -170.9 CURVE SMOOTH",
"382.7 -121.4 OFFCURVE",
"344.9 -81.8 OFFCURVE",
"293.6 -81.8 CURVE SMOOTH",
"241.4 -81.8 OFFCURVE",
"204.5 -121.4 OFFCURVE",
"204.5 -170.9 CURVE SMOOTH",
"204.5 -219.5 OFFCURVE",
"241.4 -260 OFFCURVE",
"293.6 -260 CURVE SMOOTH"
);
},
{
closed = 1;
nodes = (
"434 799 LINE",
"519 884 LINE",
"569 799 LINE",
"702 799 LINE",
"601 958 LINE",
"454 958 LINE",
"285 799 LINE"
);
}
);
width = 771;
}
);
leftKerningGroup = A;
rightKerningGroup = A;
unicode = 1EAC;
},
{
glyphname = Acircumflexgrave;
lastChange = "2021-03-14 09:41:58 +0000";
layers = (
{
anchors = (
{
name = bottom;
position = "{273, 0}";
},
{
name = ogonek;
position = "{581, 0}";
},
{
name = top;
position = "{659, 1100}";
}
);
layerId = "3EF6EAEC-888F-4BA2-8550-D36A3DFF40E2";
paths = (
{
closed = 1;
nodes = (
"45 0 LINE",
"171 220 LINE",
"513 220 LINE",
"545 0 LINE",
"581 0 LINE",
"471 740 LINE",
"428 740 LINE",
"4 0 LINE"
);
},
{
closed = 1;
nodes = (
"443 697 LINE",
"508 252 LINE",
"189 252 LINE"
);
},
{
closed = 1;
nodes = (
"380 818 LINE",
"493 931 LINE",
"559 818 LINE",
"595 818 LINE",
"513 956 LINE",
"476 956 LINE",
"336 818 LINE"
);
},
{
closed = 1;
nodes = (
"634 937 LINE",
"581 1089 LINE",
"545 1089 LINE",
"605 937 LINE"
);
}
);
width = 657;
},
{
anchors = (
{
name = bottom;
position = "{296, 0}";
},
{
name = ogonek;
position = "{556, 0}";
},
{
name = top;
position = "{355, 1100}";
}
);
layerId = "DFC78E06-237F-4D33-BFB3-2388B696AEC9";
paths = (
{
closed = 1;
nodes = (
"83 0 LINE",
"182 177 LINE",
"493 177 LINE",
"517 0 LINE",
"613 0 LINE",
"509 740 LINE",
"393 740 LINE",
"-26 0 LINE"
);
},
{
closed = 1;
nodes = (
"433 623 LINE",
"481 265 LINE",
"232 265 LINE"
);
},
{
closed = 1;
nodes = (
"400 816 LINE",
"494 910 LINE",
"551 816 LINE",
"631 816 LINE",
"541 963 LINE",
"460 963 LINE",
"308 816 LINE"
);
},
{
closed = 1;
nodes = (
"699 945 LINE",
"633 1125 LINE",
"540 1125 LINE",
"623 944 LINE"
);
}
);
width = 704;
},
{
anchors = (
{
name = bottom;
position = "{330, 0}";
},
{
name = ogonek;
position = "{708, 0}";
},
{
name = top;
position = "{376, 1281}";
}
);
layerId = "1F0C3569-068D-41D8-99BF-71FC09839D59";
paths = (
{
closed = 1;
nodes = (
"167 0 LINE",
"232 124 LINE",
"505 124 LINE",
"518 0 LINE",
"708 0 LINE",
"619 740 LINE",
"360 740 LINE",
"-43 0 LINE"
);
},
{
closed = 1;
nodes = (
"461 561 LINE",
"489 288 LINE",
"318 288 LINE"
);
},
{
closed = 1;
nodes = (
"434 799 LINE",
"519 884 LINE",
"569 799 LINE",
"702 799 LINE",
"601 958 LINE",
"454 958 LINE",
"285 799 LINE"
);
},
{
closed = 1;
nodes = (
"803 930 LINE",
"736 1109 LINE",
"571 1109 LINE",
"675 929 LINE"
);
}
);
width = 771;
}
);
leftKerningGroup = A;
rightKerningGroup = A;
unicode = 1EA6;
},
{
glyphname = Acircumflexhookabove;
lastChange = "2021-03-14 09:41:58 +0000";
layers = (
{
anchors = (
{
name = bottom;
position = "{273, 0}";
},
{
name = ogonek;
position = "{581, 0}";
},
{
name = top;
position = "{448, 740}";
}
);
layerId = "3EF6EAEC-888F-4BA2-8550-D36A3DFF40E2";
paths = (
{
closed = 1;
nodes = (
"45 0 LINE",
"171 220 LINE",
"513 220 LINE",
"545 0 LINE",
"581 0 LINE",
"471 740 LINE",
"428 740 LINE",
"4 0 LINE"
);
},
{
closed = 1;
nodes = (
"443 697 LINE",
"508 252 LINE",
"189 252 LINE"
);
},
{
closed = 1;
nodes = (
"380 818 LINE",
"493 931 LINE",
"559 818 LINE",
"595 818 LINE",
"513 956 LINE",
"476 956 LINE",
"336 818 LINE"
);
},
{
closed = 1;
nodes = (
"626 923 LINE",
"637 974 LINE",
"608 945 LINE",
"634 956 LINE SMOOTH",
"693 981 OFFCURVE",
"726 1008 OFFCURVE",
"726 1047 CURVE SMOOTH",
"726 1081 OFFCURVE",
"703 1114 OFFCURVE",
"651 1114 CURVE SMOOTH",
"569 1114 OFFCURVE",
"563 1037 OFFCURVE",
"563 1037 CURVE",
"592 1037 LINE",
"592 1037 OFFCURVE",
"595 1086 OFFCURVE",
"649 1086 CURVE SMOOTH",
"682 1086 OFFCURVE",
"696 1066 OFFCURVE",
"696 1047 CURVE SMOOTH",
"696 1020 OFFCURVE",
"675 1000 OFFCURVE",
"636 983 CURVE SMOOTH",
"622 977 LINE SMOOTH",
"613 973 OFFCURVE",
"607 965 OFFCURVE",
"605 955 CURVE SMOOTH",
"598 923 LINE"
);
}
);
width = 657;
},
{
anchors = (
{
name = bottom;
position = "{296, 0}";
},
{
name = ogonek;
position = "{556, 0}";
},
{
name = top;
position = "{453, 740}";
}
);
layerId = "DFC78E06-237F-4D33-BFB3-2388B696AEC9";
paths = (
{
closed = 1;
nodes = (
"83 0 LINE",
"182 177 LINE",
"493 177 LINE",
"517 0 LINE",
"613 0 LINE",
"509 740 LINE",
"393 740 LINE",
"-26 0 LINE"
);
},
{
closed = 1;
nodes = (
"433 623 LINE",
"481 265 LINE",
"232 265 LINE"
);
},
{
closed = 1;
nodes = (
"390 816 LINE",
"484 910 LINE",
"541 816 LINE",
"621 816 LINE",
"531 963 LINE",
"450 963 LINE",
"298 816 LINE"
);
},
{
closed = 1;
nodes = (
"663 930 LINE",
"676 989 LINE",
"634 946 LINE",
"661 957 LINE SMOOTH",
"721 981 OFFCURVE",
"768 1009 OFFCURVE",
"768 1059 CURVE SMOOTH",
"768 1101 OFFCURVE",
"737 1145 OFFCURVE",
"666 1145 CURVE SMOOTH",
"563 1145 OFFCURVE",
"557 1050 OFFCURVE",
"557 1050 CURVE",
"615 1050 LINE",
"615 1050 OFFCURVE",
"617 1093 OFFCURVE",
"665 1093 CURVE SMOOTH",
"693 1093 OFFCURVE",
"706 1076 OFFCURVE",
"706 1059 CURVE SMOOTH",
"706 1036 OFFCURVE",
"686 1019 OFFCURVE",
"649 1002 CURVE SMOOTH",
"634 995 LINE SMOOTH",
"621 989 OFFCURVE",
"611 978 OFFCURVE",
"608 963 CURVE SMOOTH",
"601 930 LINE"
);
}
);
width = 704;
},
{
anchors = (
{
name = bottom;
position = "{330, 0}";
},
{
name = ogonek;
position = "{708, 0}";
},
{
name = top;
position = "{487, 740}";
}
);
layerId = "1F0C3569-068D-41D8-99BF-71FC09839D59";
paths = (
{
closed = 1;
nodes = (
"167 0 LINE",
"232 124 LINE",
"505 124 LINE",
"518 0 LINE",
"708 0 LINE",
"619 740 LINE",
"360 740 LINE",
"-43 0 LINE"
);
},
{
closed = 1;
nodes = (
"461 561 LINE",
"489 288 LINE",
"318 288 LINE"
);
},
{
closed = 1;
nodes = (
"434 799 LINE",
"519 884 LINE",
"569 799 LINE",
"702 799 LINE",
"601 958 LINE",
"454 958 LINE",
"285 799 LINE"
);
},
{
closed = 1;
nodes = (
"768 907 LINE",
"784 978 LINE",
"732 913 LINE",
"780 937 LINE SMOOTH",
"810 952 OFFCURVE",
"891 983 OFFCURVE",
"891 1055 CURVE SMOOTH",
"891 1109 OFFCURVE",
"844 1158 OFFCURVE",
"761 1158 CURVE SMOOTH",
"611 1158 OFFCURVE",
"608 1034 OFFCURVE",
"608 1034 CURVE",
"709 1034 LINE",
"709 1034 OFFCURVE",
"711 1069 OFFCURVE",
"749 1069 CURVE SMOOTH",
"769 1069 OFFCURVE",
"780 1057 OFFCURVE",
"780 1042 CURVE SMOOTH",
"780 1024 OFFCURVE",
"765 1011 OFFCURVE",
"729 995 CURVE SMOOTH",
"711 987 LINE SMOOTH",
"687 976 OFFCURVE",
"677 959 OFFCURVE",
"673 940 CURVE SMOOTH",
"666 907 LINE"
);
}
);
width = 771;
}
);
leftKerningGroup = A;
rightKerningGroup = A;
unicode = 1EA8;
},
{
glyphname = Acircumflextilde;
lastChange = "2021-05-04 15:55:52 +0000";
layers = (
{
anchors = (
{
name = bottom;
position = "{273, 0}";
},
{
name = ogonek;
position = "{581, 0}";
},
{
name = top;
position = "{505, 740}";
}
);
layerId = "3EF6EAEC-888F-4BA2-8550-D36A3DFF40E2";
paths = (
{
closed = 1;
nodes = (
"45 0 LINE",
"171 220 LINE",
"513 220 LINE",
"545 0 LINE",
"581 0 LINE",
"471 740 LINE",
"428 740 LINE",
"4 0 LINE"
);
},
{
closed = 1;
nodes = (
"443 697 LINE",
"508 252 LINE",
"189 252 LINE"
);
},
{
closed = 1;
nodes = (
"381 818 LINE",
"494 931 LINE",
"560 818 LINE",
"596 818 LINE",
"514 956 LINE",
"477 956 LINE",
"337 818 LINE"
);
},
{
closed = 1;
nodes = (
"608 996 OFFCURVE",
"634 1043 OFFCURVE",
"645 1101 CURVE",
"614 1101 LINE",
"606 1052 OFFCURVE",
"589 1025 OFFCURVE",
"565 1025 CURVE SMOOTH",
"524 1025 OFFCURVE",
"523 1106 OFFCURVE",
"460 1106 CURVE SMOOTH",
"413 1106 OFFCURVE",
"386 1062 OFFCURVE",
"375 1001 CURVE",
"406 1001 LINE",
"413 1046 OFFCURVE",
"431 1077 OFFCURVE",
"457 1077 CURVE SMOOTH",
"499 1077 OFFCURVE",
"502 996 OFFCURVE",
"562 996 CURVE SMOOTH"
);
}
);
width = 657;
},
{
anchors = (
{
name = bottom;
position = "{296, 0}";
},
{
name = ogonek;
position = "{556, 0}";
},
{
name = top;
position = "{330, 1098}";
}
);
layerId = "DFC78E06-237F-4D33-BFB3-2388B696AEC9";
paths = (
{
closed = 1;
nodes = (
"83 0 LINE",
"182 177 LINE",
"493 177 LINE",
"517 0 LINE",
"613 0 LINE",
"509 740 LINE",
"393 740 LINE",
"-26 0 LINE"
);
},
{
closed = 1;
nodes = (
"433 623 LINE",
"481 265 LINE",
"232 265 LINE"
);
},
{
closed = 1;
nodes = (
"390 816 LINE",
"484 910 LINE",
"541 816 LINE",
"621 816 LINE",
"531 963 LINE",
"450 963 LINE",
"298 816 LINE"
);
},
{
closed = 1;
nodes = (
"635 1001 OFFCURVE",
"662 1055 OFFCURVE",
"677 1133 CURVE",
"615 1133 LINE",
"608 1092 OFFCURVE",
"597 1069 OFFCURVE",
"575 1069 CURVE SMOOTH",
"538 1069 OFFCURVE",
"519 1138 OFFCURVE",
"448 1138 CURVE SMOOTH",
"386 1138 OFFCURVE",
"359 1085 OFFCURVE",
"344 1007 CURVE",
"406 1007 LINE",
"413 1048 OFFCURVE",
"426 1072 OFFCURVE",
"447 1072 CURVE SMOOTH",
"485 1072 OFFCURVE",
"505 1001 OFFCURVE",
"574 1001 CURVE SMOOTH"
);
}
);
width = 704;
},
{
anchors = (
{
name = bottom;
position = "{330, 0}";
},
{
name = ogonek;
position = "{708, 0}";
},
{
name = top;
position = "{369, 1174}";
}
);
layerId = "1F0C3569-068D-41D8-99BF-71FC09839D59";
paths = (
{
closed = 1;
nodes = (
"167 0 LINE",
"232 124 LINE",
"505 124 LINE",
"518 0 LINE",
"708 0 LINE",
"619 740 LINE",
"360 740 LINE",
"-43 0 LINE"
);
},
{
closed = 1;
nodes = (
"461 561 LINE",
"489 288 LINE",
"318 288 LINE"
);
},
{
closed = 1;
nodes = (
"434 799 LINE",
"519 884 LINE",
"569 799 LINE",
"702 799 LINE",
"601 958 LINE",
"454 958 LINE",
"285 799 LINE"
);
},
{
closed = 1;
nodes = (
"709 992 OFFCURVE",
"734 1072 OFFCURVE",
"751 1151 CURVE",
"658 1151 LINE",
"650 1116 OFFCURVE",
"640 1098 OFFCURVE",
"621 1098 CURVE SMOOTH",
"587 1098 OFFCURVE",
"558 1157 OFFCURVE",
"485 1157 CURVE SMOOTH",
"394 1157 OFFCURVE",
"370 1077 OFFCURVE",
"353 998 CURVE",
"446 998 LINE",
"453 1032 OFFCURVE",
"464 1051 OFFCURVE",
"483 1051 CURVE SMOOTH",
"518 1051 OFFCURVE",
"546 992 OFFCURVE",
"619 992 CURVE SMOOTH"
);
}
);
width = 771;
}
);
leftKerningGroup = A;
rightKerningGroup = A;
unicode = 1EAA;
},
{
glyphname = Adieresis;
lastChange = "2021-03-14 09:41:58 +0000";
layers = (
{
anchors = (
{
name = bottom;
position = "{273, 0}";
},
{
name = ogonek;
position = "{581, 0}";
},
{
name = top;
position = "{484, 912}";
}
);
layerId = "3EF6EAEC-888F-4BA2-8550-D36A3DFF40E2";
paths = (
{
closed = 1;
nodes = (
"45 0 LINE",
"171 220 LINE",
"513 220 LINE",
"545 0 LINE",
"581 0 LINE",
"471 740 LINE",
"428 740 LINE",
"4 0 LINE"
);
},
{
closed = 1;
nodes = (
"443 697 LINE",
"508 252 LINE",
"189 252 LINE"
);
},
{
closed = 1;
nodes = (
"565.6 840.25 OFFCURVE",
"581.75 856.4 OFFCURVE",
"581.75 876.35 CURVE SMOOTH",
"581.75 895.35 OFFCURVE",
"565.6 911.5 OFFCURVE",
"545.65 911.5 CURVE SMOOTH",
"525.7 911.5 OFFCURVE",
"510.5 895.35 OFFCURVE",
"510.5 876.35 CURVE SMOOTH",
"510.5 856.4 OFFCURVE",
"525.7 840.25 OFFCURVE",
"545.65 840.25 CURVE SMOOTH"
);
},
{
closed = 1;
nodes = (
"426.6 840.25 OFFCURVE",
"442.75 856.4 OFFCURVE",
"442.75 876.35 CURVE SMOOTH",
"442.75 895.35 OFFCURVE",
"426.6 911.5 OFFCURVE",
"406.65 911.5 CURVE SMOOTH",
"386.7 911.5 OFFCURVE",
"371.5 895.35 OFFCURVE",
"371.5 876.35 CURVE SMOOTH",
"371.5 856.4 OFFCURVE",
"386.7 840.25 OFFCURVE",
"406.65 840.25 CURVE SMOOTH"
);
}
);
width = 657;
},
{
anchors = (
{
name = bottom;
position = "{296, 0}";
},
{
name = ogonek;
position = "{556, 0}";
},
{
name = top;
position = "{496, 944}";
}
);
layerId = "DFC78E06-237F-4D33-BFB3-2388B696AEC9";
paths = (
{
closed = 1;
nodes = (
"83 0 LINE",
"182 177 LINE",
"493 177 LINE",
"517 0 LINE",
"613 0 LINE",
"509 740 LINE",
"393 740 LINE",
"-26 0 LINE"
);
},
{
closed = 1;
nodes = (
"433 623 LINE",
"481 265 LINE",
"232 265 LINE"
);
},
{
closed = 1;
nodes = (
"613 820.5 OFFCURVE",
"639.6 848.05 OFFCURVE",
"639.6 882.25 CURVE SMOOTH",
"639.6 916.45 OFFCURVE",
"613 944 OFFCURVE",
"577.85 944 CURVE SMOOTH",
"541.75 944 OFFCURVE",
"516.1 916.45 OFFCURVE",
"516.1 882.25 CURVE SMOOTH",
"516.1 849 OFFCURVE",
"541.75 820.5 OFFCURVE",
"577.85 820.5 CURVE SMOOTH"
);
},
{
closed = 1;
nodes = (
"423 820.5 OFFCURVE",
"449.6 848.05 OFFCURVE",
"449.6 882.25 CURVE SMOOTH",
"449.6 916.45 OFFCURVE",
"423 944 OFFCURVE",
"387.85 944 CURVE SMOOTH",
"351.75 944 OFFCURVE",
"326.1 916.45 OFFCURVE",
"326.1 882.25 CURVE SMOOTH",
"326.1 849 OFFCURVE",
"351.75 820.5 OFFCURVE",
"387.85 820.5 CURVE SMOOTH"
);
}
);
width = 704;
},
{
anchors = (
{
name = bottom;
position = "{330, 0}";
},
{
name = ogonek;
position = "{708, 0}";
},
{
name = top;
position = "{539, 983}";
}
);
layerId = "1F0C3569-068D-41D8-99BF-71FC09839D59";
paths = (
{
closed = 1;
nodes = (
"167 0 LINE",
"232 124 LINE",
"505 124 LINE",
"518 0 LINE",
"708 0 LINE",
"619 740 LINE",
"360 740 LINE",
"-43 0 LINE"
);
},
{
closed = 1;
nodes = (
"461 561 LINE",
"489 288 LINE",
"318 288 LINE"
);
},
{
closed = 1;
nodes = (
"701.994 787.55 OFFCURVE",
"745.422 831.965 OFFCURVE",
"745.422 885.263 CURVE SMOOTH",
"745.422 939.548 OFFCURVE",
"701.994 982.976 OFFCURVE",
"643.056 982.976 CURVE SMOOTH",
"583.084 982.976 OFFCURVE",
"540.69 939.548 OFFCURVE",
"540.69 885.263 CURVE SMOOTH",
"540.69 831.965 OFFCURVE",
"583.084 787.55 OFFCURVE",
"643.056 787.55 CURVE SMOOTH"
);
},
{
closed = 1;
nodes = (
"451.994 787.55 OFFCURVE",
"495.422 831.965 OFFCURVE",
"495.422 885.263 CURVE SMOOTH",
"495.422 939.548 OFFCURVE",
"451.994 982.976 OFFCURVE",
"393.056 982.976 CURVE SMOOTH",
"333.084 982.976 OFFCURVE",
"290.69 939.548 OFFCURVE",
"290.69 885.263 CURVE SMOOTH",
"290.69 831.965 OFFCURVE",
"333.084 787.55 OFFCURVE",
"393.056 787.55 CURVE SMOOTH"
);
}
);
width = 771;
}
);
leftKerningGroup = A;
rightKerningGroup = A;
unicode = 00C4;
},
{
glyphname = Adotbelow;
lastChange = "2021-03-14 09:41:58 +0000";
layers = (
{
anchors = (
{
name = bottom;
position = "{232, -192}";
},
{
name = ogonek;
position = "{581, 0}";
},
{
name = top;
position = "{448, 740}";
}
);
layerId = "3EF6EAEC-888F-4BA2-8550-D36A3DFF40E2";
paths = (
{
closed = 1;
nodes = (
"45 0 LINE",
"171 220 LINE",
"513 220 LINE",
"545 0 LINE",
"581 0 LINE",
"471 740 LINE",
"428 740 LINE",
"4 0 LINE"
);
},
{
closed = 1;
nodes = (
"443 697 LINE",
"508 252 LINE",
"189 252 LINE"
);
},
{
closed = 1;
nodes = (
"261 -192 OFFCURVE",
"278 -175 OFFCURVE",
"278 -154 CURVE SMOOTH",
"278 -134 OFFCURVE",
"261 -117 OFFCURVE",
"240 -117 CURVE SMOOTH",
"219 -117 OFFCURVE",
"203 -134 OFFCURVE",
"203 -154 CURVE SMOOTH",
"203 -175 OFFCURVE",
"219 -192 OFFCURVE",
"240 -192 CURVE SMOOTH"
);
}
);
width = 657;
},
{
anchors = (
{
name = bottom;
position = "{248, -227}";
},
{
name = ogonek;
position = "{556, 0}";
},
{
name = top;
position = "{453, 740}";
}
);
layerId = "DFC78E06-237F-4D33-BFB3-2388B696AEC9";
paths = (
{
closed = 1;
nodes = (
"83 0 LINE",
"182 177 LINE",
"493 177 LINE",
"517 0 LINE",
"613 0 LINE",
"509 740 LINE",
"393 740 LINE",
"-26 0 LINE"
);
},
{
closed = 1;
nodes = (
"433 623 LINE",
"481 265 LINE",
"232 265 LINE"
);
},
{
closed = 1;
nodes = (
"299 -227 OFFCURVE",
"327 -198 OFFCURVE",
"327 -162 CURVE SMOOTH",
"327 -126 OFFCURVE",
"299 -97 OFFCURVE",
"262 -97 CURVE SMOOTH",
"224 -97 OFFCURVE",
"197 -126 OFFCURVE",
"197 -162 CURVE SMOOTH",
"197 -197 OFFCURVE",
"224 -227 OFFCURVE",
"262 -227 CURVE SMOOTH"
);
}
);
width = 704;
},
{
anchors = (
{
name = bottom;
position = "{275, -260}";
},
{
name = ogonek;
position = "{708, 0}";
},
{
name = top;
position = "{487, 740}";
}
);
layerId = "1F0C3569-068D-41D8-99BF-71FC09839D59";
paths = (
{
closed = 1;
nodes = (
"167 0 LINE",
"232 124 LINE",
"505 124 LINE",
"518 0 LINE",
"708 0 LINE",
"619 740 LINE",
"360 740 LINE",
"-43 0 LINE"
);
},
{
closed = 1;
nodes = (
"461 561 LINE",
"489 288 LINE",
"318 288 LINE"
);
},
{
closed = 1;
nodes = (
"344.9 -260 OFFCURVE",
"382.7 -219.5 OFFCURVE",
"382.7 -170.9 CURVE SMOOTH",
"382.7 -121.4 OFFCURVE",
"344.9 -81.8 OFFCURVE",
"293.6 -81.8 CURVE SMOOTH",
"241.4 -81.8 OFFCURVE",
"204.5 -121.4 OFFCURVE",
"204.5 -170.9 CURVE SMOOTH",
"204.5 -219.5 OFFCURVE",
"241.4 -260 OFFCURVE",
"293.6 -260 CURVE SMOOTH"
);
}
);
width = 771;
}
);
leftKerningGroup = A;
rightKerningGroup = A;
unicode = 1EA0;
},
{
glyphname = Agrave;
lastChange = "2021-03-14 09:41:58 +0000";
layers = (
{
anchors = (
{
name = bottom;
position = "{273, 0}";
},
{
name = ogonek;
position = "{581, 0}";
},
{
name = top;
position = "{448, 980}";
}
);
layerId = "3EF6EAEC-888F-4BA2-8550-D36A3DFF40E2";
paths = (
{
closed = 1;
nodes = (
"45 0 LINE",
"171 220 LINE",
"513 220 LINE",
"545 0 LINE",
"581 0 LINE",
"471 740 LINE",
"428 740 LINE",
"4 0 LINE"
);
},
{
closed = 1;
nodes = (
"443 697 LINE",
"508 252 LINE",
"189 252 LINE"
);
},
{
closed = 1;
nodes = (
"476 828 LINE",
"423 980 LINE",
"387 980 LINE",
"447 828 LINE"
);
}
);
width = 657;
},
{
anchors = (
{
name = bottom;
position = "{296, 0}";
},
{
name = ogonek;
position = "{556, 0}";
},
{
name = top;
position = "{400, 1009}";
}
);
layerId = "DFC78E06-237F-4D33-BFB3-2388B696AEC9";
paths = (
{
closed = 1;
nodes = (
"83 0 LINE",
"182 177 LINE",
"493 177 LINE",
"517 0 LINE",
"613 0 LINE",
"509 740 LINE",
"393 740 LINE",
"-26 0 LINE"
);
},
{
closed = 1;
nodes = (
"433 623 LINE",
"481 265 LINE",
"232 265 LINE"
);
},
{
closed = 1;
nodes = (
"498 821 LINE",
"432 1001 LINE",
"339 1001 LINE",
"422 820 LINE"
);
}
);
width = 704;
},
{
anchors = (
{
name = bottom;
position = "{330, 0}";
},
{
name = ogonek;
position = "{708, 0}";
},
{
name = top;
position = "{413, 1050}";
}
);
layerId = "1F0C3569-068D-41D8-99BF-71FC09839D59";
paths = (
{
closed = 1;
nodes = (
"167 0 LINE",
"232 124 LINE",
"505 124 LINE",
"518 0 LINE",
"708 0 LINE",
"619 740 LINE",
"360 740 LINE",
"-43 0 LINE"
);
},
{
closed = 1;
nodes = (
"461 561 LINE",
"489 288 LINE",
"318 288 LINE"
);
},
{
closed = 1;
nodes = (
"556 810 LINE",
"489 989 LINE",
"324 989 LINE",
"428 809 LINE"
);
}
);
width = 771;
}
);
leftKerningGroup = A;
rightKerningGroup = A;
unicode = 00C0;
},
{
glyphname = Ahookabove;
lastChange = "2021-03-14 09:41:58 +0000";
layers = (
{
anchors = (
{
name = bottom;
position = "{273, 0}";
},
{
name = ogonek;
position = "{581, 0}";
},
{
name = top;
position = "{504, 1005}";
}
);
layerId = "3EF6EAEC-888F-4BA2-8550-D36A3DFF40E2";
paths = (
{
closed = 1;
nodes = (
"45 0 LINE",
"171 220 LINE",
"513 220 LINE",
"545 0 LINE",
"581 0 LINE",
"471 740 LINE",
"428 740 LINE",
"4 0 LINE"
);
},
{
closed = 1;
nodes = (
"443 697 LINE",
"508 252 LINE",
"189 252 LINE"
);
},
{
closed = 1;
nodes = (
"470 814 LINE",
"481 865 LINE",
"452 836 LINE",
"478 847 LINE SMOOTH",
"537 872 OFFCURVE",
"570 899 OFFCURVE",
"570 938 CURVE SMOOTH",
"570 972 OFFCURVE",
"547 1005 OFFCURVE",
"495 1005 CURVE SMOOTH",
"413 1005 OFFCURVE",
"407 928 OFFCURVE",
"407 928 CURVE",
"436 928 LINE",
"436 928 OFFCURVE",
"439 977 OFFCURVE",
"493 977 CURVE SMOOTH",
"526 977 OFFCURVE",
"540 957 OFFCURVE",
"540 938 CURVE SMOOTH",
"540 911 OFFCURVE",
"519 891 OFFCURVE",
"480 874 CURVE SMOOTH",
"466 868 LINE SMOOTH",
"457 864 OFFCURVE",
"451 856 OFFCURVE",
"449 846 CURVE SMOOTH",
"442 814 LINE"
);
}
);
width = 657;
},
{
anchors = (
{
name = bottom;
position = "{296, 0}";
},
{
name = ogonek;
position = "{556, 0}";
},
{
name = top;
position = "{513, 1021}";
}
);
layerId = "DFC78E06-237F-4D33-BFB3-2388B696AEC9";
paths = (
{
closed = 1;
nodes = (
"83 0 LINE",
"182 177 LINE",
"493 177 LINE",
"517 0 LINE",
"613 0 LINE",
"509 740 LINE",
"393 740 LINE",
"-26 0 LINE"
);
},
{
closed = 1;
nodes = (
"433 623 LINE",
"481 265 LINE",
"232 265 LINE"
);
},
{
closed = 1;
nodes = (
"494 806 LINE",
"507 865 LINE",
"465 822 LINE",
"492 833 LINE SMOOTH",
"552 857 OFFCURVE",
"599 885 OFFCURVE",
"599 935 CURVE SMOOTH",
"599 977 OFFCURVE",
"568 1021 OFFCURVE",
"497 1021 CURVE SMOOTH",
"394 1021 OFFCURVE",
"388 926 OFFCURVE",
"388 926 CURVE",
"446 926 LINE",
"446 926 OFFCURVE",
"448 969 OFFCURVE",
"496 969 CURVE SMOOTH",
"524 969 OFFCURVE",
"537 952 OFFCURVE",
"537 935 CURVE SMOOTH",
"537 912 OFFCURVE",
"517 895 OFFCURVE",
"480 878 CURVE SMOOTH",
"465 871 LINE SMOOTH",
"452 865 OFFCURVE",
"442 854 OFFCURVE",
"439 839 CURVE SMOOTH",
"432 806 LINE"
);
}
);
width = 704;
},
{
anchors = (
{
name = bottom;
position = "{330, 0}";
},
{
name = ogonek;
position = "{708, 0}";
},
{
name = top;
position = "{552, 1046}";
}
);
layerId = "1F0C3569-068D-41D8-99BF-71FC09839D59";
paths = (
{
closed = 1;
nodes = (
"167 0 LINE",
"232 124 LINE",
"505 124 LINE",
"518 0 LINE",
"708 0 LINE",
"619 740 LINE",
"360 740 LINE",
"-43 0 LINE"
);
},
{
closed = 1;
nodes = (
"461 561 LINE",
"489 288 LINE",
"318 288 LINE"
);
},
{
closed = 1;
nodes = (
"546 795 LINE",
"562 866 LINE",
"510 801 LINE",
"558 825 LINE SMOOTH",
"588 840 OFFCURVE",
"669 871 OFFCURVE",
"669 943 CURVE SMOOTH",
"669 997 OFFCURVE",
"622 1046 OFFCURVE",
"539 1046 CURVE SMOOTH",
"389 1046 OFFCURVE",
"386 922 OFFCURVE",
"386 922 CURVE",
"487 922 LINE",
"487 922 OFFCURVE",
"489 957 OFFCURVE",
"527 957 CURVE SMOOTH",
"547 957 OFFCURVE",
"558 945 OFFCURVE",
"558 930 CURVE SMOOTH",
"558 912 OFFCURVE",
"543 899 OFFCURVE",
"507 883 CURVE SMOOTH",
"489 875 LINE SMOOTH",
"465 864 OFFCURVE",
"455 847 OFFCURVE",
"451 828 CURVE SMOOTH",
"444 795 LINE"
);
}
);
width = 771;
}
);
leftKerningGroup = A;
rightKerningGroup = A;
unicode = 1EA2;
},
{
glyphname = Amacron;
lastChange = "2021-05-04 15:56:33 +0000";
layers = (
{
anchors = (
{
name = bottom;
position = "{273, 0}";
},
{
name = ogonek;
position = "{581, 0}";
},
{
name = top;
position = "{476, 873}";
}
);
layerId = "3EF6EAEC-888F-4BA2-8550-D36A3DFF40E2";
paths = (
{
closed = 1;
nodes = (
"45 0 LINE",
"171 220 LINE",
"513 220 LINE",
"545 0 LINE",
"581 0 LINE",
"471 740 LINE",
"428 740 LINE",
"4 0 LINE"
);
},
{
closed = 1;
nodes = (
"443 697 LINE",
"508 252 LINE",
"189 252 LINE"
);
},
{
closed = 1;
nodes = (
"610 843 LINE",
"616 873 LINE",
"336 873 LINE",
"330 843 LINE"
);
}
);
width = 657;
},
{
anchors = (
{
name = bottom;
position = "{296, 0}";
},
{
name = ogonek;
position = "{556, 0}";
},
{
name = top;
position = "{492, 923}";
}
);
layerId = "DFC78E06-237F-4D33-BFB3-2388B696AEC9";
paths = (
{
closed = 1;
nodes = (
"83 0 LINE",
"182 177 LINE",
"493 177 LINE",
"517 0 LINE",
"613 0 LINE",
"509 740 LINE",
"393 740 LINE",
"-26 0 LINE"
);
},
{
closed = 1;
nodes = (
"433 623 LINE",
"481 265 LINE",
"232 265 LINE"
);
},
{
closed = 1;
nodes = (
"628 851 LINE",
"644 923 LINE",
"340 923 LINE",
"324 851 LINE"
);
}
);
width = 704;
},
{
anchors = (
{
name = bottom;
position = "{330, 0}";
},
{
name = ogonek;
position = "{708, 0}";
},
{
name = top;
position = "{535, 965}";
}
);
layerId = "1F0C3569-068D-41D8-99BF-71FC09839D59";
paths = (
{
closed = 1;
nodes = (
"167 0 LINE",
"232 124 LINE",
"505 124 LINE",
"518 0 LINE",
"708 0 LINE",
"619 740 LINE",
"360 740 LINE",
"-43 0 LINE"
);
},
{
closed = 1;
nodes = (
"461 561 LINE",
"489 288 LINE",
"318 288 LINE"
);
},
{
closed = 1;
nodes = (
"673 823 LINE",
"695 925 LINE",
"355 925 LINE",
"333 823 LINE"
);
}
);
width = 771;
}
);
leftKerningGroup = A;
rightKerningGroup = A;
unicode = 0100;
},
{
glyphname = Aogonek;
lastChange = "2021-03-14 09:41:58 +0000";
layers = (
{
anchors = (
{
name = bottom;
position = "{273, 0}";
},
{
name = ogonek;
position = "{581, 0}";
},
{
name = top;
position = "{448, 740}";
}
);
layerId = "3EF6EAEC-888F-4BA2-8550-D36A3DFF40E2";
paths = (
{
closed = 1;
nodes = (
"45 0 LINE",
"171 220 LINE",
"513 220 LINE",
"545 0 LINE",
"581 0 LINE",
"471 740 LINE",
"428 740 LINE",
"4 0 LINE"
);
},
{
closed = 1;
nodes = (
"443 697 LINE",
"508 252 LINE",
"189 252 LINE"
);
},
{
closed = 1;
nodes = (
"577 -149 OFFCURVE",
"594 -143 OFFCURVE",
"594 -143 CURVE",
"600 -115 LINE",
"600 -115 OFFCURVE",
"579 -120 OFFCURVE",
"559 -120 CURVE SMOOTH",
"524 -120 OFFCURVE",
"506 -106 OFFCURVE",
"506 -80 CURVE SMOOTH",
"506 -26 OFFCURVE",
"581 0 OFFCURVE",
"581 0 CURVE",
"563 12 LINE",
"563 12 OFFCURVE",
"474 -15 OFFCURVE",
"474 -84 CURVE SMOOTH",
"474 -125 OFFCURVE",
"505 -149 OFFCURVE",
"553 -149 CURVE SMOOTH"
);
}
);
width = 657;
},
{
anchors = (
{
name = bottom;
position = "{296, 0}";
},
{
name = ogonek;
position = "{556, 0}";
},
{
name = top;
position = "{453, 740}";
}
);
layerId = "DFC78E06-237F-4D33-BFB3-2388B696AEC9";
paths = (
{
closed = 1;
nodes = (
"83 0 LINE",
"182 177 LINE",
"493 177 LINE",
"517 0 LINE",
"613 0 LINE",
"509 740 LINE",
"393 740 LINE",
"-26 0 LINE"
);
},
{
closed = 1;
nodes = (
"433 623 LINE",
"481 265 LINE",
"232 265 LINE"
);
},
{
closed = 1;
nodes = (
"542 -167 OFFCURVE",
"561 -161 OFFCURVE",
"561 -161 CURVE",
"573 -103 LINE",
"573 -103 OFFCURVE",
"554 -108 OFFCURVE",
"536 -108 CURVE SMOOTH",
"502 -108 OFFCURVE",
"486 -94 OFFCURVE",
"486 -72 CURVE SMOOTH",
"486 -25 OFFCURVE",
"556 0 OFFCURVE",
"556 0 CURVE",
"524 19 LINE",
"524 19 OFFCURVE",
"413 -8 OFFCURVE",
"413 -90 CURVE SMOOTH",
"413 -136 OFFCURVE",
"449 -167 OFFCURVE",
"514 -167 CURVE SMOOTH"
);
}
);
width = 704;
},
{
anchors = (
{
name = bottom;
position = "{330, 0}";
},
{
name = ogonek;
position = "{708, 0}";
},
{
name = top;
position = "{487, 740}";
}
);
layerId = "1F0C3569-068D-41D8-99BF-71FC09839D59";
paths = (
{
closed = 1;
nodes = (
"167 0 LINE",
"232 124 LINE",
"505 124 LINE",
"518 0 LINE",
"708 0 LINE",
"619 740 LINE",
"360 740 LINE",
"-43 0 LINE"
);
},
{
closed = 1;
nodes = (
"461 561 LINE",
"489 288 LINE",
"318 288 LINE"
);
},
{
closed = 1;
nodes = (
"680 -194 OFFCURVE",
"703 -189 OFFCURVE",
"703 -189 CURVE",
"724 -87 LINE",
"724 -87 OFFCURVE",
"707 -90 OFFCURVE",
"692 -90 CURVE SMOOTH",
"659 -90 OFFCURVE",
"646 -77 OFFCURVE",
"646 -60 CURVE SMOOTH",
"646 -24 OFFCURVE",
"708 0 OFFCURVE",
"708 0 CURVE",
"655 29 LINE",
"655 29 OFFCURVE",
"507 3 OFFCURVE",
"507 -99 CURVE SMOOTH",
"507 -154 OFFCURVE",
"550 -194 OFFCURVE",
"646 -194 CURVE SMOOTH"
);
}
);
width = 771;
}
);
leftKerningGroup = A;
rightKerningGroup = A;
unicode = 0104;
},
{
glyphname = Aring;
lastChange = "2021-03-14 09:41:58 +0000";
layers = (
{
anchors = (
{
name = bottom;
position = "{273, 0}";
},
{
name = ogonek;
position = "{581, 0}";
},
{
name = top;
position = "{506, 1011}";
}
);
layerId = "3EF6EAEC-888F-4BA2-8550-D36A3DFF40E2";
paths = (
{
closed = 1;
nodes = (
"45 0 LINE",
"171 220 LINE",
"513 220 LINE",
"545 0 LINE",
"581 0 LINE",
"471 740 LINE",
"428 740 LINE",
"4 0 LINE"
);
},
{
closed = 1;
nodes = (
"443 697 LINE",
"508 252 LINE",
"189 252 LINE"
);
},
{
closed = 1;
nodes = (
"538 824 OFFCURVE",
"579 866 OFFCURVE",
"579 917 CURVE SMOOTH",
"579 969 OFFCURVE",
"538 1011 OFFCURVE",
"486 1011 CURVE SMOOTH",
"434 1011 OFFCURVE",
"393 969 OFFCURVE",
"393 917 CURVE SMOOTH",
"393 866 OFFCURVE",
"434 824 OFFCURVE",
"486 824 CURVE SMOOTH"
);
},
{
closed = 1;
nodes = (
"451 854 OFFCURVE",
"423 882 OFFCURVE",
"423 917 CURVE SMOOTH",
"423 952 OFFCURVE",
"451 981 OFFCURVE",
"486 981 CURVE SMOOTH",
"521 981 OFFCURVE",
"549 952 OFFCURVE",
"549 917 CURVE SMOOTH",
"549 882 OFFCURVE",
"521 854 OFFCURVE",
"486 854 CURVE SMOOTH"
);
}
);
width = 657;
},
{
anchors = (
{
name = bottom;
position = "{296, 0}";
},
{
name = ogonek;
position = "{556, 0}";
},
{
name = top;
position = "{453, 1063}";
}
);
layerId = "DFC78E06-237F-4D33-BFB3-2388B696AEC9";
paths = (
{
closed = 1;
nodes = (
"83 0 LINE",
"182 177 LINE",
"493 177 LINE",
"517 0 LINE",
"613 0 LINE",
"509 740 LINE",
"393 740 LINE",
"-26 0 LINE"
);
},
{
closed = 1;
nodes = (
"433 623 LINE",
"481 265 LINE",
"232 265 LINE"
);
},
{
closed = 1;
nodes = (
"523 812 OFFCURVE",
"581 869 OFFCURVE",
"581 940 CURVE SMOOTH",
"581 1011 OFFCURVE",
"523 1068 OFFCURVE",
"453 1068 CURVE SMOOTH",
"382 1068 OFFCURVE",
"324 1011 OFFCURVE",
"324 940 CURVE SMOOTH",
"324 869 OFFCURVE",
"382 812 OFFCURVE",
"453 812 CURVE SMOOTH"
);
},
{
closed = 1;
nodes = (
"419 880 OFFCURVE",
"392 907 OFFCURVE",
"392 940 CURVE SMOOTH",
"392 973 OFFCURVE",
"419 1000 OFFCURVE",
"453 1000 CURVE SMOOTH",
"486 1000 OFFCURVE",
"513 973 OFFCURVE",
"513 940 CURVE SMOOTH",
"513 907 OFFCURVE",
"486 880 OFFCURVE",
"453 880 CURVE SMOOTH"
);
}
);
width = 704;
},
{
anchors = (
{
name = bottom;
position = "{330, 0}";
},
{
name = ogonek;
position = "{708, 0}";
},
{
name = top;
position = "{557, 1069}";
}
);
layerId = "1F0C3569-068D-41D8-99BF-71FC09839D59";
paths = (
{
closed = 1;
nodes = (
"167 0 LINE",
"232 124 LINE",
"505 124 LINE",
"518 0 LINE",
"708 0 LINE",
"619 740 LINE",
"360 740 LINE",
"-43 0 LINE"
);
},
{
closed = 1;
nodes = (
"461 561 LINE",
"489 288 LINE",
"318 288 LINE"
);
},
{
closed = 1;
nodes = (
"605 788 OFFCURVE",
"668 851 OFFCURVE",
"668 929 CURVE SMOOTH",
"668 1006 OFFCURVE",
"605 1069 OFFCURVE",
"527 1069 CURVE SMOOTH",
"449 1069 OFFCURVE",
"386 1006 OFFCURVE",
"386 929 CURVE SMOOTH",
"386 851 OFFCURVE",
"449 788 OFFCURVE",
"527 788 CURVE SMOOTH"
);
},
{
closed = 1;
nodes = (
"499 878 OFFCURVE",
"476 900 OFFCURVE",
"476 929 CURVE SMOOTH",
"476 957 OFFCURVE",
"499 979 OFFCURVE",
"527 979 CURVE SMOOTH",
"555 979 OFFCURVE",
"578 957 OFFCURVE",
"578 929 CURVE SMOOTH",
"578 900 OFFCURVE",
"555 878 OFFCURVE",
"527 878 CURVE SMOOTH"
);
}
);
width = 771;
}
);
leftKerningGroup = A;
rightKerningGroup = A;
unicode = 00C5;
},
{
glyphname = Atilde;
lastChange = "2021-03-14 09:41:58 +0000";
layers = (
{
anchors = (
{
name = bottom;
position = "{273, 0}";
},
{
name = ogonek;
position = "{581, 0}";
},
{
name = top;
position = "{489, 935}";
}
);
layerId = "3EF6EAEC-888F-4BA2-8550-D36A3DFF40E2";
paths = (
{
closed = 1;
nodes = (
"45 0 LINE",
"171 220 LINE",
"513 220 LINE",
"545 0 LINE",
"581 0 LINE",
"471 740 LINE",
"428 740 LINE",
"4 0 LINE"
);
},
{
closed = 1;
nodes = (
"443 697 LINE",
"508 252 LINE",
"189 252 LINE"
);
},
{
closed = 1;
nodes = (
"577 831 OFFCURVE",
"603 878 OFFCURVE",
"614 936 CURVE",
"583 936 LINE",
"575 887 OFFCURVE",
"558 860 OFFCURVE",
"534 860 CURVE SMOOTH",
"493 860 OFFCURVE",
"492 941 OFFCURVE",
"429 941 CURVE SMOOTH",
"382 941 OFFCURVE",
"355 897 OFFCURVE",
"344 836 CURVE",
"375 836 LINE",
"382 881 OFFCURVE",
"400 912 OFFCURVE",
"426 912 CURVE SMOOTH",
"468 912 OFFCURVE",
"471 831 OFFCURVE",
"531 831 CURVE SMOOTH"
);
}
);
width = 657;
},
{
anchors = (
{
name = bottom;
position = "{296, 0}";
},
{
name = ogonek;
position = "{556, 0}";
},
{
name = top;
position = "{501, 961}";
}
);
layerId = "DFC78E06-237F-4D33-BFB3-2388B696AEC9";
paths = (
{
closed = 1;
nodes = (
"83 0 LINE",
"182 177 LINE",
"493 177 LINE",
"517 0 LINE",
"613 0 LINE",
"509 740 LINE",
"393 740 LINE",
"-26 0 LINE"
);
},
{
closed = 1;
nodes = (
"433 623 LINE",
"481 265 LINE",
"232 265 LINE"
);
},
{
closed = 1;
nodes = (
"612 826 OFFCURVE",
"639 880 OFFCURVE",
"654 958 CURVE",
"592 958 LINE",
"585 917 OFFCURVE",
"574 894 OFFCURVE",
"552 894 CURVE SMOOTH",
"515 894 OFFCURVE",
"496 963 OFFCURVE",
"425 963 CURVE SMOOTH",
"363 963 OFFCURVE",
"336 910 OFFCURVE",
"321 832 CURVE",
"383 832 LINE",
"390 873 OFFCURVE",
"403 897 OFFCURVE",
"424 897 CURVE SMOOTH",
"462 897 OFFCURVE",
"482 826 OFFCURVE",
"551 826 CURVE SMOOTH"
);
}
);
width = 704;
},
{
anchors = (
{
name = bottom;
position = "{330, 0}";
},
{
name = ogonek;
position = "{708, 0}";
},
{
name = top;
position = "{537, 972}";
}
);
layerId = "1F0C3569-068D-41D8-99BF-71FC09839D59";
paths = (
{
closed = 1;
nodes = (
"167 0 LINE",
"232 124 LINE",
"505 124 LINE",
"518 0 LINE",
"708 0 LINE",
"619 740 LINE",
"360 740 LINE",
"-43 0 LINE"
);
},
{
closed = 1;
nodes = (
"461 561 LINE",
"489 288 LINE",
"318 288 LINE"
);
},
{
closed = 1;
nodes = (
"683 822 OFFCURVE",
"708 902 OFFCURVE",
"725 981 CURVE",
"632 981 LINE",
"624 946 OFFCURVE",
"614 928 OFFCURVE",
"595 928 CURVE SMOOTH",
"561 928 OFFCURVE",
"532 987 OFFCURVE",
"459 987 CURVE SMOOTH",
"368 987 OFFCURVE",
"344 907 OFFCURVE",
"327 828 CURVE",
"420 828 LINE",
"427 862 OFFCURVE",
"438 881 OFFCURVE",
"457 881 CURVE SMOOTH",
"492 881 OFFCURVE",
"520 822 OFFCURVE",
"593 822 CURVE SMOOTH"
);
}
);
width = 771;
}
);
leftKerningGroup = A;
rightKerningGroup = A;
unicode = 00C3;
},
{
glyphname = AE;
lastChange = "2021-03-31 02:59:57 +0000";
layers = (
{
anchors = (
{
name = bottom;
position = "{595, 0}";
},
{
name = ogonek;
position = "{827, 0}";
},
{
name = top;
position = "{752, 740}";
},
{
name = topleft;
position = "{544, 700}";
}
);
layerId = "3EF6EAEC-888F-4BA2-8550-D36A3DFF40E2";
paths = (
{
closed = 1;
nodes = (
"46 0 LINE",
"578 724 LINE",
"578 740 LINE",
"548 740 LINE",
"4 0 LINE"
);
},
{
closed = 1;
nodes = (
"472 220 LINE",
"479 252 LINE",
"203 252 LINE",
"196 220 LINE"
);
},
{
closed = 1;
nodes = (
"849 362 LINE",
"856 396 LINE",
"511 396 LINE",
"504 362 LINE"
);
},
{
closed = 1;
nodes = (
"971 706 LINE",
"978 740 LINE",
"584 740 LINE",
"577 706 LINE"
);
},
{
closed = 1;
nodes = (
"827 0 LINE",
"834 34 LINE",
"434 34 LINE",
"427 0 LINE"
);
},
{
closed = 1;
nodes = (
"443 0 LINE",
"600 740 LINE",
"565 740 LINE",
"408 0 LINE"
);
}
);
width = 928;
},
{
anchors = (
{
name = bottom;
position = "{695, 0}";
},
{
name = ogonek;
position = "{879, 0}";
},
{
name = top;
position = "{801, 740}";
},
{
name = topleft;
position = "{575, 700}";
}
);
layerId = "DFC78E06-237F-4D33-BFB3-2388B696AEC9";
paths = (
{
closed = 1;
nodes = (
"89 0 LINE",
"581 675 LINE",
"595 740 LINE",
"512 740 LINE",
"-26 0 LINE"
);
},
{
closed = 1;
nodes = (
"542 177 LINE",
"560 265 LINE",
"203 265 LINE",
"185 177 LINE"
);
},
{
closed = 1;
nodes = (
"899 334 LINE",
"917 420 LINE",
"584 420 LINE",
"566 334 LINE"
);
},
{
closed = 1;
nodes = (
"1013 654 LINE",
"1031 740 LINE",
"652 740 LINE",
"634 654 LINE"
);
},
{
closed = 1;
nodes = (
"879 0 LINE",
"897 86 LINE",
"513 86 LINE",
"495 0 LINE"
);
},
{
closed = 1;
nodes = (
"521 0 LINE",
"678 740 LINE",
"580 740 LINE",
"423 0 LINE"
);
}
);
width = 1005;
},
{
anchors = (
{
name = bottom;
position = "{662, 0}";
},
{
name = ogonek;
position = "{931, 0}";
},
{
name = top;
position = "{819, 740}";
},
{
name = topleft;
position = "{576, 736}";
}
);
layerId = "1F0C3569-068D-41D8-99BF-71FC09839D59";
paths = (
{
closed = 1;
nodes = (
"167 0 LINE",
"550 613 LINE",
"577 740 LINE",
"422 740 LINE",
"-41 0 LINE"
);
},
{
closed = 1;
nodes = (
"535 124 LINE",
"570 285 LINE",
"171 285 LINE",
"136 124 LINE"
);
},
{
closed = 1;
nodes = (
"944 296 LINE",
"978 454 LINE",
"557 454 LINE",
"523 296 LINE"
);
},
{
closed = 1;
nodes = (
"1048 574 LINE",
"1083 740 LINE",
"617 740 LINE",
"582 574 LINE"
);
},
{
closed = 1;
nodes = (
"931 0 LINE",
"966 166 LINE",
"495 166 LINE",
"460 0 LINE"
);
},
{
closed = 1;
nodes = (
"594 0 LINE",
"751 740 LINE",
"559 740 LINE",
"402 0 LINE"
);
}
);
width = 1027;
}
);
leftKerningGroup = A;
leftMetricsKey = A;
rightKerningGroup = E;
rightMetricsKey = E;
unicode = 00C6;
},
{
glyphname = B;
lastChange = "2021-05-14 08:51:38 +0000";
layers = (
{
anchors = (
{
name = bottom;
position = "{52, 0}";
},
{
name = ogonek;
position = "{69, 0}";
},
{
name = top;
position = "{209, 740}";
},
{
name = topleft;
position = "{119, 740}";
}
);
layerId = "3EF6EAEC-888F-4BA2-8550-D36A3DFF40E2";
paths = (
{
closed = 1;
nodes = (
"327 0 LINE SMOOTH",
"493 0 OFFCURVE",
"580 121 OFFCURVE",
"580 222 CURVE SMOOTH",
"580 293 OFFCURVE",
"541 352 OFFCURVE",
"468 373 CURVE",
"469 377 LINE",
"570 406 OFFCURVE",
"624 495 OFFCURVE",
"624 577 CURVE SMOOTH",
"624 662 OFFCURVE",
"567 740 OFFCURVE",
"444 740 CURVE SMOOTH",
"209 740 LINE",
"202 706 LINE",
"442 706 LINE SMOOTH",
"543 706 OFFCURVE",
"588 645 OFFCURVE",
"588 576 CURVE SMOOTH",
"588 489 OFFCURVE",
"516 390 OFFCURVE",
"395 390 CURVE SMOOTH",
"135 390 LINE",
"128 358 LINE",
"388 358 LINE SMOOTH",
"495 358 OFFCURVE",
"545 294 OFFCURVE",
"545 222 CURVE SMOOTH",
"545 133 OFFCURVE",
"468 34 OFFCURVE",
"329 34 CURVE SMOOTH",
"59 34 LINE",
"52 0 LINE"
);
},
{
closed = 1;
nodes = (
"69 0 LINE",
"226 740 LINE",
"191 740 LINE",
"34 0 LINE"
);
}
);
width = 638;
},
{
anchors = (
{
name = bottom;
position = "{78, 0}";
},
{
name = ogonek;
position = "{127, 0}";
},
{
name = top;
position = "{227, 700}";
},
{
name = topleft;
position = "{123, 700}";
}
);
layerId = "DFC78E06-237F-4D33-BFB3-2388B696AEC9";
paths = (
{
closed = 1;
nodes = (
"340 0 LINE SMOOTH",
"510 0 OFFCURVE",
"607 129 OFFCURVE",
"607 239 CURVE SMOOTH",
"607 303 OFFCURVE",
"575 360 OFFCURVE",
"506 384 CURVE",
"507 390 LINE",
"591 420 OFFCURVE",
"637 498 OFFCURVE",
"637 574 CURVE SMOOTH",
"637 659 OFFCURVE",
"578 740 OFFCURVE",
"450 740 CURVE SMOOTH",
"245 740 LINE",
"227 655 LINE",
"438 655 LINE SMOOTH",
"509 655 OFFCURVE",
"543 609 OFFCURVE",
"543 558 CURVE SMOOTH",
"543 493 OFFCURVE",
"489 419 OFFCURVE",
"388 419 CURVE SMOOTH",
"177 419 LINE",
"160 340 LINE",
"379 340 LINE SMOOTH",
"470 340 OFFCURVE",
"510 290 OFFCURVE",
"510 235 CURVE SMOOTH",
"510 164 OFFCURVE",
"447 85 OFFCURVE",
"345 85 CURVE SMOOTH",
"106 85 LINE",
"88 0 LINE"
);
},
{
closed = 1;
nodes = (
"127 0 LINE",
"284 740 LINE",
"186 740 LINE",
"29 0 LINE"
);
}
);
width = 667;
},
{
anchors = (
{
name = bottom;
position = "{98, 0}";
},
{
name = ogonek;
position = "{194, 0}";
},
{
name = top;
position = "{254, 736}";
},
{
name = topleft;
position = "{128, 736}";
}
);
layerId = "1F0C3569-068D-41D8-99BF-71FC09839D59";
paths = (
{
closed = 1;
nodes = (
"388 0 LINE SMOOTH",
"582 0 OFFCURVE",
"689 135 OFFCURVE",
"689 248 CURVE SMOOTH",
"689 315 OFFCURVE",
"651 375 OFFCURVE",
"570 393 CURVE",
"571 402 LINE",
"663 426 OFFCURVE",
"715 502 OFFCURVE",
"715 575 CURVE SMOOTH",
"715 659 OFFCURVE",
"648 740 OFFCURVE",
"497 740 CURVE SMOOTH",
"337 740 LINE",
"303 581 LINE",
"453 581 LINE SMOOTH",
"500 581 OFFCURVE",
"520 555 OFFCURVE",
"520 527 CURVE SMOOTH",
"520 492 OFFCURVE",
"489 452 OFFCURVE",
"436 452 CURVE SMOOTH",
"276 452 LINE",
"246 309 LINE",
"410 309 LINE SMOOTH",
"463 309 OFFCURVE",
"487 279 OFFCURVE",
"487 246 CURVE SMOOTH",
"487 205 OFFCURVE",
"450 159 OFFCURVE",
"388 159 CURVE SMOOTH",
"214 159 LINE",
"180 0 LINE"
);
},
{
closed = 1;
nodes = (
"194 0 LINE",
"351 740 LINE",
"159 740 LINE",
"2 0 LINE"
);
}
);
width = 732;
}
);
leftKerningGroup = l;
leftMetricsKey = l;
rightKerningGroup = B;
unicode = 0042;
},
{
glyphname = C;
lastChange = "2021-03-16 13:57:34 +0000";
layers = (
{
anchors = (
{
name = bottom;
position = "{347, 0}";
},
{
name = top;
position = "{487, 740}";
}
);
layerId = "3EF6EAEC-888F-4BA2-8550-D36A3DFF40E2";
paths = (
{
closed = 1;
nodes = (
"606 -10 OFFCURVE",
"670 234 OFFCURVE",
"670 234 CURVE",
"633 234 LINE",
"633 234 OFFCURVE",
"576 24 OFFCURVE",
"354 24 CURVE SMOOTH",
"183 24 OFFCURVE",
"105 161 OFFCURVE",
"105 314 CURVE SMOOTH",
"105 503 OFFCURVE",
"225 716 OFFCURVE",
"453 716 CURVE SMOOTH",
"680 716 OFFCURVE",
"669 506 OFFCURVE",
"669 506 CURVE",
"705 506 LINE",
"705 506 OFFCURVE",
"715 750 OFFCURVE",
"455 750 CURVE SMOOTH",
"202 750 OFFCURVE",
"69 519 OFFCURVE",
"69 313 CURVE SMOOTH",
"69 143 OFFCURVE",
"159 -10 OFFCURVE",
"352 -10 CURVE SMOOTH"
);
}
);
width = 746;
},
{
anchors = (
{
name = bottom;
position = "{342, 1}";
},
{
name = top;
position = "{476, 740}";
}
);
guideLines = (
{
position = "{-5, 713}";
},
{
position = "{-14, -7}";
}
);
layerId = "DFC78E06-237F-4D33-BFB3-2388B696AEC9";
paths = (
{
closed = 1;
nodes = (
"635 -10 OFFCURVE",
"697 247 OFFCURVE",
"697 247 CURVE",
"598 247 LINE",
"598 247 OFFCURVE",
"549 79 OFFCURVE",
"370 79 CURVE SMOOTH",
"222 79 OFFCURVE",
"157 194 OFFCURVE",
"157 322 CURVE SMOOTH",
"157 482 OFFCURVE",
"259 662 OFFCURVE",
"453 662 CURVE SMOOTH",
"640 662 OFFCURVE",
"634 493 OFFCURVE",
"634 493 CURVE",
"732 493 LINE",
"732 493 OFFCURVE",
"738 750 OFFCURVE",
"458 750 CURVE SMOOTH",
"194 750 OFFCURVE",
"58 520 OFFCURVE",
"58 315 CURVE SMOOTH",
"58 144 OFFCURVE",
"152 -10 OFFCURVE",
"363 -10 CURVE SMOOTH"
);
}
);
width = 750;
},
{
anchors = (
{
name = bottom;
position = "{351, 8}";
},
{
name = top;
position = "{507, 738}";
}
);
layerId = "1F0C3569-068D-41D8-99BF-71FC09839D59";
paths = (
{
closed = 1;
nodes = (
"698 -10 OFFCURVE",
"750 267 OFFCURVE",
"750 267 CURVE",
"560 267 LINE",
"560 267 OFFCURVE",
"526 161 OFFCURVE",
"399 161 CURVE SMOOTH",
"296 161 OFFCURVE",
"249 243 OFFCURVE",
"249 335 CURVE SMOOTH",
"249 450 OFFCURVE",
"324 580 OFFCURVE",
"459 580 CURVE SMOOTH",
"595 580 OFFCURVE",
"595 473 OFFCURVE",
"595 473 CURVE",
"785 473 LINE",
"785 473 OFFCURVE",
"793 750 OFFCURVE",
"467 750 CURVE SMOOTH",
"201 750 OFFCURVE",
"55 524 OFFCURVE",
"55 318 CURVE SMOOTH",
"55 147 OFFCURVE",
"159 -10 OFFCURVE",
"381 -10 CURVE SMOOTH"
);
}
);
width = 784;
}
);
leftKerningGroup = O;
leftMetricsKey = O;
rightKerningGroup = O;
rightMetricsKey = O;
unicode = 0043;
},
{
glyphname = Cacute;
lastChange = "2021-03-14 09:41:58 +0000";
layers = (
{
anchors = (
{
name = bottom;
position = "{347, 0}";
},
{
name = top;
position = "{570, 980}";
}
);
layerId = "3EF6EAEC-888F-4BA2-8550-D36A3DFF40E2";
paths = (
{
closed = 1;
nodes = (
"606 -10 OFFCURVE",
"670 234 OFFCURVE",
"670 234 CURVE",
"633 234 LINE",
"633 234 OFFCURVE",
"576 24 OFFCURVE",
"354 24 CURVE SMOOTH",
"183 24 OFFCURVE",
"105 161 OFFCURVE",
"105 314 CURVE SMOOTH",
"105 503 OFFCURVE",
"225 716 OFFCURVE",
"453 716 CURVE SMOOTH",
"680 716 OFFCURVE",
"669 506 OFFCURVE",
"669 506 CURVE",
"705 506 LINE",
"705 506 OFFCURVE",
"715 750 OFFCURVE",
"455 750 CURVE SMOOTH",
"202 750 OFFCURVE",
"69 519 OFFCURVE",
"69 313 CURVE SMOOTH",
"69 143 OFFCURVE",
"159 -10 OFFCURVE",
"352 -10 CURVE SMOOTH"
);
},
{
closed = 1;
nodes = (
"597 980 LINE",
"560 980 LINE",
"487 828 LINE",
"517 828 LINE"
);
}
);
width = 746;
},
{
anchors = (
{
name = bottom;
position = "{342, 1}";
},
{
name = top;
position = "{574, 1001}";
}
);
layerId = "DFC78E06-237F-4D33-BFB3-2388B696AEC9";
paths = (
{
closed = 1;
nodes = (
"635 -10 OFFCURVE",
"697 247 OFFCURVE",
"697 247 CURVE",
"598 247 LINE",
"598 247 OFFCURVE",
"549 79 OFFCURVE",
"370 79 CURVE SMOOTH",
"222 79 OFFCURVE",
"157 194 OFFCURVE",
"157 322 CURVE SMOOTH",
"157 482 OFFCURVE",
"259 662 OFFCURVE",
"453 662 CURVE SMOOTH",
"640 662 OFFCURVE",
"634 493 OFFCURVE",
"634 493 CURVE",
"732 493 LINE",
"732 493 OFFCURVE",
"738 750 OFFCURVE",
"458 750 CURVE SMOOTH",
"194 750 OFFCURVE",
"58 520 OFFCURVE",
"58 315 CURVE SMOOTH",
"58 144 OFFCURVE",
"152 -10 OFFCURVE",
"363 -10 CURVE SMOOTH"
);
},
{
closed = 1;
nodes = (
"649 1001 LINE",
"554 1001 LINE",
"461 821 LINE",
"539 820 LINE"
);
}
);
width = 750;
},
{
anchors = (
{
name = bottom;
position = "{351, 8}";
},
{
name = top;
position = "{608, 987}";
}
);
layerId = "1F0C3569-068D-41D8-99BF-71FC09839D59";
paths = (
{
closed = 1;
nodes = (
"698 -10 OFFCURVE",
"750 267 OFFCURVE",
"750 267 CURVE",
"560 267 LINE",
"560 267 OFFCURVE",
"526 161 OFFCURVE",
"399 161 CURVE SMOOTH",
"296 161 OFFCURVE",
"249 243 OFFCURVE",
"249 335 CURVE SMOOTH",
"249 450 OFFCURVE",
"324 580 OFFCURVE",
"459 580 CURVE SMOOTH",
"595 580 OFFCURVE",
"595 473 OFFCURVE",
"595 473 CURVE",
"785 473 LINE",
"785 473 OFFCURVE",
"793 750 OFFCURVE",
"467 750 CURVE SMOOTH",
"201 750 OFFCURVE",
"55 524 OFFCURVE",
"55 318 CURVE SMOOTH",
"55 147 OFFCURVE",
"159 -10 OFFCURVE",
"381 -10 CURVE SMOOTH"
);
},
{
closed = 1;
nodes = (
"712 987 LINE",
"542 987 LINE",
"465 808 LINE",
"598 807 LINE"
);
}
);
width = 784;
}
);
leftKerningGroup = O;
rightKerningGroup = O;
unicode = 0106;
},
{
glyphname = Ccaron;
lastChange = "2021-03-14 09:41:58 +0000";
layers = (
{
anchors = (
{
name = bottom;
position = "{347, 0}";
},
{
name = top;
position = "{535, 970}";
}
);
layerId = "3EF6EAEC-888F-4BA2-8550-D36A3DFF40E2";
paths = (
{
closed = 1;
nodes = (
"606 -10 OFFCURVE",
"670 234 OFFCURVE",
"670 234 CURVE",
"633 234 LINE",
"633 234 OFFCURVE",
"576 24 OFFCURVE",
"354 24 CURVE SMOOTH",
"183 24 OFFCURVE",
"105 161 OFFCURVE",
"105 314 CURVE SMOOTH",
"105 503 OFFCURVE",
"225 716 OFFCURVE",
"453 716 CURVE SMOOTH",
"680 716 OFFCURVE",
"669 506 OFFCURVE",
"669 506 CURVE",
"705 506 LINE",
"705 506 OFFCURVE",
"715 750 OFFCURVE",
"455 750 CURVE SMOOTH",
"202 750 OFFCURVE",
"69 519 OFFCURVE",
"69 313 CURVE SMOOTH",
"69 143 OFFCURVE",
"159 -10 OFFCURVE",
"352 -10 CURVE SMOOTH"
);
},
{
closed = 1;
nodes = (
"516 818 LINE",
"659 970 LINE",
"616 970 LINE",
"489 832 LINE",
"506 832 LINE",
"436 970 LINE",
"400 970 LINE",
"479 818 LINE"
);
}
);
width = 746;
},
{
anchors = (
{
name = bottom;
position = "{342, 1}";
},
{
name = top;
position = "{525, 972}";
}
);
layerId = "DFC78E06-237F-4D33-BFB3-2388B696AEC9";
paths = (
{
closed = 1;
nodes = (
"635 -10 OFFCURVE",
"697 247 OFFCURVE",
"697 247 CURVE",
"598 247 LINE",
"598 247 OFFCURVE",
"549 79 OFFCURVE",
"370 79 CURVE SMOOTH",
"222 79 OFFCURVE",
"157 194 OFFCURVE",
"157 322 CURVE SMOOTH",
"157 482 OFFCURVE",
"259 662 OFFCURVE",
"453 662 CURVE SMOOTH",
"640 662 OFFCURVE",
"634 493 OFFCURVE",
"634 493 CURVE",
"732 493 LINE",
"732 493 OFFCURVE",
"738 750 OFFCURVE",
"458 750 CURVE SMOOTH",
"194 750 OFFCURVE",
"58 520 OFFCURVE",
"58 315 CURVE SMOOTH",
"58 144 OFFCURVE",
"152 -10 OFFCURVE",
"363 -10 CURVE SMOOTH"
);
},
{
closed = 1;
nodes = (
"528 815 LINE",
"684 982 LINE",
"592 982 LINE",
"464 842 LINE",
"514 835 LINE",
"441 982 LINE",
"361 982 LINE",
"447 815 LINE"
);
}
);
width = 750;
},
{
anchors = (
{
name = bottom;
position = "{351, 8}";
},
{
name = top;
position = "{559, 987}";
}
);
layerId = "1F0C3569-068D-41D8-99BF-71FC09839D59";
paths = (
{
closed = 1;
nodes = (
"698 -10 OFFCURVE",
"750 267 OFFCURVE",
"750 267 CURVE",
"560 267 LINE",
"560 267 OFFCURVE",
"526 161 OFFCURVE",
"399 161 CURVE SMOOTH",
"296 161 OFFCURVE",
"249 243 OFFCURVE",
"249 335 CURVE SMOOTH",
"249 450 OFFCURVE",
"324 580 OFFCURVE",
"459 580 CURVE SMOOTH",
"595 580 OFFCURVE",
"595 473 OFFCURVE",
"595 473 CURVE",
"785 473 LINE",
"785 473 OFFCURVE",
"793 750 OFFCURVE",
"467 750 CURVE SMOOTH",
"201 750 OFFCURVE",
"55 524 OFFCURVE",
"55 318 CURVE SMOOTH",
"55 147 OFFCURVE",
"159 -10 OFFCURVE",
"381 -10 CURVE SMOOTH"
);
},
{
closed = 1;
nodes = (
"597 798 LINE",
"772 987 LINE",
"624 987 LINE",
"504 851 LINE",
"552 844 LINE",
"489 987 LINE",
"355 987 LINE",
"450 798 LINE"
);
}
);
width = 784;
}
);
leftKerningGroup = O;
rightKerningGroup = O;
unicode = 010C;
},
{
glyphname = Ccedilla;
lastChange = "2021-05-04 16:09:08 +0000";
layers = (
{
anchors = (
{
name = bottom;
position = "{306, -249}";
},
{
name = top;
position = "{487, 740}";
}
);
layerId = "3EF6EAEC-888F-4BA2-8550-D36A3DFF40E2";
paths = (
{
closed = 1;
nodes = (
"606 -10 OFFCURVE",
"670 234 OFFCURVE",
"670 234 CURVE",
"633 234 LINE",
"633 234 OFFCURVE",
"576 24 OFFCURVE",
"354 24 CURVE SMOOTH",
"183 24 OFFCURVE",
"105 161 OFFCURVE",
"105 314 CURVE SMOOTH",
"105 503 OFFCURVE",
"225 716 OFFCURVE",
"453 716 CURVE SMOOTH",
"680 716 OFFCURVE",
"669 506 OFFCURVE",
"669 506 CURVE",
"705 506 LINE",
"705 506 OFFCURVE",
"715 750 OFFCURVE",
"455 750 CURVE SMOOTH",
"202 750 OFFCURVE",
"69 519 OFFCURVE",
"69 313 CURVE SMOOTH",
"69 143 OFFCURVE",
"159 -10 OFFCURVE",
"352 -10 CURVE SMOOTH"
);
},
{
closed = 1;
nodes = (
"390 -249 OFFCURVE",
"427 -201 OFFCURVE",
"427 -154 CURVE SMOOTH",
"427 -111 OFFCURVE",
"395 -70 OFFCURVE",
"335 -70 CURVE SMOOTH",
"278 -70 OFFCURVE",
"267 -107 OFFCURVE",
"267 -107 CURVE",
"287 -107 LINE",
"370 0 LINE",
"335 0 LINE",
"257 -100 LINE",
"272 -119 LINE",
"271 -119 OFFCURVE",
"296 -101 OFFCURVE",
"329 -101 CURVE SMOOTH",
"370 -101 OFFCURVE",
"392 -128 OFFCURVE",
"392 -157 CURVE SMOOTH",
"392 -187 OFFCURVE",
"367 -218 OFFCURVE",
"313 -218 CURVE SMOOTH",
"282 -218 OFFCURVE",
"246 -207 OFFCURVE",
"246 -207 CURVE",
"239 -237 LINE",
"239 -237 OFFCURVE",
"272 -249 OFFCURVE",
"313 -249 CURVE SMOOTH"
);
}
);
width = 746;
},
{
anchors = (
{
name = bottom;
position = "{346, -248}";
},
{
name = top;
position = "{476, 740}";
}
);
layerId = "DFC78E06-237F-4D33-BFB3-2388B696AEC9";
paths = (
{
closed = 1;
nodes = (
"635 -10 OFFCURVE",
"697 247 OFFCURVE",
"697 247 CURVE",
"598 247 LINE",
"598 247 OFFCURVE",
"549 79 OFFCURVE",
"370 79 CURVE SMOOTH",
"222 79 OFFCURVE",
"157 194 OFFCURVE",
"157 322 CURVE SMOOTH",
"157 482 OFFCURVE",
"259 662 OFFCURVE",
"453 662 CURVE SMOOTH",
"640 662 OFFCURVE",
"634 493 OFFCURVE",
"634 493 CURVE",
"732 493 LINE",
"732 493 OFFCURVE",
"738 750 OFFCURVE",
"458 750 CURVE SMOOTH",
"194 750 OFFCURVE",
"58 520 OFFCURVE",
"58 315 CURVE SMOOTH",
"58 144 OFFCURVE",
"152 -10 OFFCURVE",
"363 -10 CURVE SMOOTH"
);
},
{
closed = 1;
nodes = (
"389 -260 OFFCURVE",
"431 -204 OFFCURVE",
"431 -151 CURVE SMOOTH",
"431 -103 OFFCURVE",
"397 -59 OFFCURVE",
"330 -59 CURVE SMOOTH",
"267 -59 OFFCURVE",
"257 -104 OFFCURVE",
"257 -104 CURVE",
"286 -104 LINE",
"383 9 LINE",
"310 9 LINE",
"228 -88 LINE",
"256 -123 LINE",
"255 -123 OFFCURVE",
"275 -109 OFFCURVE",
"304 -109 CURVE SMOOTH",
"341 -109 OFFCURVE",
"359 -129 OFFCURVE",
"359 -152 CURVE SMOOTH",
"359 -176 OFFCURVE",
"342 -202 OFFCURVE",
"288 -202 CURVE SMOOTH",
"259 -202 OFFCURVE",
"218 -193 OFFCURVE",
"218 -193 CURVE",
"208 -249 LINE",
"208 -249 OFFCURVE",
"245 -260 OFFCURVE",
"287 -260 CURVE SMOOTH"
);
}
);
width = 750;
},
{
anchors = (
{
name = bottom;
position = "{352, -242}";
},
{
name = top;
position = "{507, 738}";
}
);
layerId = "1F0C3569-068D-41D8-99BF-71FC09839D59";
paths = (
{
closed = 1;
nodes = (
"698 -10 OFFCURVE",
"750 267 OFFCURVE",
"750 267 CURVE",
"560 267 LINE",
"560 267 OFFCURVE",
"526 161 OFFCURVE",
"399 161 CURVE SMOOTH",
"296 161 OFFCURVE",
"249 243 OFFCURVE",
"249 335 CURVE SMOOTH",
"249 450 OFFCURVE",
"324 580 OFFCURVE",
"459 580 CURVE SMOOTH",
"595 580 OFFCURVE",
"595 473 OFFCURVE",
"595 473 CURVE",
"785 473 LINE",
"785 473 OFFCURVE",
"793 750 OFFCURVE",
"467 750 CURVE SMOOTH",
"201 750 OFFCURVE",
"55 524 OFFCURVE",
"55 318 CURVE SMOOTH",
"55 147 OFFCURVE",
"159 -10 OFFCURVE",
"381 -10 CURVE SMOOTH"
);
},
{
closed = 1;
nodes = (
"422 -263 OFFCURVE",
"478 -195 OFFCURVE",
"478 -133 CURVE SMOOTH",
"478 -77 OFFCURVE",
"432 -32 OFFCURVE",
"365 -32 CURVE SMOOTH",
"290 -32 OFFCURVE",
"283 -88 OFFCURVE",
"283 -88 CURVE",
"310 -88 LINE",
"430 35 LINE",
"315 35 LINE",
"227 -58 LINE",
"273 -116 LINE",
"273 -116 OFFCURVE",
"292 -104 OFFCURVE",
"315 -104 CURVE SMOOTH",
"339 -104 OFFCURVE",
"351 -117 OFFCURVE",
"351 -131 CURVE SMOOTH",
"351 -148 OFFCURVE",
"338 -165 OFFCURVE",
"292 -165 CURVE SMOOTH",
"265 -165 OFFCURVE",
"217 -159 OFFCURVE",
"217 -159 CURVE",
"203 -255 LINE",
"203 -255 OFFCURVE",
"245 -263 OFFCURVE",
"290 -263 CURVE SMOOTH"
);
}
);
width = 784;
}
);
leftKerningGroup = O;
rightKerningGroup = O;
unicode = 00C7;
},
{
glyphname = Cdotaccent;
lastChange = "2021-03-14 09:41:58 +0000";
layers = (
{
anchors = (
{
name = bottom;
position = "{347, 0}";
},
{
name = top;
position = "{524, 911}";
}
);
layerId = "3EF6EAEC-888F-4BA2-8550-D36A3DFF40E2";
paths = (
{
closed = 1;
nodes = (
"606 -10 OFFCURVE",
"670 234 OFFCURVE",
"670 234 CURVE",
"633 234 LINE",
"633 234 OFFCURVE",
"576 24 OFFCURVE",
"354 24 CURVE SMOOTH",
"183 24 OFFCURVE",
"105 161 OFFCURVE",
"105 314 CURVE SMOOTH",
"105 503 OFFCURVE",
"225 716 OFFCURVE",
"453 716 CURVE SMOOTH",
"680 716 OFFCURVE",
"669 506 OFFCURVE",
"669 506 CURVE",
"705 506 LINE",
"705 506 OFFCURVE",
"715 750 OFFCURVE",
"455 750 CURVE SMOOTH",
"202 750 OFFCURVE",
"69 519 OFFCURVE",
"69 313 CURVE SMOOTH",
"69 143 OFFCURVE",
"159 -10 OFFCURVE",
"352 -10 CURVE SMOOTH"
);
},
{
closed = 1;
nodes = (
"535.6 840.25 OFFCURVE",
"551.75 856.4 OFFCURVE",
"551.75 876.35 CURVE SMOOTH",
"551.75 895.35 OFFCURVE",
"535.6 911.5 OFFCURVE",
"515.65 911.5 CURVE SMOOTH",
"495.7 911.5 OFFCURVE",
"480.5 895.35 OFFCURVE",
"480.5 876.35 CURVE SMOOTH",
"480.5 856.4 OFFCURVE",
"495.7 840.25 OFFCURVE",
"515.65 840.25 CURVE SMOOTH"
);
}
);
width = 746;
},
{
anchors = (
{
name = bottom;
position = "{342, 1}";
},
{
name = top;
position = "{523, 959}";
}
);
layerId = "DFC78E06-237F-4D33-BFB3-2388B696AEC9";
paths = (
{
closed = 1;
nodes = (
"635 -10 OFFCURVE",
"697 247 OFFCURVE",
"697 247 CURVE",
"598 247 LINE",
"598 247 OFFCURVE",
"549 79 OFFCURVE",
"370 79 CURVE SMOOTH",
"222 79 OFFCURVE",
"157 194 OFFCURVE",
"157 322 CURVE SMOOTH",
"157 482 OFFCURVE",
"259 662 OFFCURVE",
"453 662 CURVE SMOOTH",
"640 662 OFFCURVE",
"634 493 OFFCURVE",
"634 493 CURVE",
"732 493 LINE",
"732 493 OFFCURVE",
"738 750 OFFCURVE",
"458 750 CURVE SMOOTH",
"194 750 OFFCURVE",
"58 520 OFFCURVE",
"58 315 CURVE SMOOTH",
"58 144 OFFCURVE",
"152 -10 OFFCURVE",
"363 -10 CURVE SMOOTH"
);
},
{
closed = 1;
nodes = (
"545 835.5 OFFCURVE",
"571.6 863.05 OFFCURVE",
"571.6 897.25 CURVE SMOOTH",
"571.6 931.45 OFFCURVE",
"545 959 OFFCURVE",
"509.85 959 CURVE SMOOTH",
"473.75 959 OFFCURVE",
"448.1 931.45 OFFCURVE",
"448.1 897.25 CURVE SMOOTH",
"448.1 864 OFFCURVE",
"473.75 835.5 OFFCURVE",
"509.85 835.5 CURVE SMOOTH"
);
}
);
width = 750;
},
{
anchors = (
{
name = bottom;
position = "{351, 8}";
},
{
name = top;
position = "{562, 998}";
}
);
layerId = "1F0C3569-068D-41D8-99BF-71FC09839D59";
paths = (
{
closed = 1;
nodes = (
"698 -10 OFFCURVE",
"750 267 OFFCURVE",
"750 267 CURVE",
"560 267 LINE",
"560 267 OFFCURVE",
"526 161 OFFCURVE",
"399 161 CURVE SMOOTH",
"296 161 OFFCURVE",
"249 243 OFFCURVE",
"249 335 CURVE SMOOTH",
"249 450 OFFCURVE",
"324 580 OFFCURVE",
"459 580 CURVE SMOOTH",
"595 580 OFFCURVE",
"595 473 OFFCURVE",
"595 473 CURVE",
"785 473 LINE",
"785 473 OFFCURVE",
"793 750 OFFCURVE",
"467 750 CURVE SMOOTH",
"201 750 OFFCURVE",
"55 524 OFFCURVE",
"55 318 CURVE SMOOTH",
"55 147 OFFCURVE",
"159 -10 OFFCURVE",
"381 -10 CURVE SMOOTH"
);
},
{
closed = 1;
nodes = (
"603.1 790.5 OFFCURVE",
"649.3 837.75 OFFCURVE",
"649.3 894.45 CURVE SMOOTH",
"649.3 952.2 OFFCURVE",
"603.1 998.4 OFFCURVE",
"540.4 998.4 CURVE SMOOTH",
"476.6 998.4 OFFCURVE",
"431.5 952.2 OFFCURVE",
"431.5 894.45 CURVE SMOOTH",
"431.5 837.75 OFFCURVE",
"476.6 790.5 OFFCURVE",
"540.4 790.5 CURVE SMOOTH"
);
}
);
width = 784;
}
);
leftKerningGroup = O;
rightKerningGroup = O;
unicode = 010A;
},
{
glyphname = D;
lastChange = "2021-05-14 08:51:38 +0000";
layers = (
{
anchors = (
{
name = bottom;
position = "{285, 0}";
},
{
name = center;
position = "{364, 370}";
},
{
name = ogonek;
position = "{69, 0}";
},
{
name = top;
position = "{392, 740}";
},
{
name = topleft;
position = "{119, 740}";
}
);
layerId = "3EF6EAEC-888F-4BA2-8550-D36A3DFF40E2";
paths = (
{
closed = 1;
nodes = (
"242 0 LINE SMOOTH",
"518 0 OFFCURVE",
"672 230 OFFCURVE",
"672 433 CURVE SMOOTH",
"672 595 OFFCURVE",
"575 740 OFFCURVE",
"365 740 CURVE SMOOTH",
"198 740 LINE",
"191 706 LINE",
"365 706 LINE SMOOTH",
"550 706 OFFCURVE",
"636 577 OFFCURVE",
"636 431 CURVE SMOOTH",
"636 246 OFFCURVE",
"496 34 OFFCURVE",
"242 34 CURVE SMOOTH",
"48 34 LINE",
"41 0 LINE"
);
},
{
closed = 1;
nodes = (
"69 0 LINE",
"226 740 LINE",
"191 740 LINE",
"34 0 LINE"
);
}
);
width = 715;
},
{
anchors = (
{
name = bottom;
position = "{289, 0}";
},
{
name = center;
position = "{368, 370}";
},
{
name = ogonek;
position = "{127, 0}";
},
{
name = top;
position = "{407, 740}";
},
{
name = topleft;
position = "{123, 700}";
}
);
guideLines = (
{
angle = 180;
position = "{257, 34}";
}
);
layerId = "DFC78E06-237F-4D33-BFB3-2388B696AEC9";
paths = (
{
closed = 1;
nodes = (
"260 0 LINE SMOOTH",
"527 0 OFFCURVE",
"677 227 OFFCURVE",
"677 430 CURVE SMOOTH",
"677 593 OFFCURVE",
"580 740 OFFCURVE",
"367 740 CURVE SMOOTH",
"237 740 LINE",
"219 654 LINE",
"355 654 LINE SMOOTH",
"509 654 OFFCURVE",
"578 546 OFFCURVE",
"578 425 CURVE SMOOTH",
"578 267 OFFCURVE",
"462 86 OFFCURVE",
"264 86 CURVE SMOOTH",
"98 86 LINE",
"80 0 LINE"
);
},
{
closed = 1;
nodes = (
"127 0 LINE",
"284 740 LINE",
"186 740 LINE",
"29 0 LINE"
);
}
);
width = 700;
},
{
anchors = (
{
name = bottom;
position = "{304, 0}";
},
{
name = center;
position = "{383, 370}";
},
{
name = ogonek;
position = "{194, 0}";
},
{
name = top;
position = "{444, 740}";
},
{
name = topleft;
position = "{128, 736}";
}
);
layerId = "1F0C3569-068D-41D8-99BF-71FC09839D59";
paths = (
{
closed = 1;
nodes = (
"307 0 LINE SMOOTH",
"600 0 OFFCURVE",
"752 213 OFFCURVE",
"752 410 CURVE SMOOTH",
"752 581 OFFCURVE",
"639 740 OFFCURVE",
"404 740 CURVE SMOOTH",
"311 740 LINE",
"276 572 LINE",
"390 572 LINE SMOOTH",
"507 572 OFFCURVE",
"564 489 OFFCURVE",
"564 399 CURVE SMOOTH",
"564 291 OFFCURVE",
"482 171 OFFCURVE",
"324 171 CURVE SMOOTH",
"190 171 LINE",
"154 0 LINE"
);
},
{
closed = 1;
nodes = (
"194 0 LINE",
"351 740 LINE",
"159 740 LINE",
"2 0 LINE"
);
}
);
width = 764;
}
);
leftKerningGroup = h;
leftMetricsKey = l;
rightKerningGroup = O;
rightMetricsKey = O;
unicode = 0044;
},
{
glyphname = Eth;
lastChange = "2021-03-14 09:41:58 +0000";
layers = (
{
anchors = (
{
name = bottom;
position = "{330, 0}";
},
{
name = center;
position = "{409, 370}";
},
{
name = ogonek;
position = "{114, 0}";
},
{
name = top;
position = "{437, 740}";
},
{
name = topleft;
position = "{164, 740}";
}
);
layerId = "3EF6EAEC-888F-4BA2-8550-D36A3DFF40E2";
paths = (
{
closed = 1;
nodes = (
"353 354 LINE",
"360 386 LINE",
"57 386 LINE",
"50 354 LINE"
);
},
{
closed = 1;
nodes = (
"287 0 LINE SMOOTH",
"563 0 OFFCURVE",
"717 230 OFFCURVE",
"717 433 CURVE SMOOTH",
"717 595 OFFCURVE",
"620 740 OFFCURVE",
"410 740 CURVE SMOOTH",
"243 740 LINE",
"236 706 LINE",
"410 706 LINE SMOOTH",
"595 706 OFFCURVE",
"681 577 OFFCURVE",
"681 431 CURVE SMOOTH",
"681 246 OFFCURVE",
"541 34 OFFCURVE",
"287 34 CURVE SMOOTH",
"93 34 LINE",
"86 0 LINE"
);
},
{
closed = 1;
nodes = (
"114 0 LINE",
"271 740 LINE",
"236 740 LINE",
"79 0 LINE"
);
}
);
width = 760;
},
{
anchors = (
{
name = bottom;
position = "{339, 0}";
},
{
name = center;
position = "{418, 370}";
},
{
name = ogonek;
position = "{177, 0}";
},
{
name = top;
position = "{457, 740}";
},
{
name = topleft;
position = "{173, 700}";
}
);
layerId = "DFC78E06-237F-4D33-BFB3-2388B696AEC9";
paths = (
{
closed = 1;
nodes = (
"395 328 LINE",
"413 414 LINE",
"59 414 LINE",
"41 328 LINE"
);
},
{
closed = 1;
nodes = (
"310 0 LINE SMOOTH",
"577 0 OFFCURVE",
"727 227 OFFCURVE",
"727 430 CURVE SMOOTH",
"727 593 OFFCURVE",
"630 740 OFFCURVE",
"417 740 CURVE SMOOTH",
"287 740 LINE",
"269 654 LINE",
"405 654 LINE SMOOTH",
"559 654 OFFCURVE",
"628 546 OFFCURVE",
"628 425 CURVE SMOOTH",
"628 267 OFFCURVE",
"512 86 OFFCURVE",
"314 86 CURVE SMOOTH",
"148 86 LINE",
"130 0 LINE"
);
},
{
closed = 1;
nodes = (
"177 0 LINE",
"334 740 LINE",
"236 740 LINE",
"79 0 LINE"
);
}
);
width = 750;
},
{
anchors = (
{
name = bottom;
position = "{320, 0}";
},
{
name = center;
position = "{399, 370}";
},
{
name = ogonek;
position = "{210, 0}";
},
{
name = top;
position = "{460, 740}";
},
{
name = topleft;
position = "{144, 736}";
}
);
layerId = "1F0C3569-068D-41D8-99BF-71FC09839D59";
paths = (
{
closed = 1;
nodes = (
"379 296 LINE",
"411 444 LINE",
"21 444 LINE",
"-11 296 LINE"
);
},
{
closed = 1;
nodes = (
"323 0 LINE SMOOTH",
"616 0 OFFCURVE",
"768 213 OFFCURVE",
"768 410 CURVE SMOOTH",
"768 581 OFFCURVE",
"655 740 OFFCURVE",
"420 740 CURVE SMOOTH",
"327 740 LINE",
"292 572 LINE",
"406 572 LINE SMOOTH",
"523 572 OFFCURVE",
"580 489 OFFCURVE",
"580 399 CURVE SMOOTH",
"580 291 OFFCURVE",
"498 171 OFFCURVE",
"340 171 CURVE SMOOTH",
"206 171 LINE",
"170 0 LINE"
);
},
{
closed = 1;
nodes = (
"210 0 LINE",
"367 740 LINE",
"175 740 LINE",
"18 0 LINE"
);
}
);
width = 780;
}
);
rightKerningGroup = O;
unicode = 00D0;
},
{
glyphname = Dcaron;
lastChange = "2021-03-14 09:41:58 +0000";
layers = (
{
anchors = (
{
name = bottom;
position = "{285, 0}";
},
{
name = center;
position = "{364, 370}";
},
{
name = ogonek;
position = "{69, 0}";
},
{
name = top;
position = "{440, 970}";
},
{
name = topleft;
position = "{119, 740}";
}
);
layerId = "3EF6EAEC-888F-4BA2-8550-D36A3DFF40E2";
paths = (
{
closed = 1;
nodes = (
"242 0 LINE SMOOTH",
"518 0 OFFCURVE",
"672 230 OFFCURVE",
"672 433 CURVE SMOOTH",
"672 595 OFFCURVE",
"575 740 OFFCURVE",
"365 740 CURVE SMOOTH",
"198 740 LINE",
"191 706 LINE",
"365 706 LINE SMOOTH",
"550 706 OFFCURVE",
"636 577 OFFCURVE",
"636 431 CURVE SMOOTH",
"636 246 OFFCURVE",
"496 34 OFFCURVE",
"242 34 CURVE SMOOTH",
"48 34 LINE",
"41 0 LINE"
);
},
{
closed = 1;
nodes = (
"69 0 LINE",
"226 740 LINE",
"191 740 LINE",
"34 0 LINE"
);
},
{
closed = 1;
nodes = (
"421 818 LINE",
"564 970 LINE",
"521 970 LINE",
"394 832 LINE",
"411 832 LINE",
"341 970 LINE",
"305 970 LINE",
"384 818 LINE"
);
}
);
width = 715;
},
{
anchors = (
{
name = bottom;
position = "{289, 0}";
},
{
name = center;
position = "{368, 370}";
},
{
name = ogonek;
position = "{127, 0}";
},
{
name = top;
position = "{456, 972}";
},
{
name = topleft;
position = "{123, 700}";
}
);
layerId = "DFC78E06-237F-4D33-BFB3-2388B696AEC9";
paths = (
{
closed = 1;
nodes = (
"260 0 LINE SMOOTH",
"527 0 OFFCURVE",
"677 227 OFFCURVE",
"677 430 CURVE SMOOTH",
"677 593 OFFCURVE",
"580 740 OFFCURVE",
"367 740 CURVE SMOOTH",
"237 740 LINE",
"219 654 LINE",
"355 654 LINE SMOOTH",
"509 654 OFFCURVE",
"578 546 OFFCURVE",
"578 425 CURVE SMOOTH",
"578 267 OFFCURVE",
"462 86 OFFCURVE",
"264 86 CURVE SMOOTH",
"98 86 LINE",
"80 0 LINE"
);
},
{
closed = 1;
nodes = (
"127 0 LINE",
"284 740 LINE",
"186 740 LINE",
"29 0 LINE"
);
},
{
closed = 1;
nodes = (
"459 815 LINE",
"615 982 LINE",
"523 982 LINE",
"395 842 LINE",
"445 835 LINE",
"372 982 LINE",
"292 982 LINE",
"378 815 LINE"
);
}
);
width = 700;
},
{
anchors = (
{
name = bottom;
position = "{304, 0}";
},
{
name = center;
position = "{383, 370}";
},
{
name = ogonek;
position = "{194, 0}";
},
{
name = top;
position = "{496, 989}";
},
{
name = topleft;
position = "{128, 736}";
}
);
layerId = "1F0C3569-068D-41D8-99BF-71FC09839D59";
paths = (
{
closed = 1;
nodes = (
"307 0 LINE SMOOTH",
"600 0 OFFCURVE",
"752 213 OFFCURVE",
"752 410 CURVE SMOOTH",
"752 581 OFFCURVE",
"639 740 OFFCURVE",
"404 740 CURVE SMOOTH",
"311 740 LINE",
"276 572 LINE",
"390 572 LINE SMOOTH",
"507 572 OFFCURVE",
"564 489 OFFCURVE",
"564 399 CURVE SMOOTH",
"564 291 OFFCURVE",
"482 171 OFFCURVE",
"324 171 CURVE SMOOTH",
"190 171 LINE",
"154 0 LINE"
);
},
{
closed = 1;
nodes = (
"194 0 LINE",
"351 740 LINE",
"159 740 LINE",
"2 0 LINE"
);
},
{
closed = 1;
nodes = (
"534 800 LINE",
"709 989 LINE",
"561 989 LINE",
"441 853 LINE",
"489 846 LINE",
"426 989 LINE",
"292 989 LINE",
"387 800 LINE"
);
}
);
width = 764;
}
);
leftKerningGroup = h;
rightKerningGroup = O;
unicode = 010E;
},
{
glyphname = Dcroat;
lastChange = "2021-03-14 09:41:58 +0000";
layers = (
{
anchors = (
{
name = bottom;
position = "{330, 0}";
},
{
name = center;
position = "{409, 370}";
},
{
name = ogonek;
position = "{114, 0}";
},
{
name = top;
position = "{437, 740}";
},
{
name = topleft;
position = "{164, 740}";
}
);
guideLines = (
{
angle = 258.0216;
position = "{50, 354}";
}
);
layerId = "3EF6EAEC-888F-4BA2-8550-D36A3DFF40E2";
paths = (
{
closed = 1;
nodes = (
"353 354 LINE",
"360 386 LINE",
"57 386 LINE",
"50 354 LINE"
);
},
{
closed = 1;
nodes = (
"287 0 LINE SMOOTH",
"563 0 OFFCURVE",
"717 230 OFFCURVE",
"717 433 CURVE SMOOTH",
"717 595 OFFCURVE",
"620 740 OFFCURVE",
"410 740 CURVE SMOOTH",
"243 740 LINE",
"236 706 LINE",
"410 706 LINE SMOOTH",
"595 706 OFFCURVE",
"681 577 OFFCURVE",
"681 431 CURVE SMOOTH",
"681 246 OFFCURVE",
"541 34 OFFCURVE",
"287 34 CURVE SMOOTH",
"93 34 LINE",
"86 0 LINE"
);
},
{
closed = 1;
nodes = (
"114 0 LINE",
"271 740 LINE",
"236 740 LINE",
"79 0 LINE"
);
}
);
width = 760;
},
{
anchors = (
{
name = bottom;
position = "{339, 0}";
},
{
name = center;
position = "{418, 370}";
},
{
name = ogonek;
position = "{177, 0}";
},
{
name = top;
position = "{457, 740}";
},
{
name = topleft;
position = "{173, 700}";
}
);
guideLines = (
{
angle = 258.0216;
position = "{40, 326}";
}
);
layerId = "DFC78E06-237F-4D33-BFB3-2388B696AEC9";
paths = (
{
closed = 1;
nodes = (
"395 328 LINE",
"413 414 LINE",
"59 414 LINE",
"41 328 LINE"
);
},
{
closed = 1;
nodes = (
"310 0 LINE SMOOTH",
"577 0 OFFCURVE",
"727 227 OFFCURVE",
"727 430 CURVE SMOOTH",
"727 593 OFFCURVE",
"630 740 OFFCURVE",
"417 740 CURVE SMOOTH",
"287 740 LINE",
"269 654 LINE",
"405 654 LINE SMOOTH",
"559 654 OFFCURVE",
"628 546 OFFCURVE",
"628 425 CURVE SMOOTH",
"628 267 OFFCURVE",
"512 86 OFFCURVE",
"314 86 CURVE SMOOTH",
"148 86 LINE",
"130 0 LINE"
);
},
{
closed = 1;
nodes = (
"177 0 LINE",
"334 740 LINE",
"236 740 LINE",
"79 0 LINE"
);
}
);
width = 750;
},
{
anchors = (
{
name = bottom;
position = "{320, 0}";
},
{
name = center;
position = "{399, 370}";
},
{
name = ogonek;
position = "{210, 0}";
},
{
name = top;
position = "{460, 740}";
},
{
name = topleft;
position = "{144, 736}";
}
);
layerId = "1F0C3569-068D-41D8-99BF-71FC09839D59";
paths = (
{
closed = 1;
nodes = (
"379 296 LINE",
"411 444 LINE",
"21 444 LINE",
"-11 296 LINE"
);
},
{
closed = 1;
nodes = (
"323 0 LINE SMOOTH",
"616 0 OFFCURVE",
"768 213 OFFCURVE",
"768 410 CURVE SMOOTH",
"768 581 OFFCURVE",
"655 740 OFFCURVE",
"420 740 CURVE SMOOTH",
"327 740 LINE",
"292 572 LINE",
"406 572 LINE SMOOTH",
"523 572 OFFCURVE",
"580 489 OFFCURVE",
"580 399 CURVE SMOOTH",
"580 291 OFFCURVE",
"498 171 OFFCURVE",
"340 171 CURVE SMOOTH",
"206 171 LINE",
"170 0 LINE"
);
},
{
closed = 1;
nodes = (
"210 0 LINE",
"367 740 LINE",
"175 740 LINE",
"18 0 LINE"
);
}
);
width = 780;
}
);
rightKerningGroup = O;
rightMetricsKey = O;
unicode = 0110;
},
{
glyphname = E;
lastChange = "2021-05-14 08:51:20 +0000";
layers = (
{
anchors = (
{
name = bottom;
position = "{221, 0}";
},
{
name = ogonek;
position = "{453, 0}";
},
{
name = top;
position = "{378, 740}";
},
{
name = topleft;
position = "{170, 700}";
}
);
layerId = "3EF6EAEC-888F-4BA2-8550-D36A3DFF40E2";
paths = (
{
closed = 1;
nodes = (
"475 362 LINE",
"482 396 LINE",
"137 396 LINE",
"130 362 LINE"
);
},
{
closed = 1;
nodes = (
"597 706 LINE",
"604 740 LINE",
"210 740 LINE",
"203 706 LINE"
);
},
{
closed = 1;
nodes = (
"453 0 LINE",
"460 34 LINE",
"60 34 LINE",
"53 0 LINE"
);
},
{
closed = 1;
nodes = (
"69 0 LINE",
"226 740 LINE",
"191 740 LINE",
"34 0 LINE"
);
}
);
width = 554;
},
{
anchors = (
{
name = bottom;
position = "{301, 0}";
},
{
name = ogonek;
position = "{485, 0}";
},
{
name = top;
position = "{407, 740}";
},
{
name = topleft;
position = "{181, 700}";
}
);
layerId = "DFC78E06-237F-4D33-BFB3-2388B696AEC9";
paths = (
{
closed = 1;
nodes = (
"505 334 LINE",
"523 420 LINE",
"190 420 LINE",
"172 334 LINE"
);
},
{
closed = 1;
nodes = (
"619 654 LINE",
"637 740 LINE",
"258 740 LINE",
"240 654 LINE"
);
},
{
closed = 1;
nodes = (
"485 0 LINE",
"503 86 LINE",
"119 86 LINE",
"101 0 LINE"
);
},
{
closed = 1;
nodes = (
"127 0 LINE",
"284 740 LINE",
"186 740 LINE",
"29 0 LINE"
);
}
);
width = 611;
},
{
anchors = (
{
name = bottom;
position = "{262, 0}";
},
{
name = ogonek;
position = "{531, 0}";
},
{
name = top;
position = "{419, 740}";
},
{
name = topleft;
position = "{176, 736}";
}
);
layerId = "1F0C3569-068D-41D8-99BF-71FC09839D59";
paths = (
{
closed = 1;
nodes = (
"554 296 LINE",
"588 454 LINE",
"157 454 LINE",
"123 296 LINE"
);
},
{
closed = 1;
nodes = (
"658 574 LINE",
"693 740 LINE",
"217 740 LINE",
"182 574 LINE"
);
},
{
closed = 1;
nodes = (
"541 0 LINE",
"576 166 LINE",
"95 166 LINE",
"60 0 LINE"
);
},
{
closed = 1;
nodes = (
"194 0 LINE",
"351 740 LINE",
"159 740 LINE",
"2 0 LINE"
);
}
);
width = 637;
}
);
leftKerningGroup = l;
leftMetricsKey = l;
rightKerningGroup = E;
unicode = 0045;
},
{
glyphname = Eacute;
lastChange = "2021-03-14 09:41:58 +0000";
layers = (
{
anchors = (
{
name = bottom;
position = "{221, 0}";
},
{
name = ogonek;
position = "{453, 0}";
},
{
name = top;
position = "{461, 980}";
},
{
name = topleft;
position = "{170, 700}";
}
);
layerId = "3EF6EAEC-888F-4BA2-8550-D36A3DFF40E2";
paths = (
{
closed = 1;
nodes = (
"475 362 LINE",
"482 396 LINE",
"137 396 LINE",
"130 362 LINE"
);
},
{
closed = 1;
nodes = (
"597 706 LINE",
"604 740 LINE",
"210 740 LINE",
"203 706 LINE"
);
},
{
closed = 1;
nodes = (
"453 0 LINE",
"460 34 LINE",
"60 34 LINE",
"53 0 LINE"
);
},
{
closed = 1;
nodes = (
"69 0 LINE",
"226 740 LINE",
"191 740 LINE",
"34 0 LINE"
);
},
{
closed = 1;
nodes = (
"488 980 LINE",
"451 980 LINE",
"378 828 LINE",
"408 828 LINE"
);
}
);
width = 554;
},
{
anchors = (
{
name = bottom;
position = "{301, 0}";
},
{
name = ogonek;
position = "{485, 0}";
},
{
name = top;
position = "{505, 1001}";
},
{
name = topleft;
position = "{181, 700}";
}
);
layerId = "DFC78E06-237F-4D33-BFB3-2388B696AEC9";
paths = (
{
closed = 1;
nodes = (
"505 334 LINE",
"523 420 LINE",
"190 420 LINE",
"172 334 LINE"
);
},
{
closed = 1;
nodes = (
"619 654 LINE",
"637 740 LINE",
"258 740 LINE",
"240 654 LINE"
);
},
{
closed = 1;
nodes = (
"485 0 LINE",
"503 86 LINE",
"119 86 LINE",
"101 0 LINE"
);
},
{
closed = 1;
nodes = (
"127 0 LINE",
"284 740 LINE",
"186 740 LINE",
"29 0 LINE"
);
},
{
closed = 1;
nodes = (
"580 1001 LINE",
"485 1001 LINE",
"392 821 LINE",
"470 820 LINE"
);
}
);
width = 611;
},
{
anchors = (
{
name = bottom;
position = "{262, 0}";
},
{
name = ogonek;
position = "{531, 0}";
},
{
name = top;
position = "{520, 989}";
},
{
name = topleft;
position = "{176, 736}";
}
);
layerId = "1F0C3569-068D-41D8-99BF-71FC09839D59";
paths = (
{
closed = 1;
nodes = (
"544 296 LINE",
"578 454 LINE",
"157 454 LINE",
"123 296 LINE"
);
},
{
closed = 1;
nodes = (
"648 574 LINE",
"683 740 LINE",
"217 740 LINE",
"182 574 LINE"
);
},
{
closed = 1;
nodes = (
"531 0 LINE",
"566 166 LINE",
"95 166 LINE",
"60 0 LINE"
);
},
{
closed = 1;
nodes = (
"194 0 LINE",
"351 740 LINE",
"159 740 LINE",
"2 0 LINE"
);
},
{
closed = 1;
nodes = (
"624 989 LINE",
"454 989 LINE",
"377 810 LINE",
"510 809 LINE"
);
}
);
width = 636;
}
);
leftKerningGroup = l;
rightKerningGroup = E;
unicode = 00C9;
},
{
glyphname = Ecaron;
lastChange = "2021-03-14 09:41:58 +0000";
layers = (
{
anchors = (
{
name = bottom;
position = "{221, 0}";
},
{
name = ogonek;
position = "{453, 0}";
},
{
name = top;
position = "{426, 970}";
},
{
name = topleft;
position = "{170, 700}";
}
);
layerId = "3EF6EAEC-888F-4BA2-8550-D36A3DFF40E2";
paths = (
{
closed = 1;
nodes = (
"475 362 LINE",
"482 396 LINE",
"137 396 LINE",
"130 362 LINE"
);
},
{
closed = 1;
nodes = (
"597 706 LINE",
"604 740 LINE",
"210 740 LINE",
"203 706 LINE"
);
},
{
closed = 1;
nodes = (
"453 0 LINE",
"460 34 LINE",
"60 34 LINE",
"53 0 LINE"
);
},
{
closed = 1;
nodes = (
"69 0 LINE",
"226 740 LINE",
"191 740 LINE",
"34 0 LINE"
);
},
{
closed = 1;
nodes = (
"407 818 LINE",
"550 970 LINE",
"507 970 LINE",
"380 832 LINE",
"397 832 LINE",
"327 970 LINE",
"291 970 LINE",
"370 818 LINE"
);
}
);
width = 554;
},
{
anchors = (
{
name = bottom;
position = "{301, 0}";
},
{
name = ogonek;
position = "{485, 0}";
},
{
name = top;
position = "{456, 972}";
},
{
name = topleft;
position = "{181, 700}";
}
);
layerId = "DFC78E06-237F-4D33-BFB3-2388B696AEC9";
paths = (
{
closed = 1;
nodes = (
"505 334 LINE",
"523 420 LINE",
"190 420 LINE",
"172 334 LINE"
);
},
{
closed = 1;
nodes = (
"619 654 LINE",
"637 740 LINE",
"258 740 LINE",
"240 654 LINE"
);
},
{
closed = 1;
nodes = (
"485 0 LINE",
"503 86 LINE",
"119 86 LINE",
"101 0 LINE"
);
},
{
closed = 1;
nodes = (
"127 0 LINE",
"284 740 LINE",
"186 740 LINE",
"29 0 LINE"
);
},
{
closed = 1;
nodes = (
"459 815 LINE",
"615 982 LINE",
"523 982 LINE",
"395 842 LINE",
"445 835 LINE",
"372 982 LINE",
"292 982 LINE",
"378 815 LINE"
);
}
);
width = 611;
},
{
anchors = (
{
name = bottom;
position = "{262, 0}";
},
{
name = ogonek;
position = "{531, 0}";
},
{
name = top;
position = "{471, 989}";
},
{
name = topleft;
position = "{176, 736}";
}
);
layerId = "1F0C3569-068D-41D8-99BF-71FC09839D59";
paths = (
{
closed = 1;
nodes = (
"544 296 LINE",
"578 454 LINE",
"157 454 LINE",
"123 296 LINE"
);
},
{
closed = 1;
nodes = (
"648 574 LINE",
"683 740 LINE",
"217 740 LINE",
"182 574 LINE"
);
},
{
closed = 1;
nodes = (
"531 0 LINE",
"566 166 LINE",
"95 166 LINE",
"60 0 LINE"
);
},
{
closed = 1;
nodes = (
"194 0 LINE",
"351 740 LINE",
"159 740 LINE",
"2 0 LINE"
);
},
{
closed = 1;
nodes = (
"509 800 LINE",
"684 989 LINE",
"536 989 LINE",
"416 853 LINE",
"464 846 LINE",
"401 989 LINE",
"267 989 LINE",
"362 800 LINE"
);
}
);
width = 636;
}
);
leftKerningGroup = l;
rightKerningGroup = E;
unicode = 011A;
},
{
glyphname = Ecircumflex;
lastChange = "2021-03-14 09:41:58 +0000";
layers = (
{
anchors = (
{
name = bottom;
position = "{221, 0}";
},
{
name = ogonek;
position = "{453, 0}";
},
{
name = top;
position = "{534, 849}";
},
{
name = topleft;
position = "{170, 700}";
}
);
layerId = "3EF6EAEC-888F-4BA2-8550-D36A3DFF40E2";
paths = (
{
closed = 1;
nodes = (
"475 362 LINE",
"482 396 LINE",
"137 396 LINE",
"130 362 LINE"
);
},
{
closed = 1;
nodes = (
"597 706 LINE",
"604 740 LINE",
"210 740 LINE",
"203 706 LINE"
);
},
{
closed = 1;
nodes = (
"453 0 LINE",
"460 34 LINE",
"60 34 LINE",
"53 0 LINE"
);
},
{
closed = 1;
nodes = (
"69 0 LINE",
"226 740 LINE",
"191 740 LINE",
"34 0 LINE"
);
},
{
closed = 1;
nodes = (
"310 818 LINE",
"423 931 LINE",
"489 818 LINE",
"525 818 LINE",
"443 956 LINE",
"406 956 LINE",
"266 818 LINE"
);
}
);
width = 554;
},
{
anchors = (
{
name = bottom;
position = "{301, 0}";
},
{
name = ogonek;
position = "{485, 0}";
},
{
name = top;
position = "{576, 864}";
},
{
name = topleft;
position = "{181, 700}";
}
);
layerId = "DFC78E06-237F-4D33-BFB3-2388B696AEC9";
paths = (
{
closed = 1;
nodes = (
"505 334 LINE",
"523 420 LINE",
"190 420 LINE",
"172 334 LINE"
);
},
{
closed = 1;
nodes = (
"619 654 LINE",
"637 740 LINE",
"258 740 LINE",
"240 654 LINE"
);
},
{
closed = 1;
nodes = (
"485 0 LINE",
"503 86 LINE",
"119 86 LINE",
"101 0 LINE"
);
},
{
closed = 1;
nodes = (
"127 0 LINE",
"284 740 LINE",
"186 740 LINE",
"29 0 LINE"
);
},
{
closed = 1;
nodes = (
"344 816 LINE",
"438 910 LINE",
"495 816 LINE",
"575 816 LINE",
"485 963 LINE",
"404 963 LINE",
"252 816 LINE"
);
}
);
width = 611;
},
{
anchors = (
{
name = bottom;
position = "{262, 0}";
},
{
name = ogonek;
position = "{531, 0}";
},
{
name = top;
position = "{642, 860}";
},
{
name = topleft;
position = "{176, 736}";
}
);
layerId = "1F0C3569-068D-41D8-99BF-71FC09839D59";
paths = (
{
closed = 1;
nodes = (
"544 296 LINE",
"578 454 LINE",
"157 454 LINE",
"123 296 LINE"
);
},
{
closed = 1;
nodes = (
"648 574 LINE",
"683 740 LINE",
"217 740 LINE",
"182 574 LINE"
);
},
{
closed = 1;
nodes = (
"531 0 LINE",
"566 166 LINE",
"95 166 LINE",
"60 0 LINE"
);
},
{
closed = 1;
nodes = (
"194 0 LINE",
"351 740 LINE",
"159 740 LINE",
"2 0 LINE"
);
},
{
closed = 1;
nodes = (
"366 799 LINE",
"451 884 LINE",
"501 799 LINE",
"634 799 LINE",
"533 958 LINE",
"386 958 LINE",
"217 799 LINE"
);
}
);
width = 636;
}
);
leftKerningGroup = l;
rightKerningGroup = E;
unicode = 00CA;
},
{
glyphname = Ecircumflexacute;
lastChange = "2021-03-14 09:41:58 +0000";
layers = (
{
anchors = (
{
name = bottom;
position = "{221, 0}";
},
{
name = ogonek;
position = "{453, 0}";
},
{
name = top;
position = "{378, 740}";
},
{
name = topleft;
position = "{170, 700}";
}
);
layerId = "3EF6EAEC-888F-4BA2-8550-D36A3DFF40E2";
paths = (
{
closed = 1;
nodes = (
"475 362 LINE",
"482 396 LINE",
"137 396 LINE",
"130 362 LINE"
);
},
{
closed = 1;
nodes = (
"597 706 LINE",
"604 740 LINE",
"210 740 LINE",
"203 706 LINE"
);
},
{
closed = 1;
nodes = (
"453 0 LINE",
"460 34 LINE",
"60 34 LINE",
"53 0 LINE"
);
},
{
closed = 1;
nodes = (
"69 0 LINE",
"226 740 LINE",
"191 740 LINE",
"34 0 LINE"
);
},
{
closed = 1;
nodes = (
"310 818 LINE",
"423 931 LINE",
"489 818 LINE",
"525 818 LINE",
"443 956 LINE",
"406 956 LINE",
"266 818 LINE"
);
},
{
closed = 1;
nodes = (
"644 1089 LINE",
"607 1089 LINE",
"534 937 LINE",
"564 937 LINE"
);
}
);
width = 554;
},
{
anchors = (
{
name = bottom;
position = "{301, 0}";
},
{
name = ogonek;
position = "{485, 0}";
},
{
name = top;
position = "{407, 740}";
},
{
name = topleft;
position = "{181, 700}";
}
);
layerId = "DFC78E06-237F-4D33-BFB3-2388B696AEC9";
paths = (
{
closed = 1;
nodes = (
"505 334 LINE",
"523 420 LINE",
"190 420 LINE",
"172 334 LINE"
);
},
{
closed = 1;
nodes = (
"619 654 LINE",
"637 740 LINE",
"258 740 LINE",
"240 654 LINE"
);
},
{
closed = 1;
nodes = (
"485 0 LINE",
"503 86 LINE",
"119 86 LINE",
"101 0 LINE"
);
},
{
closed = 1;
nodes = (
"127 0 LINE",
"284 740 LINE",
"186 740 LINE",
"29 0 LINE"
);
},
{
closed = 1;
nodes = (
"354 816 LINE",
"448 910 LINE",
"505 816 LINE",
"585 816 LINE",
"495 963 LINE",
"414 963 LINE",
"262 816 LINE"
);
},
{
closed = 1;
nodes = (
"759 1125 LINE",
"664 1125 LINE",
"571 945 LINE",
"649 944 LINE"
);
}
);
width = 611;
},
{
anchors = (
{
name = bottom;
position = "{262, 0}";
},
{
name = ogonek;
position = "{531, 0}";
},
{
name = top;
position = "{419, 740}";
},
{
name = topleft;
position = "{176, 736}";
}
);
layerId = "1F0C3569-068D-41D8-99BF-71FC09839D59";
paths = (
{
closed = 1;
nodes = (
"544 296 LINE",
"578 454 LINE",
"157 454 LINE",
"123 296 LINE"
);
},
{
closed = 1;
nodes = (
"648 574 LINE",
"683 740 LINE",
"217 740 LINE",
"182 574 LINE"
);
},
{
closed = 1;
nodes = (
"531 0 LINE",
"566 166 LINE",
"95 166 LINE",
"60 0 LINE"
);
},
{
closed = 1;
nodes = (
"194 0 LINE",
"351 740 LINE",
"159 740 LINE",
"2 0 LINE"
);
},
{
closed = 1;
nodes = (
"366 799 LINE",
"451 884 LINE",
"501 799 LINE",
"634 799 LINE",
"533 958 LINE",
"386 958 LINE",
"217 799 LINE"
);
},
{
closed = 1;
nodes = (
"847 1109 LINE",
"677 1109 LINE",
"600 930 LINE",
"733 929 LINE"
);
}
);
width = 636;
}
);
leftKerningGroup = l;
rightKerningGroup = E;
unicode = 1EBE;
},
{
glyphname = Ecircumflexdotbelow;
lastChange = "2021-03-14 09:41:58 +0000";
layers = (
{
anchors = (
{
name = bottom;
position = "{180, -192}";
},
{
name = ogonek;
position = "{453, 0}";
},
{
name = top;
position = "{534, 849}";
},
{
name = topleft;
position = "{170, 700}";
}
);
layerId = "3EF6EAEC-888F-4BA2-8550-D36A3DFF40E2";
paths = (
{
closed = 1;
nodes = (
"475 362 LINE",
"482 396 LINE",
"137 396 LINE",
"130 362 LINE"
);
},
{
closed = 1;
nodes = (
"597 706 LINE",
"604 740 LINE",
"210 740 LINE",
"203 706 LINE"
);
},
{
closed = 1;
nodes = (
"453 0 LINE",
"460 34 LINE",
"60 34 LINE",
"53 0 LINE"
);
},
{
closed = 1;
nodes = (
"69 0 LINE",
"226 740 LINE",
"191 740 LINE",
"34 0 LINE"
);
},
{
closed = 1;
nodes = (
"209 -192 OFFCURVE",
"226 -175 OFFCURVE",
"226 -154 CURVE SMOOTH",
"226 -134 OFFCURVE",
"209 -117 OFFCURVE",
"188 -117 CURVE SMOOTH",
"167 -117 OFFCURVE",
"151 -134 OFFCURVE",
"151 -154 CURVE SMOOTH",
"151 -175 OFFCURVE",
"167 -192 OFFCURVE",
"188 -192 CURVE SMOOTH"
);
},
{
closed = 1;
nodes = (
"310 818 LINE",
"423 931 LINE",
"489 818 LINE",
"525 818 LINE",
"443 956 LINE",
"406 956 LINE",
"266 818 LINE"
);
}
);
width = 554;
},
{
anchors = (
{
name = bottom;
position = "{253, -227}";
},
{
name = ogonek;
position = "{485, 0}";
},
{
name = top;
position = "{576, 864}";
},
{
name = topleft;
position = "{181, 700}";
}
);
layerId = "DFC78E06-237F-4D33-BFB3-2388B696AEC9";
paths = (
{
closed = 1;
nodes = (
"505 334 LINE",
"523 420 LINE",
"190 420 LINE",
"172 334 LINE"
);
},
{
closed = 1;
nodes = (
"619 654 LINE",
"637 740 LINE",
"258 740 LINE",
"240 654 LINE"
);
},
{
closed = 1;
nodes = (
"485 0 LINE",
"503 86 LINE",
"119 86 LINE",
"101 0 LINE"
);
},
{
closed = 1;
nodes = (
"127 0 LINE",
"284 740 LINE",
"186 740 LINE",
"29 0 LINE"
);
},
{
closed = 1;
nodes = (
"304 -227 OFFCURVE",
"332 -198 OFFCURVE",
"332 -162 CURVE SMOOTH",
"332 -126 OFFCURVE",
"304 -97 OFFCURVE",
"267 -97 CURVE SMOOTH",
"229 -97 OFFCURVE",
"202 -126 OFFCURVE",
"202 -162 CURVE SMOOTH",
"202 -197 OFFCURVE",
"229 -227 OFFCURVE",
"267 -227 CURVE SMOOTH"
);
},
{
closed = 1;
nodes = (
"344 816 LINE",
"438 910 LINE",
"495 816 LINE",
"575 816 LINE",
"485 963 LINE",
"404 963 LINE",
"252 816 LINE"
);
}
);
width = 611;
},
{
anchors = (
{
name = bottom;
position = "{207, -260}";
},
{
name = ogonek;
position = "{531, 0}";
},
{
name = top;
position = "{642, 860}";
},
{
name = topleft;
position = "{176, 736}";
}
);
layerId = "1F0C3569-068D-41D8-99BF-71FC09839D59";
paths = (
{
closed = 1;
nodes = (
"544 296 LINE",
"578 454 LINE",
"157 454 LINE",
"123 296 LINE"
);
},
{
closed = 1;
nodes = (
"648 574 LINE",
"683 740 LINE",
"217 740 LINE",
"182 574 LINE"
);
},
{
closed = 1;
nodes = (
"531 0 LINE",
"566 166 LINE",
"95 166 LINE",
"60 0 LINE"
);
},
{
closed = 1;
nodes = (
"194 0 LINE",
"351 740 LINE",
"159 740 LINE",
"2 0 LINE"
);
},
{
closed = 1;
nodes = (
"276.9 -260 OFFCURVE",
"314.7 -219.5 OFFCURVE",
"314.7 -170.9 CURVE SMOOTH",
"314.7 -121.4 OFFCURVE",
"276.9 -81.8 OFFCURVE",
"225.6 -81.8 CURVE SMOOTH",
"173.4 -81.8 OFFCURVE",
"136.5 -121.4 OFFCURVE",
"136.5 -170.9 CURVE SMOOTH",
"136.5 -219.5 OFFCURVE",
"173.4 -260 OFFCURVE",
"225.6 -260 CURVE SMOOTH"
);
},
{
closed = 1;
nodes = (
"366 799 LINE",
"451 884 LINE",
"501 799 LINE",
"634 799 LINE",
"533 958 LINE",
"386 958 LINE",
"217 799 LINE"
);
}
);
width = 636;
}
);
leftKerningGroup = l;
rightKerningGroup = E;
unicode = 1EC6;
},
{
glyphname = Ecircumflexgrave;
lastChange = "2021-03-14 09:41:58 +0000";
layers = (
{
anchors = (
{
name = bottom;
position = "{221, 0}";
},
{
name = ogonek;
position = "{453, 0}";
},
{
name = top;
position = "{589, 1100}";
},
{
name = topleft;
position = "{170, 700}";
}
);
layerId = "3EF6EAEC-888F-4BA2-8550-D36A3DFF40E2";
paths = (
{
closed = 1;
nodes = (
"475 362 LINE",
"482 396 LINE",
"137 396 LINE",
"130 362 LINE"
);
},
{
closed = 1;
nodes = (
"597 706 LINE",
"604 740 LINE",
"210 740 LINE",
"203 706 LINE"
);
},
{
closed = 1;
nodes = (
"453 0 LINE",
"460 34 LINE",
"60 34 LINE",
"53 0 LINE"
);
},
{
closed = 1;
nodes = (
"69 0 LINE",
"226 740 LINE",
"191 740 LINE",
"34 0 LINE"
);
},
{
closed = 1;
nodes = (
"310 818 LINE",
"423 931 LINE",
"489 818 LINE",
"525 818 LINE",
"443 956 LINE",
"406 956 LINE",
"266 818 LINE"
);
},
{
closed = 1;
nodes = (
"564 937 LINE",
"511 1089 LINE",
"475 1089 LINE",
"535 937 LINE"
);
}
);
width = 554;
},
{
anchors = (
{
name = bottom;
position = "{301, 0}";
},
{
name = ogonek;
position = "{485, 0}";
},
{
name = top;
position = "{309, 1100}";
},
{
name = topleft;
position = "{181, 700}";
}
);
layerId = "DFC78E06-237F-4D33-BFB3-2388B696AEC9";
paths = (
{
closed = 1;
nodes = (
"505 334 LINE",
"523 420 LINE",
"190 420 LINE",
"172 334 LINE"
);
},
{
closed = 1;
nodes = (
"619 654 LINE",
"637 740 LINE",
"258 740 LINE",
"240 654 LINE"
);
},
{
closed = 1;
nodes = (
"485 0 LINE",
"503 86 LINE",
"119 86 LINE",
"101 0 LINE"
);
},
{
closed = 1;
nodes = (
"127 0 LINE",
"284 740 LINE",
"186 740 LINE",
"29 0 LINE"
);
},
{
closed = 1;
nodes = (
"354 816 LINE",
"448 910 LINE",
"505 816 LINE",
"585 816 LINE",
"495 963 LINE",
"414 963 LINE",
"262 816 LINE"
);
},
{
closed = 1;
nodes = (
"653 945 LINE",
"587 1125 LINE",
"494 1125 LINE",
"577 944 LINE"
);
}
);
width = 611;
},
{
anchors = (
{
name = bottom;
position = "{262, 0}";
},
{
name = ogonek;
position = "{531, 0}";
},
{
name = top;
position = "{308, 1281}";
},
{
name = topleft;
position = "{176, 736}";
}
);
layerId = "1F0C3569-068D-41D8-99BF-71FC09839D59";
paths = (
{
closed = 1;
nodes = (
"544 296 LINE",
"578 454 LINE",
"157 454 LINE",
"123 296 LINE"
);
},
{
closed = 1;
nodes = (
"648 574 LINE",
"683 740 LINE",
"217 740 LINE",
"182 574 LINE"
);
},
{
closed = 1;
nodes = (
"531 0 LINE",
"566 166 LINE",
"95 166 LINE",
"60 0 LINE"
);
},
{
closed = 1;
nodes = (
"194 0 LINE",
"351 740 LINE",
"159 740 LINE",
"2 0 LINE"
);
},
{
closed = 1;
nodes = (
"366 799 LINE",
"451 884 LINE",
"501 799 LINE",
"634 799 LINE",
"533 958 LINE",
"386 958 LINE",
"217 799 LINE"
);
},
{
closed = 1;
nodes = (
"735 930 LINE",
"668 1109 LINE",
"503 1109 LINE",
"607 929 LINE"
);
}
);
width = 636;
}
);
leftKerningGroup = l;
rightKerningGroup = E;
unicode = 1EC0;
},
{
glyphname = Ecircumflexhookabove;
lastChange = "2021-03-14 09:41:58 +0000";
layers = (
{
anchors = (
{
name = bottom;
position = "{221, 0}";
},
{
name = ogonek;
position = "{453, 0}";
},
{
name = top;
position = "{378, 740}";
},
{
name = topleft;
position = "{170, 700}";
}
);
layerId = "3EF6EAEC-888F-4BA2-8550-D36A3DFF40E2";
paths = (
{
closed = 1;
nodes = (
"475 362 LINE",
"482 396 LINE",
"137 396 LINE",
"130 362 LINE"
);
},
{
closed = 1;
nodes = (
"597 706 LINE",
"604 740 LINE",
"210 740 LINE",
"203 706 LINE"
);
},
{
closed = 1;
nodes = (
"453 0 LINE",
"460 34 LINE",
"60 34 LINE",
"53 0 LINE"
);
},
{
closed = 1;
nodes = (
"69 0 LINE",
"226 740 LINE",
"191 740 LINE",
"34 0 LINE"
);
},
{
closed = 1;
nodes = (
"310 818 LINE",
"423 931 LINE",
"489 818 LINE",
"525 818 LINE",
"443 956 LINE",
"406 956 LINE",
"266 818 LINE"
);
},
{
closed = 1;
nodes = (
"556 923 LINE",
"567 974 LINE",
"538 945 LINE",
"564 956 LINE SMOOTH",
"623 981 OFFCURVE",
"656 1008 OFFCURVE",
"656 1047 CURVE SMOOTH",
"656 1081 OFFCURVE",
"633 1114 OFFCURVE",
"581 1114 CURVE SMOOTH",
"499 1114 OFFCURVE",
"493 1037 OFFCURVE",
"493 1037 CURVE",
"522 1037 LINE",
"522 1037 OFFCURVE",
"525 1086 OFFCURVE",
"579 1086 CURVE SMOOTH",
"612 1086 OFFCURVE",
"626 1066 OFFCURVE",
"626 1047 CURVE SMOOTH",
"626 1020 OFFCURVE",
"605 1000 OFFCURVE",
"566 983 CURVE SMOOTH",
"552 977 LINE SMOOTH",
"543 973 OFFCURVE",
"537 965 OFFCURVE",
"535 955 CURVE SMOOTH",
"528 923 LINE"
);
}
);
width = 554;
},
{
anchors = (
{
name = bottom;
position = "{301, 0}";
},
{
name = ogonek;
position = "{485, 0}";
},
{
name = top;
position = "{407, 740}";
},
{
name = topleft;
position = "{181, 700}";
}
);
layerId = "DFC78E06-237F-4D33-BFB3-2388B696AEC9";
paths = (
{
closed = 1;
nodes = (
"505 334 LINE",
"523 420 LINE",
"190 420 LINE",
"172 334 LINE"
);
},
{
closed = 1;
nodes = (
"619 654 LINE",
"637 740 LINE",
"258 740 LINE",
"240 654 LINE"
);
},
{
closed = 1;
nodes = (
"485 0 LINE",
"503 86 LINE",
"119 86 LINE",
"101 0 LINE"
);
},
{
closed = 1;
nodes = (
"127 0 LINE",
"284 740 LINE",
"186 740 LINE",
"29 0 LINE"
);
},
{
closed = 1;
nodes = (
"344 816 LINE",
"438 910 LINE",
"495 816 LINE",
"575 816 LINE",
"485 963 LINE",
"404 963 LINE",
"252 816 LINE"
);
},
{
closed = 1;
nodes = (
"617 930 LINE",
"630 989 LINE",
"588 946 LINE",
"615 957 LINE SMOOTH",
"675 981 OFFCURVE",
"722 1009 OFFCURVE",
"722 1059 CURVE SMOOTH",
"722 1101 OFFCURVE",
"691 1145 OFFCURVE",
"620 1145 CURVE SMOOTH",
"517 1145 OFFCURVE",
"511 1050 OFFCURVE",
"511 1050 CURVE",
"569 1050 LINE",
"569 1050 OFFCURVE",
"571 1093 OFFCURVE",
"619 1093 CURVE SMOOTH",
"647 1093 OFFCURVE",
"660 1076 OFFCURVE",
"660 1059 CURVE SMOOTH",
"660 1036 OFFCURVE",
"640 1019 OFFCURVE",
"603 1002 CURVE SMOOTH",
"588 995 LINE SMOOTH",
"575 989 OFFCURVE",
"565 978 OFFCURVE",
"562 963 CURVE SMOOTH",
"555 930 LINE"
);
}
);
width = 611;
},
{
anchors = (
{
name = bottom;
position = "{262, 0}";
},
{
name = ogonek;
position = "{531, 0}";
},
{
name = top;
position = "{419, 740}";
},
{
name = topleft;
position = "{176, 736}";
}
);
layerId = "1F0C3569-068D-41D8-99BF-71FC09839D59";
paths = (
{
closed = 1;
nodes = (
"544 296 LINE",
"578 454 LINE",
"157 454 LINE",
"123 296 LINE"
);
},
{
closed = 1;
nodes = (
"648 574 LINE",
"683 740 LINE",
"217 740 LINE",
"182 574 LINE"
);
},
{
closed = 1;
nodes = (
"531 0 LINE",
"566 166 LINE",
"95 166 LINE",
"60 0 LINE"
);
},
{
closed = 1;
nodes = (
"194 0 LINE",
"351 740 LINE",
"159 740 LINE",
"2 0 LINE"
);
},
{
closed = 1;
nodes = (
"366 799 LINE",
"451 884 LINE",
"501 799 LINE",
"634 799 LINE",
"533 958 LINE",
"386 958 LINE",
"217 799 LINE"
);
},
{
closed = 1;
nodes = (
"700 907 LINE",
"716 978 LINE",
"664 913 LINE",
"712 937 LINE SMOOTH",
"742 952 OFFCURVE",
"823 983 OFFCURVE",
"823 1055 CURVE SMOOTH",
"823 1109 OFFCURVE",
"776 1158 OFFCURVE",
"693 1158 CURVE SMOOTH",
"543 1158 OFFCURVE",
"540 1034 OFFCURVE",
"540 1034 CURVE",
"641 1034 LINE",
"641 1034 OFFCURVE",
"643 1069 OFFCURVE",
"681 1069 CURVE SMOOTH",
"701 1069 OFFCURVE",
"712 1057 OFFCURVE",
"712 1042 CURVE SMOOTH",
"712 1024 OFFCURVE",
"697 1011 OFFCURVE",
"661 995 CURVE SMOOTH",
"643 987 LINE SMOOTH",
"619 976 OFFCURVE",
"609 959 OFFCURVE",
"605 940 CURVE SMOOTH",
"598 907 LINE"
);
}
);
width = 636;
}
);
leftKerningGroup = l;
rightKerningGroup = E;
unicode = 1EC2;
},
{
glyphname = Ecircumflextilde;
lastChange = "2021-05-04 15:55:57 +0000";
layers = (
{
anchors = (
{
name = bottom;
position = "{221, 0}";
},
{
name = ogonek;
position = "{453, 0}";
},
{
name = top;
position = "{435, 740}";
},
{
name = topleft;
position = "{170, 700}";
}
);
layerId = "3EF6EAEC-888F-4BA2-8550-D36A3DFF40E2";
paths = (
{
closed = 1;
nodes = (
"475 362 LINE",
"482 396 LINE",
"137 396 LINE",
"130 362 LINE"
);
},
{
closed = 1;
nodes = (
"597 706 LINE",
"604 740 LINE",
"210 740 LINE",
"203 706 LINE"
);
},
{
closed = 1;
nodes = (
"453 0 LINE",
"460 34 LINE",
"60 34 LINE",
"53 0 LINE"
);
},
{
closed = 1;
nodes = (
"69 0 LINE",
"226 740 LINE",
"191 740 LINE",
"34 0 LINE"
);
},
{
closed = 1;
nodes = (
"311 818 LINE",
"424 931 LINE",
"490 818 LINE",
"526 818 LINE",
"444 956 LINE",
"407 956 LINE",
"267 818 LINE"
);
},
{
closed = 1;
nodes = (
"538 996 OFFCURVE",
"564 1043 OFFCURVE",
"575 1101 CURVE",
"544 1101 LINE",
"536 1052 OFFCURVE",
"519 1025 OFFCURVE",
"495 1025 CURVE SMOOTH",
"454 1025 OFFCURVE",
"453 1106 OFFCURVE",
"390 1106 CURVE SMOOTH",
"343 1106 OFFCURVE",
"316 1062 OFFCURVE",
"305 1001 CURVE",
"336 1001 LINE",
"343 1046 OFFCURVE",
"361 1077 OFFCURVE",
"387 1077 CURVE SMOOTH",
"429 1077 OFFCURVE",
"432 996 OFFCURVE",
"492 996 CURVE SMOOTH"
);
}
);
width = 554;
},
{
anchors = (
{
name = bottom;
position = "{301, 0}";
},
{
name = ogonek;
position = "{485, 0}";
},
{
name = top;
position = "{284, 1098}";
},
{
name = topleft;
position = "{181, 700}";
}
);
layerId = "DFC78E06-237F-4D33-BFB3-2388B696AEC9";
paths = (
{
closed = 1;
nodes = (
"505 334 LINE",
"523 420 LINE",
"190 420 LINE",
"172 334 LINE"
);
},
{
closed = 1;
nodes = (
"619 654 LINE",
"637 740 LINE",
"258 740 LINE",
"240 654 LINE"
);
},
{
closed = 1;
nodes = (
"485 0 LINE",
"503 86 LINE",
"119 86 LINE",
"101 0 LINE"
);
},
{
closed = 1;
nodes = (
"127 0 LINE",
"284 740 LINE",
"186 740 LINE",
"29 0 LINE"
);
},
{
closed = 1;
nodes = (
"344 816 LINE",
"438 910 LINE",
"495 816 LINE",
"575 816 LINE",
"485 963 LINE",
"404 963 LINE",
"252 816 LINE"
);
},
{
closed = 1;
nodes = (
"589 1001 OFFCURVE",
"616 1055 OFFCURVE",
"631 1133 CURVE",
"569 1133 LINE",
"562 1092 OFFCURVE",
"551 1069 OFFCURVE",
"529 1069 CURVE SMOOTH",
"492 1069 OFFCURVE",
"473 1138 OFFCURVE",
"402 1138 CURVE SMOOTH",
"340 1138 OFFCURVE",
"313 1085 OFFCURVE",
"298 1007 CURVE",
"360 1007 LINE",
"367 1048 OFFCURVE",
"380 1072 OFFCURVE",
"401 1072 CURVE SMOOTH",
"439 1072 OFFCURVE",
"459 1001 OFFCURVE",
"528 1001 CURVE SMOOTH"
);
}
);
width = 611;
},
{
anchors = (
{
name = bottom;
position = "{262, 0}";
},
{
name = ogonek;
position = "{531, 0}";
},
{
name = top;
position = "{301, 1174}";
},
{
name = topleft;
position = "{176, 736}";
}
);
layerId = "1F0C3569-068D-41D8-99BF-71FC09839D59";
paths = (
{
closed = 1;
nodes = (
"544 296 LINE",
"578 454 LINE",
"157 454 LINE",
"123 296 LINE"
);
},
{
closed = 1;
nodes = (
"648 574 LINE",
"683 740 LINE",
"217 740 LINE",
"182 574 LINE"
);
},
{
closed = 1;
nodes = (
"531 0 LINE",
"566 166 LINE",
"95 166 LINE",
"60 0 LINE"
);
},
{
closed = 1;
nodes = (
"194 0 LINE",
"351 740 LINE",
"159 740 LINE",
"2 0 LINE"
);
},
{
closed = 1;
nodes = (
"366 799 LINE",
"451 884 LINE",
"501 799 LINE",
"634 799 LINE",
"533 958 LINE",
"386 958 LINE",
"217 799 LINE"
);
},
{
closed = 1;
nodes = (
"641 992 OFFCURVE",
"666 1072 OFFCURVE",
"683 1151 CURVE",
"590 1151 LINE",
"582 1116 OFFCURVE",
"572 1098 OFFCURVE",
"553 1098 CURVE SMOOTH",
"519 1098 OFFCURVE",
"490 1157 OFFCURVE",
"417 1157 CURVE SMOOTH",
"326 1157 OFFCURVE",
"302 1077 OFFCURVE",
"285 998 CURVE",
"378 998 LINE",
"385 1032 OFFCURVE",
"396 1051 OFFCURVE",
"415 1051 CURVE SMOOTH",
"450 1051 OFFCURVE",
"478 992 OFFCURVE",
"551 992 CURVE SMOOTH"
);
}
);
width = 636;
}
);
leftKerningGroup = l;
rightKerningGroup = E;
unicode = 1EC4;
},
{
glyphname = Edieresis;
lastChange = "2021-03-14 09:41:58 +0000";
layers = (
{
anchors = (
{
name = bottom;
position = "{221, 0}";
},
{
name = ogonek;
position = "{453, 0}";
},
{
name = top;
position = "{414, 912}";
},
{
name = topleft;
position = "{170, 700}";
}
);
layerId = "3EF6EAEC-888F-4BA2-8550-D36A3DFF40E2";
paths = (
{
closed = 1;
nodes = (
"475 362 LINE",
"482 396 LINE",
"137 396 LINE",
"130 362 LINE"
);
},
{
closed = 1;
nodes = (
"597 706 LINE",
"604 740 LINE",
"210 740 LINE",
"203 706 LINE"
);
},
{
closed = 1;
nodes = (
"453 0 LINE",
"460 34 LINE",
"60 34 LINE",
"53 0 LINE"
);
},
{
closed = 1;
nodes = (
"69 0 LINE",
"226 740 LINE",
"191 740 LINE",
"34 0 LINE"
);
},
{
closed = 1;
nodes = (
"495.6 840.25 OFFCURVE",
"511.75 856.4 OFFCURVE",
"511.75 876.35 CURVE SMOOTH",
"511.75 895.35 OFFCURVE",
"495.6 911.5 OFFCURVE",
"475.65 911.5 CURVE SMOOTH",
"455.7 911.5 OFFCURVE",
"440.5 895.35 OFFCURVE",
"440.5 876.35 CURVE SMOOTH",
"440.5 856.4 OFFCURVE",
"455.7 840.25 OFFCURVE",
"475.65 840.25 CURVE SMOOTH"
);
},
{
closed = 1;
nodes = (
"356.6 840.25 OFFCURVE",
"372.75 856.4 OFFCURVE",
"372.75 876.35 CURVE SMOOTH",
"372.75 895.35 OFFCURVE",
"356.6 911.5 OFFCURVE",
"336.65 911.5 CURVE SMOOTH",
"316.7 911.5 OFFCURVE",
"301.5 895.35 OFFCURVE",
"301.5 876.35 CURVE SMOOTH",
"301.5 856.4 OFFCURVE",
"316.7 840.25 OFFCURVE",
"336.65 840.25 CURVE SMOOTH"
);
}
);
width = 554;
},
{
anchors = (
{
name = bottom;
position = "{301, 0}";
},
{
name = ogonek;
position = "{485, 0}";
},
{
name = top;
position = "{450, 944}";
},
{
name = topleft;
position = "{181, 700}";
}
);
layerId = "DFC78E06-237F-4D33-BFB3-2388B696AEC9";
paths = (
{
closed = 1;
nodes = (
"505 334 LINE",
"523 420 LINE",
"190 420 LINE",
"172 334 LINE"
);
},
{
closed = 1;
nodes = (
"619 654 LINE",
"637 740 LINE",
"258 740 LINE",
"240 654 LINE"
);
},
{
closed = 1;
nodes = (
"485 0 LINE",
"503 86 LINE",
"119 86 LINE",
"101 0 LINE"
);
},
{
closed = 1;
nodes = (
"127 0 LINE",
"284 740 LINE",
"186 740 LINE",
"29 0 LINE"
);
},
{
closed = 1;
nodes = (
"567 820.5 OFFCURVE",
"593.6 848.05 OFFCURVE",
"593.6 882.25 CURVE SMOOTH",
"593.6 916.45 OFFCURVE",
"567 944 OFFCURVE",
"531.85 944 CURVE SMOOTH",
"495.75 944 OFFCURVE",
"470.1 916.45 OFFCURVE",
"470.1 882.25 CURVE SMOOTH",
"470.1 849 OFFCURVE",
"495.75 820.5 OFFCURVE",
"531.85 820.5 CURVE SMOOTH"
);
},
{
closed = 1;
nodes = (
"377 820.5 OFFCURVE",
"403.6 848.05 OFFCURVE",
"403.6 882.25 CURVE SMOOTH",
"403.6 916.45 OFFCURVE",
"377 944 OFFCURVE",
"341.85 944 CURVE SMOOTH",
"305.75 944 OFFCURVE",
"280.1 916.45 OFFCURVE",
"280.1 882.25 CURVE SMOOTH",
"280.1 849 OFFCURVE",
"305.75 820.5 OFFCURVE",
"341.85 820.5 CURVE SMOOTH"
);
}
);
width = 611;
},
{
anchors = (
{
name = bottom;
position = "{262, 0}";
},
{
name = ogonek;
position = "{531, 0}";
},
{
name = top;
position = "{471, 983}";
},
{
name = topleft;
position = "{176, 736}";
}
);
layerId = "1F0C3569-068D-41D8-99BF-71FC09839D59";
paths = (
{
closed = 1;
nodes = (
"544 296 LINE",
"578 454 LINE",
"157 454 LINE",
"123 296 LINE"
);
},
{
closed = 1;
nodes = (
"648 574 LINE",
"683 740 LINE",
"217 740 LINE",
"182 574 LINE"
);
},
{
closed = 1;
nodes = (
"531 0 LINE",
"566 166 LINE",
"95 166 LINE",
"60 0 LINE"
);
},
{
closed = 1;
nodes = (
"194 0 LINE",
"351 740 LINE",
"159 740 LINE",
"2 0 LINE"
);
},
{
closed = 1;
nodes = (
"633.994 787.55 OFFCURVE",
"677.422 831.965 OFFCURVE",
"677.422 885.263 CURVE SMOOTH",
"677.422 939.548 OFFCURVE",
"633.994 982.976 OFFCURVE",
"575.056 982.976 CURVE SMOOTH",
"515.084 982.976 OFFCURVE",
"472.69 939.548 OFFCURVE",
"472.69 885.263 CURVE SMOOTH",
"472.69 831.965 OFFCURVE",
"515.084 787.55 OFFCURVE",
"575.056 787.55 CURVE SMOOTH"
);
},
{
closed = 1;
nodes = (
"383.994 787.55 OFFCURVE",
"427.422 831.965 OFFCURVE",
"427.422 885.263 CURVE SMOOTH",
"427.422 939.548 OFFCURVE",
"383.994 982.976 OFFCURVE",
"325.056 982.976 CURVE SMOOTH",
"265.084 982.976 OFFCURVE",
"222.69 939.548 OFFCURVE",
"222.69 885.263 CURVE SMOOTH",
"222.69 831.965 OFFCURVE",
"265.084 787.55 OFFCURVE",
"325.056 787.55 CURVE SMOOTH"
);
}
);
width = 636;
}
);
leftKerningGroup = l;
rightKerningGroup = E;
unicode = 00CB;
},
{
glyphname = Edotaccent;
lastChange = "2021-03-14 09:41:58 +0000";
layers = (
{
anchors = (
{
name = bottom;
position = "{221, 0}";
},
{
name = ogonek;
position = "{453, 0}";
},
{
name = top;
position = "{415, 911}";
},
{
name = topleft;
position = "{170, 700}";
}
);
layerId = "3EF6EAEC-888F-4BA2-8550-D36A3DFF40E2";
paths = (
{
closed = 1;
nodes = (
"475 362 LINE",
"482 396 LINE",
"137 396 LINE",
"130 362 LINE"
);
},
{
closed = 1;
nodes = (
"597 706 LINE",
"604 740 LINE",
"210 740 LINE",
"203 706 LINE"
);
},
{
closed = 1;
nodes = (
"453 0 LINE",
"460 34 LINE",
"60 34 LINE",
"53 0 LINE"
);
},
{
closed = 1;
nodes = (
"69 0 LINE",
"226 740 LINE",
"191 740 LINE",
"34 0 LINE"
);
},
{
closed = 1;
nodes = (
"426.6 840.25 OFFCURVE",
"442.75 856.4 OFFCURVE",
"442.75 876.35 CURVE SMOOTH",
"442.75 895.35 OFFCURVE",
"426.6 911.5 OFFCURVE",
"406.65 911.5 CURVE SMOOTH",
"386.7 911.5 OFFCURVE",
"371.5 895.35 OFFCURVE",
"371.5 876.35 CURVE SMOOTH",
"371.5 856.4 OFFCURVE",
"386.7 840.25 OFFCURVE",
"406.65 840.25 CURVE SMOOTH"
);
}
);
width = 554;
},
{
anchors = (
{
name = bottom;
position = "{301, 0}";
},
{
name = ogonek;
position = "{485, 0}";
},
{
name = top;
position = "{454, 959}";
},
{
name = topleft;
position = "{181, 700}";
}
);
layerId = "DFC78E06-237F-4D33-BFB3-2388B696AEC9";
paths = (
{
closed = 1;
nodes = (
"505 334 LINE",
"523 420 LINE",
"190 420 LINE",
"172 334 LINE"
);
},
{
closed = 1;
nodes = (
"619 654 LINE",
"637 740 LINE",
"258 740 LINE",
"240 654 LINE"
);
},
{
closed = 1;
nodes = (
"485 0 LINE",
"503 86 LINE",
"119 86 LINE",
"101 0 LINE"
);
},
{
closed = 1;
nodes = (
"127 0 LINE",
"284 740 LINE",
"186 740 LINE",
"29 0 LINE"
);
},
{
closed = 1;
nodes = (
"476 835.5 OFFCURVE",
"502.6 863.05 OFFCURVE",
"502.6 897.25 CURVE SMOOTH",
"502.6 931.45 OFFCURVE",
"476 959 OFFCURVE",
"440.85 959 CURVE SMOOTH",
"404.75 959 OFFCURVE",
"379.1 931.45 OFFCURVE",
"379.1 897.25 CURVE SMOOTH",
"379.1 864 OFFCURVE",
"404.75 835.5 OFFCURVE",
"440.85 835.5 CURVE SMOOTH"
);
}
);
width = 611;
},
{
anchors = (
{
name = bottom;
position = "{262, 0}";
},
{
name = ogonek;
position = "{531, 0}";
},
{
name = top;
position = "{474, 1000}";
},
{
name = topleft;
position = "{176, 736}";
}
);
layerId = "1F0C3569-068D-41D8-99BF-71FC09839D59";
paths = (
{
closed = 1;
nodes = (
"544 296 LINE",
"578 454 LINE",
"157 454 LINE",
"123 296 LINE"
);
},
{
closed = 1;
nodes = (
"648 574 LINE",
"683 740 LINE",
"217 740 LINE",
"182 574 LINE"
);
},
{
closed = 1;
nodes = (
"531 0 LINE",
"566 166 LINE",
"95 166 LINE",
"60 0 LINE"
);
},
{
closed = 1;
nodes = (
"194 0 LINE",
"351 740 LINE",
"159 740 LINE",
"2 0 LINE"
);
},
{
closed = 1;
nodes = (
"515.1 792.5 OFFCURVE",
"561.3 839.75 OFFCURVE",
"561.3 896.45 CURVE SMOOTH",
"561.3 954.2 OFFCURVE",
"515.1 1000.4 OFFCURVE",
"452.4 1000.4 CURVE SMOOTH",
"388.6 1000.4 OFFCURVE",
"343.5 954.2 OFFCURVE",
"343.5 896.45 CURVE SMOOTH",
"343.5 839.75 OFFCURVE",
"388.6 792.5 OFFCURVE",
"452.4 792.5 CURVE SMOOTH"
);
}
);
width = 636;
}
);
leftKerningGroup = l;
rightKerningGroup = E;
unicode = 0116;
},
{
glyphname = Edotbelow;
lastChange = "2021-03-14 09:41:58 +0000";
layers = (
{
anchors = (
{
name = bottom;
position = "{180, -192}";
},
{
name = ogonek;
position = "{453, 0}";
},
{
name = top;
position = "{378, 740}";
},
{
name = topleft;
position = "{170, 700}";
}
);
layerId = "3EF6EAEC-888F-4BA2-8550-D36A3DFF40E2";
paths = (
{
closed = 1;
nodes = (
"475 362 LINE",
"482 396 LINE",
"137 396 LINE",
"130 362 LINE"
);
},
{
closed = 1;
nodes = (
"597 706 LINE",
"604 740 LINE",
"210 740 LINE",
"203 706 LINE"
);
},
{
closed = 1;
nodes = (
"453 0 LINE",
"460 34 LINE",
"60 34 LINE",
"53 0 LINE"
);
},
{
closed = 1;
nodes = (
"69 0 LINE",
"226 740 LINE",
"191 740 LINE",
"34 0 LINE"
);
},
{
closed = 1;
nodes = (
"209 -192 OFFCURVE",
"226 -175 OFFCURVE",
"226 -154 CURVE SMOOTH",
"226 -134 OFFCURVE",
"209 -117 OFFCURVE",
"188 -117 CURVE SMOOTH",
"167 -117 OFFCURVE",
"151 -134 OFFCURVE",
"151 -154 CURVE SMOOTH",
"151 -175 OFFCURVE",
"167 -192 OFFCURVE",
"188 -192 CURVE SMOOTH"
);
}
);
width = 554;
},
{
anchors = (
{
name = bottom;
position = "{253, -227}";
},
{
name = ogonek;
position = "{485, 0}";
},
{
name = top;
position = "{407, 740}";
},
{
name = topleft;
position = "{181, 700}";
}
);
layerId = "DFC78E06-237F-4D33-BFB3-2388B696AEC9";
paths = (
{
closed = 1;
nodes = (
"505 334 LINE",
"523 420 LINE",
"190 420 LINE",
"172 334 LINE"
);
},
{
closed = 1;
nodes = (
"619 654 LINE",
"637 740 LINE",
"258 740 LINE",
"240 654 LINE"
);
},
{
closed = 1;
nodes = (
"485 0 LINE",
"503 86 LINE",
"119 86 LINE",
"101 0 LINE"
);
},
{
closed = 1;
nodes = (
"127 0 LINE",
"284 740 LINE",
"186 740 LINE",
"29 0 LINE"
);
},
{
closed = 1;
nodes = (
"304 -227 OFFCURVE",
"332 -198 OFFCURVE",
"332 -162 CURVE SMOOTH",
"332 -126 OFFCURVE",
"304 -97 OFFCURVE",
"267 -97 CURVE SMOOTH",
"229 -97 OFFCURVE",
"202 -126 OFFCURVE",
"202 -162 CURVE SMOOTH",
"202 -197 OFFCURVE",
"229 -227 OFFCURVE",
"267 -227 CURVE SMOOTH"
);
}
);
width = 611;
},
{
anchors = (
{
name = bottom;
position = "{207, -260}";
},
{
name = ogonek;
position = "{531, 0}";
},
{
name = top;
position = "{419, 740}";
},
{
name = topleft;
position = "{176, 736}";
}
);
layerId = "1F0C3569-068D-41D8-99BF-71FC09839D59";
paths = (
{
closed = 1;
nodes = (
"544 296 LINE",
"578 454 LINE",
"157 454 LINE",
"123 296 LINE"
);
},
{
closed = 1;
nodes = (
"648 574 LINE",
"683 740 LINE",
"217 740 LINE",
"182 574 LINE"
);
},
{
closed = 1;
nodes = (
"531 0 LINE",
"566 166 LINE",
"95 166 LINE",
"60 0 LINE"
);
},
{
closed = 1;
nodes = (
"194 0 LINE",
"351 740 LINE",
"159 740 LINE",
"2 0 LINE"
);
},
{
closed = 1;
nodes = (
"276.9 -260 OFFCURVE",
"314.7 -219.5 OFFCURVE",
"314.7 -170.9 CURVE SMOOTH",
"314.7 -121.4 OFFCURVE",
"276.9 -81.8 OFFCURVE",
"225.6 -81.8 CURVE SMOOTH",
"173.4 -81.8 OFFCURVE",
"136.5 -121.4 OFFCURVE",
"136.5 -170.9 CURVE SMOOTH",
"136.5 -219.5 OFFCURVE",
"173.4 -260 OFFCURVE",
"225.6 -260 CURVE SMOOTH"
);
}
);
width = 636;
}
);
leftKerningGroup = l;
rightKerningGroup = E;
unicode = 1EB8;
},
{
glyphname = Egrave;
lastChange = "2021-03-14 09:41:58 +0000";
layers = (
{
anchors = (
{
name = bottom;
position = "{221, 0}";
},
{
name = ogonek;
position = "{453, 0}";
},
{
name = top;
position = "{378, 980}";
},
{
name = topleft;
position = "{170, 700}";
}
);
layerId = "3EF6EAEC-888F-4BA2-8550-D36A3DFF40E2";
paths = (
{
closed = 1;
nodes = (
"475 362 LINE",
"482 396 LINE",
"137 396 LINE",
"130 362 LINE"
);
},
{
closed = 1;
nodes = (
"597 706 LINE",
"604 740 LINE",
"210 740 LINE",
"203 706 LINE"
);
},
{
closed = 1;
nodes = (
"453 0 LINE",
"460 34 LINE",
"60 34 LINE",
"53 0 LINE"
);
},
{
closed = 1;
nodes = (
"69 0 LINE",
"226 740 LINE",
"191 740 LINE",
"34 0 LINE"
);
},
{
closed = 1;
nodes = (
"406 828 LINE",
"353 980 LINE",
"317 980 LINE",
"377 828 LINE"
);
}
);
width = 554;
},
{
anchors = (
{
name = bottom;
position = "{301, 0}";
},
{
name = ogonek;
position = "{485, 0}";
},
{
name = top;
position = "{354, 1009}";
},
{
name = topleft;
position = "{181, 700}";
}
);
layerId = "DFC78E06-237F-4D33-BFB3-2388B696AEC9";
paths = (
{
closed = 1;
nodes = (
"505 334 LINE",
"523 420 LINE",
"190 420 LINE",
"172 334 LINE"
);
},
{
closed = 1;
nodes = (
"619 654 LINE",
"637 740 LINE",
"258 740 LINE",
"240 654 LINE"
);
},
{
closed = 1;
nodes = (
"485 0 LINE",
"503 86 LINE",
"119 86 LINE",
"101 0 LINE"
);
},
{
closed = 1;
nodes = (
"127 0 LINE",
"284 740 LINE",
"186 740 LINE",
"29 0 LINE"
);
},
{
closed = 1;
nodes = (
"452 821 LINE",
"386 1001 LINE",
"293 1001 LINE",
"376 820 LINE"
);
}
);
width = 611;
},
{
anchors = (
{
name = bottom;
position = "{262, 0}";
},
{
name = ogonek;
position = "{531, 0}";
},
{
name = top;
position = "{345, 1050}";
},
{
name = topleft;
position = "{176, 736}";
}
);
layerId = "1F0C3569-068D-41D8-99BF-71FC09839D59";
paths = (
{
closed = 1;
nodes = (
"544 296 LINE",
"578 454 LINE",
"157 454 LINE",
"123 296 LINE"
);
},
{
closed = 1;
nodes = (
"648 574 LINE",
"683 740 LINE",
"217 740 LINE",
"182 574 LINE"
);
},
{
closed = 1;
nodes = (
"531 0 LINE",
"566 166 LINE",
"95 166 LINE",
"60 0 LINE"
);
},
{
closed = 1;
nodes = (
"194 0 LINE",
"351 740 LINE",
"159 740 LINE",
"2 0 LINE"
);
},
{
closed = 1;
nodes = (
"488 810 LINE",
"421 989 LINE",
"256 989 LINE",
"360 809 LINE"
);
}
);
width = 636;
}
);
leftKerningGroup = l;
rightKerningGroup = E;
unicode = 00C8;
},
{
glyphname = Ehookabove;
lastChange = "2021-03-14 09:41:58 +0000";
layers = (
{
anchors = (
{
name = bottom;
position = "{221, 0}";
},
{
name = ogonek;
position = "{453, 0}";
},
{
name = top;
position = "{434, 1005}";
},
{
name = topleft;
position = "{170, 700}";
}
);
layerId = "3EF6EAEC-888F-4BA2-8550-D36A3DFF40E2";
paths = (
{
closed = 1;
nodes = (
"475 362 LINE",
"482 396 LINE",
"137 396 LINE",
"130 362 LINE"
);
},
{
closed = 1;
nodes = (
"597 706 LINE",
"604 740 LINE",
"210 740 LINE",
"203 706 LINE"
);
},
{
closed = 1;
nodes = (
"453 0 LINE",
"460 34 LINE",
"60 34 LINE",
"53 0 LINE"
);
},
{
closed = 1;
nodes = (
"69 0 LINE",
"226 740 LINE",
"191 740 LINE",
"34 0 LINE"
);
},
{
closed = 1;
nodes = (
"400 814 LINE",
"411 865 LINE",
"382 836 LINE",
"408 847 LINE SMOOTH",
"467 872 OFFCURVE",
"500 899 OFFCURVE",
"500 938 CURVE SMOOTH",
"500 972 OFFCURVE",
"477 1005 OFFCURVE",
"425 1005 CURVE SMOOTH",
"343 1005 OFFCURVE",
"337 928 OFFCURVE",
"337 928 CURVE",
"366 928 LINE",
"366 928 OFFCURVE",
"369 977 OFFCURVE",
"423 977 CURVE SMOOTH",
"456 977 OFFCURVE",
"470 957 OFFCURVE",
"470 938 CURVE SMOOTH",
"470 911 OFFCURVE",
"449 891 OFFCURVE",
"410 874 CURVE SMOOTH",
"396 868 LINE SMOOTH",
"387 864 OFFCURVE",
"381 856 OFFCURVE",
"379 846 CURVE SMOOTH",
"372 814 LINE"
);
}
);
width = 554;
},
{
anchors = (
{
name = bottom;
position = "{301, 0}";
},
{
name = ogonek;
position = "{485, 0}";
},
{
name = top;
position = "{467, 1021}";
},
{
name = topleft;
position = "{181, 700}";
}
);
layerId = "DFC78E06-237F-4D33-BFB3-2388B696AEC9";
paths = (
{
closed = 1;
nodes = (
"505 334 LINE",
"523 420 LINE",
"190 420 LINE",
"172 334 LINE"
);
},
{
closed = 1;
nodes = (
"619 654 LINE",
"637 740 LINE",
"258 740 LINE",
"240 654 LINE"
);
},
{
closed = 1;
nodes = (
"485 0 LINE",
"503 86 LINE",
"119 86 LINE",
"101 0 LINE"
);
},
{
closed = 1;
nodes = (
"127 0 LINE",
"284 740 LINE",
"186 740 LINE",
"29 0 LINE"
);
},
{
closed = 1;
nodes = (
"448 806 LINE",
"461 865 LINE",
"419 822 LINE",
"446 833 LINE SMOOTH",
"506 857 OFFCURVE",
"553 885 OFFCURVE",
"553 935 CURVE SMOOTH",
"553 977 OFFCURVE",
"522 1021 OFFCURVE",
"451 1021 CURVE SMOOTH",
"348 1021 OFFCURVE",
"342 926 OFFCURVE",
"342 926 CURVE",
"400 926 LINE",
"400 926 OFFCURVE",
"402 969 OFFCURVE",
"450 969 CURVE SMOOTH",
"478 969 OFFCURVE",
"491 952 OFFCURVE",
"491 935 CURVE SMOOTH",
"491 912 OFFCURVE",
"471 895 OFFCURVE",
"434 878 CURVE SMOOTH",
"419 871 LINE SMOOTH",
"406 865 OFFCURVE",
"396 854 OFFCURVE",
"393 839 CURVE SMOOTH",
"386 806 LINE"
);
}
);
width = 611;
},
{
anchors = (
{
name = bottom;
position = "{262, 0}";
},
{
name = ogonek;
position = "{531, 0}";
},
{
name = top;
position = "{484, 1046}";
},
{
name = topleft;
position = "{176, 736}";
}
);
layerId = "1F0C3569-068D-41D8-99BF-71FC09839D59";
paths = (
{
closed = 1;
nodes = (
"544 296 LINE",
"578 454 LINE",
"157 454 LINE",
"123 296 LINE"
);
},
{
closed = 1;
nodes = (
"648 574 LINE",
"683 740 LINE",
"217 740 LINE",
"182 574 LINE"
);
},
{
closed = 1;
nodes = (
"531 0 LINE",
"566 166 LINE",
"95 166 LINE",
"60 0 LINE"
);
},
{
closed = 1;
nodes = (
"194 0 LINE",
"351 740 LINE",
"159 740 LINE",
"2 0 LINE"
);
},
{
closed = 1;
nodes = (
"478 795 LINE",
"494 866 LINE",
"442 801 LINE",
"490 825 LINE SMOOTH",
"520 840 OFFCURVE",
"601 871 OFFCURVE",
"601 943 CURVE SMOOTH",
"601 997 OFFCURVE",
"554 1046 OFFCURVE",
"471 1046 CURVE SMOOTH",
"321 1046 OFFCURVE",
"318 922 OFFCURVE",
"318 922 CURVE",
"419 922 LINE",
"419 922 OFFCURVE",
"421 957 OFFCURVE",
"459 957 CURVE SMOOTH",
"479 957 OFFCURVE",
"490 945 OFFCURVE",
"490 930 CURVE SMOOTH",
"490 912 OFFCURVE",
"475 899 OFFCURVE",
"439 883 CURVE SMOOTH",
"421 875 LINE SMOOTH",
"397 864 OFFCURVE",
"387 847 OFFCURVE",
"383 828 CURVE SMOOTH",
"376 795 LINE"
);
}
);
width = 636;
}
);
leftKerningGroup = l;
rightKerningGroup = E;
unicode = 1EBA;
},
{
glyphname = Emacron;
lastChange = "2021-05-04 15:56:27 +0000";
layers = (
{
anchors = (
{
name = bottom;
position = "{221, 0}";
},
{
name = ogonek;
position = "{453, 0}";
},
{
name = top;
position = "{406, 873}";
},
{
name = topleft;
position = "{170, 700}";
}
);
layerId = "3EF6EAEC-888F-4BA2-8550-D36A3DFF40E2";
paths = (
{
closed = 1;
nodes = (
"475 362 LINE",
"482 396 LINE",
"137 396 LINE",
"130 362 LINE"
);
},
{
closed = 1;
nodes = (
"597 706 LINE",
"604 740 LINE",
"210 740 LINE",
"203 706 LINE"
);
},
{
closed = 1;
nodes = (
"453 0 LINE",
"460 34 LINE",
"60 34 LINE",
"53 0 LINE"
);
},
{
closed = 1;
nodes = (
"69 0 LINE",
"226 740 LINE",
"191 740 LINE",
"34 0 LINE"
);
},
{
closed = 1;
nodes = (
"540 843 LINE",
"546 873 LINE",
"266 873 LINE",
"260 843 LINE"
);
}
);
width = 554;
},
{
anchors = (
{
name = bottom;
position = "{301, 0}";
},
{
name = ogonek;
position = "{485, 0}";
},
{
name = top;
position = "{446, 923}";
},
{
name = topleft;
position = "{181, 700}";
}
);
layerId = "DFC78E06-237F-4D33-BFB3-2388B696AEC9";
paths = (
{
closed = 1;
nodes = (
"505 334 LINE",
"523 420 LINE",
"190 420 LINE",
"172 334 LINE"
);
},
{
closed = 1;
nodes = (
"619 654 LINE",
"637 740 LINE",
"258 740 LINE",
"240 654 LINE"
);
},
{
closed = 1;
nodes = (
"485 0 LINE",
"503 86 LINE",
"119 86 LINE",
"101 0 LINE"
);
},
{
closed = 1;
nodes = (
"127 0 LINE",
"284 740 LINE",
"186 740 LINE",
"29 0 LINE"
);
},
{
closed = 1;
nodes = (
"582 851 LINE",
"598 923 LINE",
"294 923 LINE",
"278 851 LINE"
);
}
);
width = 611;
},
{
anchors = (
{
name = bottom;
position = "{262, 0}";
},
{
name = ogonek;
position = "{531, 0}";
},
{
name = top;
position = "{467, 965}";
},
{
name = topleft;
position = "{176, 736}";
}
);
layerId = "1F0C3569-068D-41D8-99BF-71FC09839D59";
paths = (
{
closed = 1;
nodes = (
"544 296 LINE",
"578 454 LINE",
"157 454 LINE",
"123 296 LINE"
);
},
{
closed = 1;
nodes = (
"648 574 LINE",
"683 740 LINE",
"217 740 LINE",
"182 574 LINE"
);
},
{
closed = 1;
nodes = (
"531 0 LINE",
"566 166 LINE",
"95 166 LINE",
"60 0 LINE"
);
},
{
closed = 1;
nodes = (
"194 0 LINE",
"351 740 LINE",
"159 740 LINE",
"2 0 LINE"
);
},
{
closed = 1;
nodes = (
"605 823 LINE",
"627 925 LINE",
"287 925 LINE",
"265 823 LINE"
);
}
);
width = 636;
}
);
leftKerningGroup = l;
rightKerningGroup = E;
unicode = 0112;
},
{
glyphname = Eogonek;
lastChange = "2021-03-14 09:41:58 +0000";
layers = (
{
anchors = (
{
name = bottom;
position = "{221, 0}";
},
{
name = ogonek;
position = "{453, 0}";
},
{
name = top;
position = "{378, 740}";
},
{
name = topleft;
position = "{170, 700}";
}
);
layerId = "3EF6EAEC-888F-4BA2-8550-D36A3DFF40E2";
paths = (
{
closed = 1;
nodes = (
"475 362 LINE",
"482 396 LINE",
"137 396 LINE",
"130 362 LINE"
);
},
{
closed = 1;
nodes = (
"597 706 LINE",
"604 740 LINE",
"210 740 LINE",
"203 706 LINE"
);
},
{
closed = 1;
nodes = (
"453 0 LINE",
"460 34 LINE",
"60 34 LINE",
"53 0 LINE"
);
},
{
closed = 1;
nodes = (
"69 0 LINE",
"226 740 LINE",
"191 740 LINE",
"34 0 LINE"
);
},
{
closed = 1;
nodes = (
"449 -149 OFFCURVE",
"466 -143 OFFCURVE",
"466 -143 CURVE",
"472 -115 LINE",
"472 -115 OFFCURVE",
"451 -120 OFFCURVE",
"431 -120 CURVE SMOOTH",
"396 -120 OFFCURVE",
"378 -106 OFFCURVE",
"378 -80 CURVE SMOOTH",
"378 -26 OFFCURVE",
"453 0 OFFCURVE",
"453 0 CURVE",
"435 12 LINE",
"435 12 OFFCURVE",
"346 -15 OFFCURVE",
"346 -84 CURVE SMOOTH",
"346 -125 OFFCURVE",
"377 -149 OFFCURVE",
"425 -149 CURVE SMOOTH"
);
}
);
width = 554;
},
{
anchors = (
{
name = bottom;
position = "{301, 0}";
},
{
name = ogonek;
position = "{485, 0}";
},
{
name = top;
position = "{407, 740}";
},
{
name = topleft;
position = "{181, 700}";
}
);
layerId = "DFC78E06-237F-4D33-BFB3-2388B696AEC9";
paths = (
{
closed = 1;
nodes = (
"505 334 LINE",
"523 420 LINE",
"190 420 LINE",
"172 334 LINE"
);
},
{
closed = 1;
nodes = (
"619 654 LINE",
"637 740 LINE",
"258 740 LINE",
"240 654 LINE"
);
},
{
closed = 1;
nodes = (
"485 0 LINE",
"503 86 LINE",
"119 86 LINE",
"101 0 LINE"
);
},
{
closed = 1;
nodes = (
"127 0 LINE",
"284 740 LINE",
"186 740 LINE",
"29 0 LINE"
);
},
{
closed = 1;
nodes = (
"471 -167 OFFCURVE",
"490 -161 OFFCURVE",
"490 -161 CURVE",
"502 -103 LINE",
"502 -103 OFFCURVE",
"483 -108 OFFCURVE",
"465 -108 CURVE SMOOTH",
"431 -108 OFFCURVE",
"415 -94 OFFCURVE",
"415 -72 CURVE SMOOTH",
"415 -25 OFFCURVE",
"485 0 OFFCURVE",
"485 0 CURVE",
"453 19 LINE",
"453 19 OFFCURVE",
"342 -8 OFFCURVE",
"342 -90 CURVE SMOOTH",
"342 -136 OFFCURVE",
"378 -167 OFFCURVE",
"443 -167 CURVE SMOOTH"
);
}
);
width = 611;
},
{
anchors = (
{
name = bottom;
position = "{262, 0}";
},
{
name = ogonek;
position = "{531, 0}";
},
{
name = top;
position = "{419, 740}";
},
{
name = topleft;
position = "{176, 736}";
}
);
layerId = "1F0C3569-068D-41D8-99BF-71FC09839D59";
paths = (
{
closed = 1;
nodes = (
"544 296 LINE",
"578 454 LINE",
"157 454 LINE",
"123 296 LINE"
);
},
{
closed = 1;
nodes = (
"648 574 LINE",
"683 740 LINE",
"217 740 LINE",
"182 574 LINE"
);
},
{
closed = 1;
nodes = (
"531 0 LINE",
"566 166 LINE",
"95 166 LINE",
"60 0 LINE"
);
},
{
closed = 1;
nodes = (
"194 0 LINE",
"351 740 LINE",
"159 740 LINE",
"2 0 LINE"
);
},
{
closed = 1;
nodes = (
"503 -194 OFFCURVE",
"526 -189 OFFCURVE",
"526 -189 CURVE",
"547 -87 LINE",
"547 -87 OFFCURVE",
"530 -90 OFFCURVE",
"515 -90 CURVE SMOOTH",
"482 -90 OFFCURVE",
"469 -77 OFFCURVE",
"469 -60 CURVE SMOOTH",
"469 -24 OFFCURVE",
"531 0 OFFCURVE",
"531 0 CURVE",
"478 29 LINE",
"478 29 OFFCURVE",
"330 3 OFFCURVE",
"330 -99 CURVE SMOOTH",
"330 -154 OFFCURVE",
"373 -194 OFFCURVE",
"469 -194 CURVE SMOOTH"
);
}
);
width = 636;
}
);
leftKerningGroup = l;
rightKerningGroup = E;
unicode = 0118;
},
{
glyphname = Etilde;
lastChange = "2021-03-14 09:41:58 +0000";
layers = (
{
anchors = (
{
name = bottom;
position = "{221, 0}";
},
{
name = ogonek;
position = "{453, 0}";
},
{
name = top;
position = "{419, 935}";
},
{
name = topleft;
position = "{170, 700}";
}
);
layerId = "3EF6EAEC-888F-4BA2-8550-D36A3DFF40E2";
paths = (
{
closed = 1;
nodes = (
"475 362 LINE",
"482 396 LINE",
"137 396 LINE",
"130 362 LINE"
);
},
{
closed = 1;
nodes = (
"597 706 LINE",
"604 740 LINE",
"210 740 LINE",
"203 706 LINE"
);
},
{
closed = 1;
nodes = (
"453 0 LINE",
"460 34 LINE",
"60 34 LINE",
"53 0 LINE"
);
},
{
closed = 1;
nodes = (
"69 0 LINE",
"226 740 LINE",
"191 740 LINE",
"34 0 LINE"
);
},
{
closed = 1;
nodes = (
"507 831 OFFCURVE",
"533 878 OFFCURVE",
"544 936 CURVE",
"513 936 LINE",
"505 887 OFFCURVE",
"488 860 OFFCURVE",
"464 860 CURVE SMOOTH",
"423 860 OFFCURVE",
"422 941 OFFCURVE",
"359 941 CURVE SMOOTH",
"312 941 OFFCURVE",
"285 897 OFFCURVE",
"274 836 CURVE",
"305 836 LINE",
"312 881 OFFCURVE",
"330 912 OFFCURVE",
"356 912 CURVE SMOOTH",
"398 912 OFFCURVE",
"401 831 OFFCURVE",
"461 831 CURVE SMOOTH"
);
}
);
width = 554;
},
{
anchors = (
{
name = bottom;
position = "{301, 0}";
},
{
name = ogonek;
position = "{485, 0}";
},
{
name = top;
position = "{455, 961}";
},
{
name = topleft;
position = "{181, 700}";
}
);
layerId = "DFC78E06-237F-4D33-BFB3-2388B696AEC9";
paths = (
{
closed = 1;
nodes = (
"505 334 LINE",
"523 420 LINE",
"190 420 LINE",
"172 334 LINE"
);
},
{
closed = 1;
nodes = (
"619 654 LINE",
"637 740 LINE",
"258 740 LINE",
"240 654 LINE"
);
},
{
closed = 1;
nodes = (
"485 0 LINE",
"503 86 LINE",
"119 86 LINE",
"101 0 LINE"
);
},
{
closed = 1;
nodes = (
"127 0 LINE",
"284 740 LINE",
"186 740 LINE",
"29 0 LINE"
);
},
{
closed = 1;
nodes = (
"566 826 OFFCURVE",
"593 880 OFFCURVE",
"608 958 CURVE",
"546 958 LINE",
"539 917 OFFCURVE",
"528 894 OFFCURVE",
"506 894 CURVE SMOOTH",
"469 894 OFFCURVE",
"450 963 OFFCURVE",
"379 963 CURVE SMOOTH",
"317 963 OFFCURVE",
"290 910 OFFCURVE",
"275 832 CURVE",
"337 832 LINE",
"344 873 OFFCURVE",
"357 897 OFFCURVE",
"378 897 CURVE SMOOTH",
"416 897 OFFCURVE",
"436 826 OFFCURVE",
"505 826 CURVE SMOOTH"
);
}
);
width = 611;
},
{
anchors = (
{
name = bottom;
position = "{262, 0}";
},
{
name = ogonek;
position = "{531, 0}";
},
{
name = top;
position = "{469, 972}";
},
{
name = topleft;
position = "{176, 736}";
}
);
layerId = "1F0C3569-068D-41D8-99BF-71FC09839D59";
paths = (
{
closed = 1;
nodes = (
"544 296 LINE",
"578 454 LINE",
"157 454 LINE",
"123 296 LINE"
);
},
{
closed = 1;
nodes = (
"648 574 LINE",
"683 740 LINE",
"217 740 LINE",
"182 574 LINE"
);
},
{
closed = 1;
nodes = (
"531 0 LINE",
"566 166 LINE",
"95 166 LINE",
"60 0 LINE"
);
},
{
closed = 1;
nodes = (
"194 0 LINE",
"351 740 LINE",
"159 740 LINE",
"2 0 LINE"
);
},
{
closed = 1;
nodes = (
"615 822 OFFCURVE",
"640 902 OFFCURVE",
"657 981 CURVE",
"564 981 LINE",
"556 946 OFFCURVE",
"546 928 OFFCURVE",
"527 928 CURVE SMOOTH",
"493 928 OFFCURVE",
"464 987 OFFCURVE",
"391 987 CURVE SMOOTH",
"300 987 OFFCURVE",
"276 907 OFFCURVE",
"259 828 CURVE",
"352 828 LINE",
"359 862 OFFCURVE",
"370 881 OFFCURVE",
"389 881 CURVE SMOOTH",
"424 881 OFFCURVE",
"452 822 OFFCURVE",
"525 822 CURVE SMOOTH"
);
}
);
width = 636;
}
);
leftKerningGroup = l;
rightKerningGroup = E;
unicode = 1EBC;
},
{
glyphname = F;
lastChange = "2021-05-14 08:51:38 +0000";
layers = (
{
anchors = (
{
name = bottom;
position = "{52, 0}";
},
{
name = ogonek;
position = "{69, 0}";
},
{
name = top;
position = "{209, 740}";
},
{
name = topleft;
position = "{119, 740}";
}
);
layerId = "3EF6EAEC-888F-4BA2-8550-D36A3DFF40E2";
paths = (
{
closed = 1;
nodes = (
"482 352 LINE",
"489 386 LINE",
"144 386 LINE",
"137 352 LINE"
);
},
{
closed = 1;
nodes = (
"606 706 LINE",
"613 740 LINE",
"219 740 LINE",
"212 706 LINE"
);
},
{
closed = 1;
nodes = (
"69 0 LINE",
"226 740 LINE",
"191 740 LINE",
"34 0 LINE"
);
}
);
width = 557;
},
{
anchors = (
{
name = bottom;
position = "{78, 0}";
},
{
name = ogonek;
position = "{127, 0}";
},
{
name = top;
position = "{227, 700}";
},
{
name = topleft;
position = "{123, 700}";
}
);
layerId = "DFC78E06-237F-4D33-BFB3-2388B696AEC9";
paths = (
{
closed = 1;
nodes = (
"511 324 LINE",
"529 410 LINE",
"196 410 LINE",
"178 324 LINE"
);
},
{
closed = 1;
nodes = (
"627 654 LINE",
"645 740 LINE",
"266 740 LINE",
"248 654 LINE"
);
},
{
closed = 1;
nodes = (
"127 0 LINE",
"284 740 LINE",
"186 740 LINE",
"29 0 LINE"
);
}
);
width = 614;
},
{
anchors = (
{
name = bottom;
position = "{98, 0}";
},
{
name = ogonek;
position = "{194, 0}";
},
{
name = top;
position = "{254, 736}";
},
{
name = topleft;
position = "{128, 736}";
}
);
layerId = "1F0C3569-068D-41D8-99BF-71FC09839D59";
paths = (
{
closed = 1;
nodes = (
"545 255 LINE",
"579 414 LINE",
"148 414 LINE",
"114 255 LINE"
);
},
{
closed = 1;
nodes = (
"658 574 LINE",
"693 740 LINE",
"217 740 LINE",
"182 574 LINE"
);
},
{
closed = 1;
nodes = (
"194 0 LINE",
"351 740 LINE",
"159 740 LINE",
"2 0 LINE"
);
}
);
width = 632;
}
);
leftKerningGroup = l;
leftMetricsKey = l;
rightKerningGroup = F;
rightMetricsKey = E;
unicode = 0046;
},
{
glyphname = G;
lastChange = "2021-03-07 10:42:42 +0000";
layers = (
{
anchors = (
{
name = bottom;
position = "{325, 0}";
},
{
name = top;
position = "{462, 740}";
}
);
layerId = "3EF6EAEC-888F-4BA2-8550-D36A3DFF40E2";
paths = (
{
closed = 1;
nodes = (
"560 -10 OFFCURVE",
"662 157 OFFCURVE",
"686 314 CURVE SMOOTH",
"694 366 LINE",
"423 366 LINE",
"416 333 LINE",
"685 333 LINE",
"657 354 LINE",
"653 325 LINE SMOOTH",
"632 174 OFFCURVE",
"536 24 OFFCURVE",
"357 24 CURVE SMOOTH",
"182 24 OFFCURVE",
"105 161 OFFCURVE",
"105 313 CURVE SMOOTH",
"105 503 OFFCURVE",
"225 716 OFFCURVE",
"453 716 CURVE SMOOTH",
"680 716 OFFCURVE",
"669 506 OFFCURVE",
"669 506 CURVE",
"705 506 LINE",
"705 506 OFFCURVE",
"715 750 OFFCURVE",
"455 750 CURVE SMOOTH",
"202 750 OFFCURVE",
"69 519 OFFCURVE",
"69 312 CURVE SMOOTH",
"69 143 OFFCURVE",
"158 -10 OFFCURVE",
"357 -10 CURVE SMOOTH"
);
}
);
width = 761;
},
{
anchors = (
{
name = bottom;
position = "{321, 0}";
},
{
name = top;
position = "{468, 740}";
}
);
guideLines = (
{
angle = 90;
position = "{634, 409}";
},
{
position = "{592, 716}";
}
);
layerId = "DFC78E06-237F-4D33-BFB3-2388B696AEC9";
paths = (
{
closed = 1;
nodes = (
"564 -10 OFFCURVE",
"691 133 OFFCURVE",
"717 330 CURVE SMOOTH",
"724 383 LINE",
"421 383 LINE",
"404 304 LINE",
"654 304 LINE",
"622 359 LINE",
"619 333 LINE SMOOTH",
"603 194 OFFCURVE",
"517 79 OFFCURVE",
"374 79 CURVE SMOOTH",
"225 79 OFFCURVE",
"157 194 OFFCURVE",
"157 323 CURVE SMOOTH",
"157 482 OFFCURVE",
"259 662 OFFCURVE",
"452 662 CURVE SMOOTH",
"639 662 OFFCURVE",
"634 493 OFFCURVE",
"634 493 CURVE",
"732 493 LINE",
"732 493 OFFCURVE",
"738 750 OFFCURVE",
"458 750 CURVE SMOOTH",
"195 750 OFFCURVE",
"58 521 OFFCURVE",
"58 316 CURVE SMOOTH",
"58 143 OFFCURVE",
"157 -10 OFFCURVE",
"366 -10 CURVE SMOOTH"
);
}
);
width = 754;
},
{
anchors = (
{
name = bottom;
position = "{340, 0}";
},
{
name = top;
position = "{487, 740}";
}
);
guideLines = (
{
position = "{697, 473}";
}
);
layerId = "1F0C3569-068D-41D8-99BF-71FC09839D59";
paths = (
{
closed = 1;
nodes = (
"581 -10 OFFCURVE",
"744 92 OFFCURVE",
"777 353 CURVE SMOOTH",
"784 409 LINE",
"432 409 LINE",
"400 261 LINE",
"621 261 LINE",
"584 367 LINE",
"582 346 LINE SMOOTH",
"569 214 OFFCURVE",
"508 161 OFFCURVE",
"413 161 CURVE SMOOTH",
"303 161 OFFCURVE",
"250 243 OFFCURVE",
"250 338 CURVE SMOOTH",
"250 450 OFFCURVE",
"324 580 OFFCURVE",
"465 580 CURVE SMOOTH",
"593 580 OFFCURVE",
"596 473 OFFCURVE",
"596 473 CURVE",
"786 473 LINE",
"786 473 OFFCURVE",
"787 750 OFFCURVE",
"478 750 CURVE SMOOTH",
"199 750 OFFCURVE",
"56 524 OFFCURVE",
"56 323 CURVE SMOOTH",
"56 144 OFFCURVE",
"169 -10 OFFCURVE",
"393 -10 CURVE SMOOTH"
);
}
);
width = 791;
}
);
leftKerningGroup = O;
leftMetricsKey = O;
rightKerningGroup = G;
unicode = 0047;
},
{
glyphname = Gbreve;
lastChange = "2021-03-14 09:41:58 +0000";
layers = (
{
anchors = (
{
name = bottom;
position = "{325, 0}";
},
{
name = top;
position = "{493, 888}";
}
);
layerId = "3EF6EAEC-888F-4BA2-8550-D36A3DFF40E2";
paths = (
{
closed = 1;
nodes = (
"560 -10 OFFCURVE",
"662 157 OFFCURVE",
"686 314 CURVE SMOOTH",
"694 366 LINE",
"423 366 LINE",
"416 333 LINE",
"685 333 LINE",
"657 354 LINE",
"653 325 LINE SMOOTH",
"632 174 OFFCURVE",
"536 24 OFFCURVE",
"357 24 CURVE SMOOTH",
"182 24 OFFCURVE",
"105 161 OFFCURVE",
"105 313 CURVE SMOOTH",
"105 503 OFFCURVE",
"225 716 OFFCURVE",
"453 716 CURVE SMOOTH",
"680 716 OFFCURVE",
"669 506 OFFCURVE",
"669 506 CURVE",
"705 506 LINE",
"705 506 OFFCURVE",
"715 750 OFFCURVE",
"455 750 CURVE SMOOTH",
"202 750 OFFCURVE",
"69 519 OFFCURVE",
"69 312 CURVE SMOOTH",
"69 143 OFFCURVE",
"158 -10 OFFCURVE",
"357 -10 CURVE SMOOTH"
);
},
{
closed = 1;
nodes = (
"618 823 OFFCURVE",
"641 953 OFFCURVE",
"641 953 CURVE",
"609 953 LINE",
"609 953 OFFCURVE",
"586 853 OFFCURVE",
"486 853 CURVE SMOOTH",
"385 853 OFFCURVE",
"405 953 OFFCURVE",
"405 953 CURVE",
"373 953 LINE",
"373 953 OFFCURVE",
"354 823 OFFCURVE",
"486 823 CURVE SMOOTH"
);
}
);
width = 761;
},
{
anchors = (
{
name = bottom;
position = "{321, 0}";
},
{
name = top;
position = "{505, 915}";
}
);
layerId = "DFC78E06-237F-4D33-BFB3-2388B696AEC9";
paths = (
{
closed = 1;
nodes = (
"564 -10 OFFCURVE",
"691 133 OFFCURVE",
"717 330 CURVE SMOOTH",
"724 383 LINE",
"421 383 LINE",
"404 304 LINE",
"654 304 LINE",
"622 359 LINE",
"619 333 LINE SMOOTH",
"603 194 OFFCURVE",
"517 79 OFFCURVE",
"374 79 CURVE SMOOTH",
"225 79 OFFCURVE",
"157 194 OFFCURVE",
"157 323 CURVE SMOOTH",
"157 482 OFFCURVE",
"259 662 OFFCURVE",
"452 662 CURVE SMOOTH",
"639 662 OFFCURVE",
"634 493 OFFCURVE",
"634 493 CURVE",
"732 493 LINE",
"732 493 OFFCURVE",
"738 750 OFFCURVE",
"458 750 CURVE SMOOTH",
"195 750 OFFCURVE",
"58 521 OFFCURVE",
"58 316 CURVE SMOOTH",
"58 143 OFFCURVE",
"157 -10 OFFCURVE",
"366 -10 CURVE SMOOTH"
);
},
{
closed = 1;
nodes = (
"657 815 OFFCURVE",
"676 967 OFFCURVE",
"676 967 CURVE",
"605 967 LINE",
"605 967 OFFCURVE",
"585 879 OFFCURVE",
"497 879 CURVE SMOOTH",
"412 879 OFFCURVE",
"427 967 OFFCURVE",
"427 967 CURVE",
"356 967 LINE",
"356 967 OFFCURVE",
"336 815 OFFCURVE",
"497 815 CURVE SMOOTH"
);
}
);
width = 754;
},
{
anchors = (
{
name = bottom;
position = "{340, 0}";
},
{
name = top;
position = "{533, 957}";
}
);
layerId = "1F0C3569-068D-41D8-99BF-71FC09839D59";
paths = (
{
closed = 1;
nodes = (
"581 -10 OFFCURVE",
"744 92 OFFCURVE",
"777 353 CURVE SMOOTH",
"784 409 LINE",
"432 409 LINE",
"400 261 LINE",
"621 261 LINE",
"584 367 LINE",
"582 346 LINE SMOOTH",
"569 214 OFFCURVE",
"508 161 OFFCURVE",
"413 161 CURVE SMOOTH",
"303 161 OFFCURVE",
"250 243 OFFCURVE",
"250 338 CURVE SMOOTH",
"250 450 OFFCURVE",
"324 580 OFFCURVE",
"465 580 CURVE SMOOTH",
"593 580 OFFCURVE",
"596 473 OFFCURVE",
"596 473 CURVE",
"786 473 LINE",
"786 473 OFFCURVE",
"787 750 OFFCURVE",
"478 750 CURVE SMOOTH",
"199 750 OFFCURVE",
"56 524 OFFCURVE",
"56 323 CURVE SMOOTH",
"56 144 OFFCURVE",
"169 -10 OFFCURVE",
"393 -10 CURVE SMOOTH"
);
},
{
closed = 1;
nodes = (
"715 802 OFFCURVE",
"734 988 OFFCURVE",
"734 988 CURVE",
"615 988 LINE",
"615 988 OFFCURVE",
"596 907 OFFCURVE",
"523 907 CURVE SMOOTH",
"449 907 OFFCURVE",
"465 988 OFFCURVE",
"465 988 CURVE",
"346 988 LINE",
"346 988 OFFCURVE",
"315 802 OFFCURVE",
"515 802 CURVE SMOOTH"
);
}
);
width = 791;
}
);
leftKerningGroup = O;
rightKerningGroup = G;
unicode = 011E;
},
{
glyphname = Gcaron;
lastChange = "2021-03-14 09:41:58 +0000";
layers = (
{
anchors = (
{
name = bottom;
position = "{325, 0}";
},
{
name = top;
position = "{510, 970}";
}
);
layerId = "3EF6EAEC-888F-4BA2-8550-D36A3DFF40E2";
paths = (
{
closed = 1;
nodes = (
"560 -10 OFFCURVE",
"662 157 OFFCURVE",
"686 314 CURVE SMOOTH",
"694 366 LINE",
"423 366 LINE",
"416 333 LINE",
"685 333 LINE",
"657 354 LINE",
"653 325 LINE SMOOTH",
"632 174 OFFCURVE",
"536 24 OFFCURVE",
"357 24 CURVE SMOOTH",
"182 24 OFFCURVE",
"105 161 OFFCURVE",
"105 313 CURVE SMOOTH",
"105 503 OFFCURVE",
"225 716 OFFCURVE",
"453 716 CURVE SMOOTH",
"680 716 OFFCURVE",
"669 506 OFFCURVE",
"669 506 CURVE",
"705 506 LINE",
"705 506 OFFCURVE",
"715 750 OFFCURVE",
"455 750 CURVE SMOOTH",
"202 750 OFFCURVE",
"69 519 OFFCURVE",
"69 312 CURVE SMOOTH",
"69 143 OFFCURVE",
"158 -10 OFFCURVE",
"357 -10 CURVE SMOOTH"
);
},
{
closed = 1;
nodes = (
"491 818 LINE",
"634 970 LINE",
"591 970 LINE",
"464 832 LINE",
"481 832 LINE",
"411 970 LINE",
"375 970 LINE",
"454 818 LINE"
);
}
);
width = 761;
},
{
anchors = (
{
name = bottom;
position = "{321, 0}";
},
{
name = top;
position = "{517, 972}";
}
);
layerId = "DFC78E06-237F-4D33-BFB3-2388B696AEC9";
paths = (
{
closed = 1;
nodes = (
"564 -10 OFFCURVE",
"691 133 OFFCURVE",
"717 330 CURVE SMOOTH",
"724 383 LINE",
"421 383 LINE",
"404 304 LINE",
"654 304 LINE",
"622 359 LINE",
"619 333 LINE SMOOTH",
"603 194 OFFCURVE",
"517 79 OFFCURVE",
"374 79 CURVE SMOOTH",
"225 79 OFFCURVE",
"157 194 OFFCURVE",
"157 323 CURVE SMOOTH",
"157 482 OFFCURVE",
"259 662 OFFCURVE",
"452 662 CURVE SMOOTH",
"639 662 OFFCURVE",
"634 493 OFFCURVE",
"634 493 CURVE",
"732 493 LINE",
"732 493 OFFCURVE",
"738 750 OFFCURVE",
"458 750 CURVE SMOOTH",
"195 750 OFFCURVE",
"58 521 OFFCURVE",
"58 316 CURVE SMOOTH",
"58 143 OFFCURVE",
"157 -10 OFFCURVE",
"366 -10 CURVE SMOOTH"
);
},
{
closed = 1;
nodes = (
"520 815 LINE",
"676 982 LINE",
"584 982 LINE",
"456 842 LINE",
"506 835 LINE",
"433 982 LINE",
"353 982 LINE",
"439 815 LINE"
);
}
);
width = 754;
},
{
anchors = (
{
name = bottom;
position = "{340, 0}";
},
{
name = top;
position = "{539, 989}";
}
);
layerId = "1F0C3569-068D-41D8-99BF-71FC09839D59";
paths = (
{
closed = 1;
nodes = (
"581 -10 OFFCURVE",
"744 92 OFFCURVE",
"777 353 CURVE SMOOTH",
"784 409 LINE",
"432 409 LINE",
"400 261 LINE",
"621 261 LINE",
"584 367 LINE",
"582 346 LINE SMOOTH",
"569 214 OFFCURVE",
"508 161 OFFCURVE",
"413 161 CURVE SMOOTH",
"303 161 OFFCURVE",
"250 243 OFFCURVE",
"250 338 CURVE SMOOTH",
"250 450 OFFCURVE",
"324 580 OFFCURVE",
"465 580 CURVE SMOOTH",
"593 580 OFFCURVE",
"596 473 OFFCURVE",
"596 473 CURVE",
"786 473 LINE",
"786 473 OFFCURVE",
"787 750 OFFCURVE",
"478 750 CURVE SMOOTH",
"199 750 OFFCURVE",
"56 524 OFFCURVE",
"56 323 CURVE SMOOTH",
"56 144 OFFCURVE",
"169 -10 OFFCURVE",
"393 -10 CURVE SMOOTH"
);
},
{
closed = 1;
nodes = (
"577 800 LINE",
"752 989 LINE",
"604 989 LINE",
"484 853 LINE",
"532 846 LINE",
"469 989 LINE",
"335 989 LINE",
"430 800 LINE"
);
}
);
width = 791;
}
);
leftKerningGroup = O;
rightKerningGroup = G;
unicode = 01E6;
},
{
glyphname = Gdotaccent;
lastChange = "2021-03-14 09:41:58 +0000";
layers = (
{
anchors = (
{
name = bottom;
position = "{325, 0}";
},
{
name = top;
position = "{499, 911}";
}
);
layerId = "3EF6EAEC-888F-4BA2-8550-D36A3DFF40E2";
paths = (
{
closed = 1;
nodes = (
"560 -10 OFFCURVE",
"662 157 OFFCURVE",
"686 314 CURVE SMOOTH",
"694 366 LINE",
"423 366 LINE",
"416 333 LINE",
"685 333 LINE",
"657 354 LINE",
"653 325 LINE SMOOTH",
"632 174 OFFCURVE",
"536 24 OFFCURVE",
"357 24 CURVE SMOOTH",
"182 24 OFFCURVE",
"105 161 OFFCURVE",
"105 313 CURVE SMOOTH",
"105 503 OFFCURVE",
"225 716 OFFCURVE",
"453 716 CURVE SMOOTH",
"680 716 OFFCURVE",
"669 506 OFFCURVE",
"669 506 CURVE",
"705 506 LINE",
"705 506 OFFCURVE",
"715 750 OFFCURVE",
"455 750 CURVE SMOOTH",
"202 750 OFFCURVE",
"69 519 OFFCURVE",
"69 312 CURVE SMOOTH",
"69 143 OFFCURVE",
"158 -10 OFFCURVE",
"357 -10 CURVE SMOOTH"
);
},
{
closed = 1;
nodes = (
"510.6 840.25 OFFCURVE",
"526.75 856.4 OFFCURVE",
"526.75 876.35 CURVE SMOOTH",
"526.75 895.35 OFFCURVE",
"510.6 911.5 OFFCURVE",
"490.65 911.5 CURVE SMOOTH",
"470.7 911.5 OFFCURVE",
"455.5 895.35 OFFCURVE",
"455.5 876.35 CURVE SMOOTH",
"455.5 856.4 OFFCURVE",
"470.7 840.25 OFFCURVE",
"490.65 840.25 CURVE SMOOTH"
);
}
);
width = 761;
},
{
anchors = (
{
name = bottom;
position = "{321, 0}";
},
{
name = top;
position = "{515, 959}";
}
);
layerId = "DFC78E06-237F-4D33-BFB3-2388B696AEC9";
paths = (
{
closed = 1;
nodes = (
"564 -10 OFFCURVE",
"691 133 OFFCURVE",
"717 330 CURVE SMOOTH",
"724 383 LINE",
"421 383 LINE",
"404 304 LINE",
"654 304 LINE",
"622 359 LINE",
"619 333 LINE SMOOTH",
"603 194 OFFCURVE",
"517 79 OFFCURVE",
"374 79 CURVE SMOOTH",
"225 79 OFFCURVE",
"157 194 OFFCURVE",
"157 323 CURVE SMOOTH",
"157 482 OFFCURVE",
"259 662 OFFCURVE",
"452 662 CURVE SMOOTH",
"639 662 OFFCURVE",
"634 493 OFFCURVE",
"634 493 CURVE",
"732 493 LINE",
"732 493 OFFCURVE",
"738 750 OFFCURVE",
"458 750 CURVE SMOOTH",
"195 750 OFFCURVE",
"58 521 OFFCURVE",
"58 316 CURVE SMOOTH",
"58 143 OFFCURVE",
"157 -10 OFFCURVE",
"366 -10 CURVE SMOOTH"
);
},
{
closed = 1;
nodes = (
"537 835.5 OFFCURVE",
"563.6 863.05 OFFCURVE",
"563.6 897.25 CURVE SMOOTH",
"563.6 931.45 OFFCURVE",
"537 959 OFFCURVE",
"501.85 959 CURVE SMOOTH",
"465.75 959 OFFCURVE",
"440.1 931.45 OFFCURVE",
"440.1 897.25 CURVE SMOOTH",
"440.1 864 OFFCURVE",
"465.75 835.5 OFFCURVE",
"501.85 835.5 CURVE SMOOTH"
);
}
);
width = 754;
},
{
anchors = (
{
name = bottom;
position = "{340, 0}";
},
{
name = top;
position = "{542, 1000}";
}
);
layerId = "1F0C3569-068D-41D8-99BF-71FC09839D59";
paths = (
{
closed = 1;
nodes = (
"581 -10 OFFCURVE",
"744 92 OFFCURVE",
"777 353 CURVE SMOOTH",
"784 409 LINE",
"432 409 LINE",
"400 261 LINE",
"621 261 LINE",
"584 367 LINE",
"582 346 LINE SMOOTH",
"569 214 OFFCURVE",
"508 161 OFFCURVE",
"413 161 CURVE SMOOTH",
"303 161 OFFCURVE",
"250 243 OFFCURVE",
"250 338 CURVE SMOOTH",
"250 450 OFFCURVE",
"324 580 OFFCURVE",
"465 580 CURVE SMOOTH",
"593 580 OFFCURVE",
"596 473 OFFCURVE",
"596 473 CURVE",
"786 473 LINE",
"786 473 OFFCURVE",
"787 750 OFFCURVE",
"478 750 CURVE SMOOTH",
"199 750 OFFCURVE",
"56 524 OFFCURVE",
"56 323 CURVE SMOOTH",
"56 144 OFFCURVE",
"169 -10 OFFCURVE",
"393 -10 CURVE SMOOTH"
);
},
{
closed = 1;
nodes = (
"583.1 792.5 OFFCURVE",
"629.3 839.75 OFFCURVE",
"629.3 896.45 CURVE SMOOTH",
"629.3 954.2 OFFCURVE",
"583.1 1000.4 OFFCURVE",
"520.4 1000.4 CURVE SMOOTH",
"456.6 1000.4 OFFCURVE",
"411.5 954.2 OFFCURVE",
"411.5 896.45 CURVE SMOOTH",
"411.5 839.75 OFFCURVE",
"456.6 792.5 OFFCURVE",
"520.4 792.5 CURVE SMOOTH"
);
}
);
width = 791;
}
);
leftKerningGroup = O;
rightKerningGroup = G;
unicode = 0120;
},
{
glyphname = Gmacron;
lastChange = "2021-05-04 15:56:24 +0000";
layers = (
{
anchors = (
{
name = bottom;
position = "{325, 0}";
},
{
name = top;
position = "{490, 873}";
}
);
layerId = "3EF6EAEC-888F-4BA2-8550-D36A3DFF40E2";
paths = (
{
closed = 1;
nodes = (
"560 -10 OFFCURVE",
"662 157 OFFCURVE",
"686 314 CURVE SMOOTH",
"694 366 LINE",
"423 366 LINE",
"416 333 LINE",
"685 333 LINE",
"657 354 LINE",
"653 325 LINE SMOOTH",
"632 174 OFFCURVE",
"536 24 OFFCURVE",
"357 24 CURVE SMOOTH",
"182 24 OFFCURVE",
"105 161 OFFCURVE",
"105 313 CURVE SMOOTH",
"105 503 OFFCURVE",
"225 716 OFFCURVE",
"453 716 CURVE SMOOTH",
"680 716 OFFCURVE",
"669 506 OFFCURVE",
"669 506 CURVE",
"705 506 LINE",
"705 506 OFFCURVE",
"715 750 OFFCURVE",
"455 750 CURVE SMOOTH",
"202 750 OFFCURVE",
"69 519 OFFCURVE",
"69 312 CURVE SMOOTH",
"69 143 OFFCURVE",
"158 -10 OFFCURVE",
"357 -10 CURVE SMOOTH"
);
},
{
closed = 1;
nodes = (
"624 843 LINE",
"630 873 LINE",
"350 873 LINE",
"344 843 LINE"
);
}
);
width = 761;
},
{
anchors = (
{
name = bottom;
position = "{321, 0}";
},
{
name = top;
position = "{507, 923}";
}
);
layerId = "DFC78E06-237F-4D33-BFB3-2388B696AEC9";
paths = (
{
closed = 1;
nodes = (
"564 -10 OFFCURVE",
"691 133 OFFCURVE",
"717 330 CURVE SMOOTH",
"724 383 LINE",
"421 383 LINE",
"404 304 LINE",
"654 304 LINE",
"622 359 LINE",
"619 333 LINE SMOOTH",
"603 194 OFFCURVE",
"517 79 OFFCURVE",
"374 79 CURVE SMOOTH",
"225 79 OFFCURVE",
"157 194 OFFCURVE",
"157 323 CURVE SMOOTH",
"157 482 OFFCURVE",
"259 662 OFFCURVE",
"452 662 CURVE SMOOTH",
"639 662 OFFCURVE",
"634 493 OFFCURVE",
"634 493 CURVE",
"732 493 LINE",
"732 493 OFFCURVE",
"738 750 OFFCURVE",
"458 750 CURVE SMOOTH",
"195 750 OFFCURVE",
"58 521 OFFCURVE",
"58 316 CURVE SMOOTH",
"58 143 OFFCURVE",
"157 -10 OFFCURVE",
"366 -10 CURVE SMOOTH"
);
},
{
closed = 1;
nodes = (
"643 851 LINE",
"659 923 LINE",
"355 923 LINE",
"339 851 LINE"
);
}
);
width = 754;
},
{
anchors = (
{
name = bottom;
position = "{340, 0}";
},
{
name = top;
position = "{535, 965}";
}
);
layerId = "1F0C3569-068D-41D8-99BF-71FC09839D59";
paths = (
{
closed = 1;
nodes = (
"581 -10 OFFCURVE",
"744 92 OFFCURVE",
"777 353 CURVE SMOOTH",
"784 409 LINE",
"432 409 LINE",
"400 261 LINE",
"621 261 LINE",
"584 367 LINE",
"582 346 LINE SMOOTH",
"569 214 OFFCURVE",
"508 161 OFFCURVE",
"413 161 CURVE SMOOTH",
"303 161 OFFCURVE",
"250 243 OFFCURVE",
"250 338 CURVE SMOOTH",
"250 450 OFFCURVE",
"324 580 OFFCURVE",
"465 580 CURVE SMOOTH",
"593 580 OFFCURVE",
"596 473 OFFCURVE",
"596 473 CURVE",
"786 473 LINE",
"786 473 OFFCURVE",
"787 750 OFFCURVE",
"478 750 CURVE SMOOTH",
"199 750 OFFCURVE",
"56 524 OFFCURVE",
"56 323 CURVE SMOOTH",
"56 144 OFFCURVE",
"169 -10 OFFCURVE",
"393 -10 CURVE SMOOTH"
);
},
{
closed = 1;
nodes = (
"673 823 LINE",
"695 925 LINE",
"355 925 LINE",
"333 823 LINE"
);
}
);
width = 791;
}
);
leftKerningGroup = O;
rightKerningGroup = G;
unicode = 1E20;
},
{
glyphname = H;
lastChange = "2021-05-14 08:51:38 +0000";
layers = (
{
anchors = (
{
name = bottom;
position = "{493, 0}";
},
{
name = ogonek;
position = "{510, 0}";
},
{
name = top;
position = "{650, 740}";
},
{
name = topleft;
position = "{560, 740}";
}
);
layerId = "3EF6EAEC-888F-4BA2-8550-D36A3DFF40E2";
paths = (
{
closed = 1;
nodes = (
"69 0 LINE",
"226 740 LINE",
"191 740 LINE",
"34 0 LINE"
);
},
{
closed = 1;
nodes = (
"510 0 LINE",
"667 740 LINE",
"632 740 LINE",
"475 0 LINE"
);
},
{
closed = 1;
nodes = (
"560.946 374 LINE",
"560.946 406 LINE",
"137.983 406 LINE",
"137.983 374 LINE"
);
}
);
width = 655;
},
{
anchors = (
{
name = bottom;
position = "{519, 0}";
},
{
name = ogonek;
position = "{568, 0}";
},
{
name = top;
position = "{668, 700}";
},
{
name = topleft;
position = "{564, 700}";
}
);
layerId = "DFC78E06-237F-4D33-BFB3-2388B696AEC9";
paths = (
{
closed = 1;
nodes = (
"127 0 LINE",
"284 740 LINE",
"186 740 LINE",
"29 0 LINE"
);
},
{
closed = 1;
nodes = (
"568 0 LINE",
"725 740 LINE",
"627 740 LINE",
"470 0 LINE"
);
},
{
closed = 1;
nodes = (
"577.32 331 LINE",
"577.32 419 LINE",
"130.735 419 LINE",
"130.735 331 LINE"
);
}
);
width = 706;
},
{
anchors = (
{
name = bottom;
position = "{544, 0}";
},
{
name = ogonek;
position = "{640, 0}";
},
{
name = top;
position = "{700, 736}";
},
{
name = topleft;
position = "{574, 736}";
}
);
layerId = "1F0C3569-068D-41D8-99BF-71FC09839D59";
paths = (
{
closed = 1;
nodes = (
"194 0 LINE",
"351 740 LINE",
"159 740 LINE",
"2 0 LINE"
);
},
{
closed = 1;
nodes = (
"640 0 LINE",
"797 740 LINE",
"605 740 LINE",
"448 0 LINE"
);
},
{
closed = 1;
nodes = (
"606 298 LINE",
"606 462 LINE",
"178 462 LINE",
"178 298 LINE"
);
}
);
width = 757;
}
);
leftKerningGroup = l;
leftMetricsKey = l;
rightKerningGroup = l;
rightMetricsKey = l;
unicode = 0048;
},
{
glyphname = Hbar;
lastChange = "2021-05-14 08:51:38 +0000";
layers = (
{
anchors = (
{
name = bottom;
position = "{549, 0}";
},
{
name = ogonek;
position = "{566, 0}";
},
{
name = top;
position = "{706, 740}";
},
{
name = topleft;
position = "{616, 740}";
}
);
layerId = "3EF6EAEC-888F-4BA2-8550-D36A3DFF40E2";
paths = (
{
closed = 1;
nodes = (
"794 622 LINE",
"800 654 LINE",
"123 654 LINE",
"117 622 LINE"
);
},
{
closed = 1;
nodes = (
"125 0 LINE",
"282 740 LINE",
"247 740 LINE",
"90 0 LINE"
);
},
{
closed = 1;
nodes = (
"566 0 LINE",
"723 740 LINE",
"688 740 LINE",
"531 0 LINE"
);
},
{
closed = 1;
nodes = (
"617 374 LINE",
"617 406 LINE",
"194 406 LINE",
"194 374 LINE"
);
}
);
width = 757;
},
{
anchors = (
{
name = bottom;
position = "{546, 0}";
},
{
name = ogonek;
position = "{595, 0}";
},
{
name = top;
position = "{695, 700}";
},
{
name = topleft;
position = "{591, 700}";
}
);
layerId = "DFC78E06-237F-4D33-BFB3-2388B696AEC9";
paths = (
{
closed = 1;
nodes = (
"816 579 LINE",
"835 667 LINE",
"120 667 LINE",
"102 579 LINE"
);
},
{
closed = 1;
nodes = (
"154 0 LINE",
"311 740 LINE",
"213 740 LINE",
"56 0 LINE"
);
},
{
closed = 1;
nodes = (
"595 0 LINE",
"752 740 LINE",
"654 740 LINE",
"497 0 LINE"
);
},
{
closed = 1;
nodes = (
"604 331 LINE",
"604 419 LINE",
"158 419 LINE",
"158 331 LINE"
);
}
);
width = 782;
},
{
anchors = (
{
name = bottom;
position = "{564, 0}";
},
{
name = ogonek;
position = "{660, 0}";
},
{
name = top;
position = "{720, 736}";
},
{
name = topleft;
position = "{594, 736}";
}
);
layerId = "1F0C3569-068D-41D8-99BF-71FC09839D59";
paths = (
{
closed = 1;
nodes = (
"835 527 LINE",
"863 658 LINE",
"92 658 LINE",
"64 527 LINE"
);
},
{
closed = 1;
nodes = (
"214 0 LINE",
"371 740 LINE",
"179 740 LINE",
"22 0 LINE"
);
},
{
closed = 1;
nodes = (
"660 0 LINE",
"817 740 LINE",
"625 740 LINE",
"468 0 LINE"
);
},
{
closed = 1;
nodes = (
"626 298 LINE",
"626 462 LINE",
"198 462 LINE",
"198 298 LINE"
);
}
);
width = 790;
}
);
leftMetricsKey = "=l-50";
rightMetricsKey = "=l-50";
unicode = 0126;
},
{
glyphname = I;
lastChange = "2021-05-14 08:51:20 +0000";
layers = (
{
anchors = (
{
name = bottom;
position = "{52, 0}";
},
{
name = ogonek;
position = "{69, 0}";
},
{
name = top;
position = "{209, 740}";
},
{
name = topleft;
position = "{119, 740}";
}
);
layerId = "3EF6EAEC-888F-4BA2-8550-D36A3DFF40E2";
paths = (
{
closed = 1;
nodes = (
"69 0 LINE",
"226 740 LINE",
"191 740 LINE",
"34 0 LINE"
);
}
);
width = 214;
},
{
anchors = (
{
name = bottom;
position = "{78, 0}";
},
{
name = ogonek;
position = "{127, 0}";
},
{
name = top;
position = "{227, 700}";
},
{
name = topleft;
position = "{123, 700}";
}
);
guideLines = (
{
angle = 258.0216;
position = "{108, 370}";
}
);
layerId = "DFC78E06-237F-4D33-BFB3-2388B696AEC9";
paths = (
{
closed = 1;
nodes = (
"127 0 LINE",
"284 740 LINE",
"186 740 LINE",
"29 0 LINE"
);
}
);
width = 265;
},
{
anchors = (
{
name = bottom;
position = "{98, 0}";
},
{
name = ogonek;
position = "{194, 0}";
},
{
name = top;
position = "{254, 736}";
},
{
name = topleft;
position = "{128, 736}";
}
);
layerId = "1F0C3569-068D-41D8-99BF-71FC09839D59";
paths = (
{
closed = 1;
nodes = (
"194 0 LINE",
"351 740 LINE",
"159 740 LINE",
"2 0 LINE"
);
}
);
width = 311;
}
);
leftKerningGroup = l;
leftMetricsKey = l;
rightKerningGroup = l;
rightMetricsKey = l;
unicode = 0049;
},
{
glyphname = Iacute;
lastChange = "2021-03-14 09:41:58 +0000";
layers = (
{
anchors = (
{
name = bottom;
position = "{52, 0}";
},
{
name = ogonek;
position = "{69, 0}";
},
{
name = top;
position = "{292, 980}";
},
{
name = topleft;
position = "{119, 740}";
}
);
layerId = "3EF6EAEC-888F-4BA2-8550-D36A3DFF40E2";
paths = (
{
closed = 1;
nodes = (
"69 0 LINE",
"226 740 LINE",
"191 740 LINE",
"34 0 LINE"
);
},
{
closed = 1;
nodes = (
"319 980 LINE",
"282 980 LINE",
"209 828 LINE",
"239 828 LINE"
);
}
);
width = 214;
},
{
anchors = (
{
name = bottom;
position = "{78, 0}";
},
{
name = ogonek;
position = "{127, 0}";
},
{
name = top;
position = "{325, 961}";
},
{
name = topleft;
position = "{123, 700}";
}
);
layerId = "DFC78E06-237F-4D33-BFB3-2388B696AEC9";
paths = (
{
closed = 1;
nodes = (
"127 0 LINE",
"284 740 LINE",
"186 740 LINE",
"29 0 LINE"
);
},
{
closed = 1;
nodes = (
"400 961 LINE",
"305 961 LINE",
"212 781 LINE",
"290 780 LINE"
);
}
);
width = 265;
},
{
anchors = (
{
name = bottom;
position = "{98, 0}";
},
{
name = ogonek;
position = "{194, 0}";
},
{
name = top;
position = "{355, 985}";
},
{
name = topleft;
position = "{128, 736}";
}
);
layerId = "1F0C3569-068D-41D8-99BF-71FC09839D59";
paths = (
{
closed = 1;
nodes = (
"194 0 LINE",
"351 740 LINE",
"159 740 LINE",
"2 0 LINE"
);
},
{
closed = 1;
nodes = (
"459 985 LINE",
"289 985 LINE",
"212 806 LINE",
"345 805 LINE"
);
}
);
width = 311;
}
);
leftKerningGroup = l;
rightKerningGroup = l;
unicode = 00CD;
},
{
glyphname = Icircumflex;
lastChange = "2021-03-14 09:41:58 +0000";
layers = (
{
anchors = (
{
name = bottom;
position = "{52, 0}";
},
{
name = ogonek;
position = "{69, 0}";
},
{
name = top;
position = "{367, 859}";
},
{
name = topleft;
position = "{119, 740}";
}
);
layerId = "3EF6EAEC-888F-4BA2-8550-D36A3DFF40E2";
paths = (
{
closed = 1;
nodes = (
"69 0 LINE",
"226 740 LINE",
"191 740 LINE",
"34 0 LINE"
);
},
{
closed = 1;
nodes = (
"140 818 LINE",
"256 944 LINE",
"320 818 LINE",
"356 818 LINE",
"277 970 LINE",
"240 970 LINE",
"97 818 LINE"
);
}
);
width = 214;
},
{
anchors = (
{
name = bottom;
position = "{78, 0}";
},
{
name = ogonek;
position = "{127, 0}";
},
{
name = top;
position = "{408, 834}";
},
{
name = topleft;
position = "{123, 700}";
}
);
layerId = "DFC78E06-237F-4D33-BFB3-2388B696AEC9";
paths = (
{
closed = 1;
nodes = (
"127 0 LINE",
"284 740 LINE",
"186 740 LINE",
"29 0 LINE"
);
},
{
closed = 1;
nodes = (
"174 776 LINE",
"272 883 LINE",
"325 776 LINE",
"405 776 LINE",
"319 943 LINE",
"238 943 LINE",
"82 776 LINE"
);
}
);
width = 265;
},
{
anchors = (
{
name = bottom;
position = "{98, 0}";
},
{
name = ogonek;
position = "{194, 0}";
},
{
name = top;
position = "{489, 886}";
},
{
name = topleft;
position = "{128, 736}";
}
);
layerId = "1F0C3569-068D-41D8-99BF-71FC09839D59";
paths = (
{
closed = 1;
nodes = (
"194 0 LINE",
"351 740 LINE",
"159 740 LINE",
"2 0 LINE"
);
},
{
closed = 1;
nodes = (
"206 795 LINE",
"296 897 LINE",
"341 795 LINE",
"475 795 LINE",
"380 984 LINE",
"233 984 LINE",
"58 795 LINE"
);
}
);
width = 311;
}
);
leftKerningGroup = l;
rightKerningGroup = l;
unicode = 00CE;
},
{
glyphname = Idieresis;
lastChange = "2021-03-14 09:41:58 +0000";
layers = (
{
anchors = (
{
name = bottom;
position = "{52, 0}";
},
{
name = ogonek;
position = "{69, 0}";
},
{
name = top;
position = "{245, 912}";
},
{
name = topleft;
position = "{119, 740}";
}
);
layerId = "3EF6EAEC-888F-4BA2-8550-D36A3DFF40E2";
paths = (
{
closed = 1;
nodes = (
"69 0 LINE",
"226 740 LINE",
"191 740 LINE",
"34 0 LINE"
);
},
{
closed = 1;
nodes = (
"326.6 840.25 OFFCURVE",
"342.75 856.4 OFFCURVE",
"342.75 876.35 CURVE SMOOTH",
"342.75 895.35 OFFCURVE",
"326.6 911.5 OFFCURVE",
"306.65 911.5 CURVE SMOOTH",
"286.7 911.5 OFFCURVE",
"271.5 895.35 OFFCURVE",
"271.5 876.35 CURVE SMOOTH",
"271.5 856.4 OFFCURVE",
"286.7 840.25 OFFCURVE",
"306.65 840.25 CURVE SMOOTH"
);
},
{
closed = 1;
nodes = (
"187.6 840.25 OFFCURVE",
"203.75 856.4 OFFCURVE",
"203.75 876.35 CURVE SMOOTH",
"203.75 895.35 OFFCURVE",
"187.6 911.5 OFFCURVE",
"167.65 911.5 CURVE SMOOTH",
"147.7 911.5 OFFCURVE",
"132.5 895.35 OFFCURVE",
"132.5 876.35 CURVE SMOOTH",
"132.5 856.4 OFFCURVE",
"147.7 840.25 OFFCURVE",
"167.65 840.25 CURVE SMOOTH"
);
}
);
width = 214;
},
{
anchors = (
{
name = bottom;
position = "{78, 0}";
},
{
name = ogonek;
position = "{127, 0}";
},
{
name = top;
position = "{270, 904}";
},
{
name = topleft;
position = "{123, 700}";
}
);
layerId = "DFC78E06-237F-4D33-BFB3-2388B696AEC9";
paths = (
{
closed = 1;
nodes = (
"127 0 LINE",
"284 740 LINE",
"186 740 LINE",
"29 0 LINE"
);
},
{
closed = 1;
nodes = (
"387 780.5 OFFCURVE",
"413.6 808.05 OFFCURVE",
"413.6 842.25 CURVE SMOOTH",
"413.6 876.45 OFFCURVE",
"387 904 OFFCURVE",
"351.85 904 CURVE SMOOTH",
"315.75 904 OFFCURVE",
"290.1 876.45 OFFCURVE",
"290.1 842.25 CURVE SMOOTH",
"290.1 809 OFFCURVE",
"315.75 780.5 OFFCURVE",
"351.85 780.5 CURVE SMOOTH"
);
},
{
closed = 1;
nodes = (
"197 780.5 OFFCURVE",
"223.6 808.05 OFFCURVE",
"223.6 842.25 CURVE SMOOTH",
"223.6 876.45 OFFCURVE",
"197 904 OFFCURVE",
"161.85 904 CURVE SMOOTH",
"125.75 904 OFFCURVE",
"100.1 876.45 OFFCURVE",
"100.1 842.25 CURVE SMOOTH",
"100.1 809 OFFCURVE",
"125.75 780.5 OFFCURVE",
"161.85 780.5 CURVE SMOOTH"
);
}
);
width = 265;
},
{
anchors = (
{
name = bottom;
position = "{98, 0}";
},
{
name = ogonek;
position = "{194, 0}";
},
{
name = top;
position = "{306, 979}";
},
{
name = topleft;
position = "{128, 736}";
}
);
layerId = "1F0C3569-068D-41D8-99BF-71FC09839D59";
paths = (
{
closed = 1;
nodes = (
"194 0 LINE",
"351 740 LINE",
"159 740 LINE",
"2 0 LINE"
);
},
{
closed = 1;
nodes = (
"468.994 783.55 OFFCURVE",
"512.422 827.965 OFFCURVE",
"512.422 881.263 CURVE SMOOTH",
"512.422 935.548 OFFCURVE",
"468.994 978.976 OFFCURVE",
"410.056 978.976 CURVE SMOOTH",
"350.084 978.976 OFFCURVE",
"307.69 935.548 OFFCURVE",
"307.69 881.263 CURVE SMOOTH",
"307.69 827.965 OFFCURVE",
"350.084 783.55 OFFCURVE",
"410.056 783.55 CURVE SMOOTH"
);
},
{
closed = 1;
nodes = (
"218.994 783.55 OFFCURVE",
"262.422 827.965 OFFCURVE",
"262.422 881.263 CURVE SMOOTH",
"262.422 935.548 OFFCURVE",
"218.994 978.976 OFFCURVE",
"160.056 978.976 CURVE SMOOTH",
"100.084 978.976 OFFCURVE",
"57.69 935.548 OFFCURVE",
"57.69 881.263 CURVE SMOOTH",
"57.69 827.965 OFFCURVE",
"100.084 783.55 OFFCURVE",
"160.056 783.55 CURVE SMOOTH"
);
}
);
width = 311;
}
);
leftKerningGroup = l;
rightKerningGroup = l;
unicode = 00CF;
},
{
glyphname = Idotaccent;
lastChange = "2021-03-14 09:41:58 +0000";
layers = (
{
anchors = (
{
name = bottom;
position = "{52, 0}";
},
{
name = ogonek;
position = "{69, 0}";
},
{
name = top;
position = "{246, 911}";
},
{
name = topleft;
position = "{119, 740}";
}
);
layerId = "3EF6EAEC-888F-4BA2-8550-D36A3DFF40E2";
paths = (
{
closed = 1;
nodes = (
"69 0 LINE",
"226 740 LINE",
"191 740 LINE",
"34 0 LINE"
);
},
{
closed = 1;
nodes = (
"257.6 840.25 OFFCURVE",
"273.75 856.4 OFFCURVE",
"273.75 876.35 CURVE SMOOTH",
"273.75 895.35 OFFCURVE",
"257.6 911.5 OFFCURVE",
"237.65 911.5 CURVE SMOOTH",
"217.7 911.5 OFFCURVE",
"202.5 895.35 OFFCURVE",
"202.5 876.35 CURVE SMOOTH",
"202.5 856.4 OFFCURVE",
"217.7 840.25 OFFCURVE",
"237.65 840.25 CURVE SMOOTH"
);
}
);
width = 214;
},
{
anchors = (
{
name = bottom;
position = "{78, 0}";
},
{
name = ogonek;
position = "{127, 0}";
},
{
name = top;
position = "{274, 919}";
},
{
name = topleft;
position = "{123, 700}";
}
);
layerId = "DFC78E06-237F-4D33-BFB3-2388B696AEC9";
paths = (
{
closed = 1;
nodes = (
"127 0 LINE",
"284 740 LINE",
"186 740 LINE",
"29 0 LINE"
);
},
{
closed = 1;
nodes = (
"296 795.5 OFFCURVE",
"322.6 823.05 OFFCURVE",
"322.6 857.25 CURVE SMOOTH",
"322.6 891.45 OFFCURVE",
"296 919 OFFCURVE",
"260.85 919 CURVE SMOOTH",
"224.75 919 OFFCURVE",
"199.1 891.45 OFFCURVE",
"199.1 857.25 CURVE SMOOTH",
"199.1 824 OFFCURVE",
"224.75 795.5 OFFCURVE",
"260.85 795.5 CURVE SMOOTH"
);
}
);
width = 265;
},
{
anchors = (
{
name = bottom;
position = "{98, 0}";
},
{
name = ogonek;
position = "{194, 0}";
},
{
name = top;
position = "{309, 996}";
},
{
name = topleft;
position = "{128, 736}";
}
);
layerId = "1F0C3569-068D-41D8-99BF-71FC09839D59";
paths = (
{
closed = 1;
nodes = (
"194 0 LINE",
"351 740 LINE",
"159 740 LINE",
"2 0 LINE"
);
},
{
closed = 1;
nodes = (
"350.1 788.5 OFFCURVE",
"396.3 835.75 OFFCURVE",
"396.3 892.45 CURVE SMOOTH",
"396.3 950.2 OFFCURVE",
"350.1 996.4 OFFCURVE",
"287.4 996.4 CURVE SMOOTH",
"223.6 996.4 OFFCURVE",
"178.5 950.2 OFFCURVE",
"178.5 892.45 CURVE SMOOTH",
"178.5 835.75 OFFCURVE",
"223.6 788.5 OFFCURVE",
"287.4 788.5 CURVE SMOOTH"
);
}
);
width = 311;
}
);
leftKerningGroup = l;
rightKerningGroup = l;
unicode = 0130;
},
{
glyphname = Idotbelow;
lastChange = "2021-03-14 09:41:58 +0000";
layers = (
{
anchors = (
{
name = bottom;
position = "{11, -192}";
},
{
name = ogonek;
position = "{69, 0}";
},
{
name = top;
position = "{209, 740}";
},
{
name = topleft;
position = "{119, 740}";
}
);
layerId = "3EF6EAEC-888F-4BA2-8550-D36A3DFF40E2";
paths = (
{
closed = 1;
nodes = (
"69 0 LINE",
"226 740 LINE",
"191 740 LINE",
"34 0 LINE"
);
},
{
closed = 1;
nodes = (
"40 -192 OFFCURVE",
"57 -175 OFFCURVE",
"57 -154 CURVE SMOOTH",
"57 -134 OFFCURVE",
"40 -117 OFFCURVE",
"19 -117 CURVE SMOOTH",
"-2 -117 OFFCURVE",
"-18 -134 OFFCURVE",
"-18 -154 CURVE SMOOTH",
"-18 -175 OFFCURVE",
"-2 -192 OFFCURVE",
"19 -192 CURVE SMOOTH"
);
}
);
width = 214;
},
{
anchors = (
{
name = bottom;
position = "{30, -227}";
},
{
name = ogonek;
position = "{127, 0}";
},
{
name = top;
position = "{227, 700}";
},
{
name = topleft;
position = "{123, 700}";
}
);
layerId = "DFC78E06-237F-4D33-BFB3-2388B696AEC9";
paths = (
{
closed = 1;
nodes = (
"127 0 LINE",
"284 740 LINE",
"186 740 LINE",
"29 0 LINE"
);
},
{
closed = 1;
nodes = (
"81 -227 OFFCURVE",
"109 -198 OFFCURVE",
"109 -162 CURVE SMOOTH",
"109 -126 OFFCURVE",
"81 -97 OFFCURVE",
"44 -97 CURVE SMOOTH",
"6 -97 OFFCURVE",
"-21 -126 OFFCURVE",
"-21 -162 CURVE SMOOTH",
"-21 -197 OFFCURVE",
"6 -227 OFFCURVE",
"44 -227 CURVE SMOOTH"
);
}
);
width = 265;
},
{
anchors = (
{
name = bottom;
position = "{43, -260}";
},
{
name = ogonek;
position = "{194, 0}";
},
{
name = top;
position = "{254, 736}";
},
{
name = topleft;
position = "{128, 736}";
}
);
layerId = "1F0C3569-068D-41D8-99BF-71FC09839D59";
paths = (
{
closed = 1;
nodes = (
"194 0 LINE",
"351 740 LINE",
"159 740 LINE",
"2 0 LINE"
);
},
{
closed = 1;
nodes = (
"112.9 -260 OFFCURVE",
"150.7 -219.5 OFFCURVE",
"150.7 -170.9 CURVE SMOOTH",
"150.7 -121.4 OFFCURVE",
"112.9 -81.8 OFFCURVE",
"61.6 -81.8 CURVE SMOOTH",
"9.4 -81.8 OFFCURVE",
"-27.5 -121.4 OFFCURVE",
"-27.5 -170.9 CURVE SMOOTH",
"-27.5 -219.5 OFFCURVE",
"9.4 -260 OFFCURVE",
"61.6 -260 CURVE SMOOTH"
);
}
);
width = 311;
}
);
leftKerningGroup = l;
rightKerningGroup = l;
unicode = 1ECA;
},
{
glyphname = Igrave;
lastChange = "2021-03-14 09:41:58 +0000";
layers = (
{
anchors = (
{
name = bottom;
position = "{52, 0}";
},
{
name = ogonek;
position = "{69, 0}";
},
{
name = top;
position = "{209, 980}";
},
{
name = topleft;
position = "{119, 740}";
}
);
layerId = "3EF6EAEC-888F-4BA2-8550-D36A3DFF40E2";
paths = (
{
closed = 1;
nodes = (
"69 0 LINE",
"226 740 LINE",
"191 740 LINE",
"34 0 LINE"
);
},
{
closed = 1;
nodes = (
"237 828 LINE",
"184 980 LINE",
"148 980 LINE",
"208 828 LINE"
);
}
);
width = 214;
},
{
anchors = (
{
name = bottom;
position = "{78, 0}";
},
{
name = ogonek;
position = "{127, 0}";
},
{
name = top;
position = "{174, 969}";
},
{
name = topleft;
position = "{123, 700}";
}
);
layerId = "DFC78E06-237F-4D33-BFB3-2388B696AEC9";
paths = (
{
closed = 1;
nodes = (
"127 0 LINE",
"284 740 LINE",
"186 740 LINE",
"29 0 LINE"
);
},
{
closed = 1;
nodes = (
"272 781 LINE",
"206 961 LINE",
"113 961 LINE",
"196 780 LINE"
);
}
);
width = 265;
},
{
anchors = (
{
name = bottom;
position = "{98, 0}";
},
{
name = ogonek;
position = "{194, 0}";
},
{
name = top;
position = "{180, 1046}";
},
{
name = topleft;
position = "{128, 736}";
}
);
layerId = "1F0C3569-068D-41D8-99BF-71FC09839D59";
paths = (
{
closed = 1;
nodes = (
"194 0 LINE",
"351 740 LINE",
"159 740 LINE",
"2 0 LINE"
);
},
{
closed = 1;
nodes = (
"323 806 LINE",
"256 985 LINE",
"91 985 LINE",
"195 805 LINE"
);
}
);
width = 311;
}
);
leftKerningGroup = l;
rightKerningGroup = l;
unicode = 00CC;
},
{
glyphname = Ihookabove;
lastChange = "2021-03-14 09:41:58 +0000";
layers = (
{
anchors = (
{
name = bottom;
position = "{52, 0}";
},
{
name = ogonek;
position = "{69, 0}";
},
{
name = top;
position = "{265, 1005}";
},
{
name = topleft;
position = "{119, 740}";
}
);
layerId = "3EF6EAEC-888F-4BA2-8550-D36A3DFF40E2";
paths = (
{
closed = 1;
nodes = (
"69 0 LINE",
"226 740 LINE",
"191 740 LINE",
"34 0 LINE"
);
},
{
closed = 1;
nodes = (
"231 814 LINE",
"242 865 LINE",
"213 836 LINE",
"239 847 LINE SMOOTH",
"298 872 OFFCURVE",
"331 899 OFFCURVE",
"331 938 CURVE SMOOTH",
"331 972 OFFCURVE",
"308 1005 OFFCURVE",
"256 1005 CURVE SMOOTH",
"174 1005 OFFCURVE",
"168 928 OFFCURVE",
"168 928 CURVE",
"197 928 LINE",
"197 928 OFFCURVE",
"200 977 OFFCURVE",
"254 977 CURVE SMOOTH",
"287 977 OFFCURVE",
"301 957 OFFCURVE",
"301 938 CURVE SMOOTH",
"301 911 OFFCURVE",
"280 891 OFFCURVE",
"241 874 CURVE SMOOTH",
"227 868 LINE SMOOTH",
"218 864 OFFCURVE",
"212 856 OFFCURVE",
"210 846 CURVE SMOOTH",
"203 814 LINE"
);
}
);
width = 214;
},
{
anchors = (
{
name = bottom;
position = "{78, 0}";
},
{
name = ogonek;
position = "{127, 0}";
},
{
name = top;
position = "{287, 981}";
},
{
name = topleft;
position = "{123, 700}";
}
);
layerId = "DFC78E06-237F-4D33-BFB3-2388B696AEC9";
paths = (
{
closed = 1;
nodes = (
"127 0 LINE",
"284 740 LINE",
"186 740 LINE",
"29 0 LINE"
);
},
{
closed = 1;
nodes = (
"268 766 LINE",
"281 825 LINE",
"239 782 LINE",
"266 793 LINE SMOOTH",
"326 817 OFFCURVE",
"373 845 OFFCURVE",
"373 895 CURVE SMOOTH",
"373 937 OFFCURVE",
"342 981 OFFCURVE",
"271 981 CURVE SMOOTH",
"168 981 OFFCURVE",
"162 886 OFFCURVE",
"162 886 CURVE",
"220 886 LINE",
"220 886 OFFCURVE",
"222 929 OFFCURVE",
"270 929 CURVE SMOOTH",
"298 929 OFFCURVE",
"311 912 OFFCURVE",
"311 895 CURVE SMOOTH",
"311 872 OFFCURVE",
"291 855 OFFCURVE",
"254 838 CURVE SMOOTH",
"239 831 LINE SMOOTH",
"226 825 OFFCURVE",
"216 814 OFFCURVE",
"213 799 CURVE SMOOTH",
"206 766 LINE"
);
}
);
width = 265;
},
{
anchors = (
{
name = bottom;
position = "{98, 0}";
},
{
name = ogonek;
position = "{194, 0}";
},
{
name = top;
position = "{319, 1042}";
},
{
name = topleft;
position = "{128, 736}";
}
);
layerId = "1F0C3569-068D-41D8-99BF-71FC09839D59";
paths = (
{
closed = 1;
nodes = (
"194 0 LINE",
"351 740 LINE",
"159 740 LINE",
"2 0 LINE"
);
},
{
closed = 1;
nodes = (
"313 791 LINE",
"329 862 LINE",
"277 797 LINE",
"325 821 LINE SMOOTH",
"355 836 OFFCURVE",
"436 867 OFFCURVE",
"436 939 CURVE SMOOTH",
"436 993 OFFCURVE",
"389 1042 OFFCURVE",
"306 1042 CURVE SMOOTH",
"156 1042 OFFCURVE",
"153 918 OFFCURVE",
"153 918 CURVE",
"254 918 LINE",
"254 918 OFFCURVE",
"256 953 OFFCURVE",
"294 953 CURVE SMOOTH",
"314 953 OFFCURVE",
"325 941 OFFCURVE",
"325 926 CURVE SMOOTH",
"325 908 OFFCURVE",
"310 895 OFFCURVE",
"274 879 CURVE SMOOTH",
"256 871 LINE SMOOTH",
"232 860 OFFCURVE",
"222 843 OFFCURVE",
"218 824 CURVE SMOOTH",
"211 791 LINE"
);
}
);
width = 311;
}
);
leftKerningGroup = l;
rightKerningGroup = l;
unicode = 1EC8;
},
{
glyphname = Imacron;
lastChange = "2021-05-04 15:56:47 +0000";
layers = (
{
anchors = (
{
name = bottom;
position = "{52, 0}";
},
{
name = ogonek;
position = "{69, 0}";
},
{
name = top;
position = "{237, 873}";
},
{
name = topleft;
position = "{119, 740}";
}
);
layerId = "3EF6EAEC-888F-4BA2-8550-D36A3DFF40E2";
paths = (
{
closed = 1;
nodes = (
"69 0 LINE",
"226 740 LINE",
"191 740 LINE",
"34 0 LINE"
);
},
{
closed = 1;
nodes = (
"371 843 LINE",
"377 873 LINE",
"97 873 LINE",
"91 843 LINE"
);
}
);
width = 214;
},
{
anchors = (
{
name = bottom;
position = "{78, 0}";
},
{
name = ogonek;
position = "{127, 0}";
},
{
name = top;
position = "{266, 883}";
},
{
name = topleft;
position = "{123, 700}";
}
);
layerId = "DFC78E06-237F-4D33-BFB3-2388B696AEC9";
paths = (
{
closed = 1;
nodes = (
"127 0 LINE",
"284 740 LINE",
"186 740 LINE",
"29 0 LINE"
);
},
{
closed = 1;
nodes = (
"402 811 LINE",
"418 883 LINE",
"114 883 LINE",
"98 811 LINE"
);
}
);
width = 265;
},
{
anchors = (
{
name = bottom;
position = "{98, 0}";
},
{
name = ogonek;
position = "{194, 0}";
},
{
name = top;
position = "{302, 961}";
},
{
name = topleft;
position = "{128, 736}";
}
);
layerId = "1F0C3569-068D-41D8-99BF-71FC09839D59";
paths = (
{
closed = 1;
nodes = (
"194 0 LINE",
"351 740 LINE",
"159 740 LINE",
"2 0 LINE"
);
},
{
closed = 1;
nodes = (
"440 819 LINE",
"462 921 LINE",
"122 921 LINE",
"100 819 LINE"
);
}
);
width = 311;
}
);
leftKerningGroup = l;
rightKerningGroup = l;
unicode = 012A;
},
{
glyphname = Iogonek;
lastChange = "2021-03-14 09:41:58 +0000";
layers = (
{
anchors = (
{
name = bottom;
position = "{52, 0}";
},
{
name = ogonek;
position = "{69, 0}";
},
{
name = top;
position = "{209, 740}";
},
{
name = topleft;
position = "{119, 740}";
}
);
layerId = "3EF6EAEC-888F-4BA2-8550-D36A3DFF40E2";
paths = (
{
closed = 1;
nodes = (
"69 0 LINE",
"226 740 LINE",
"191 740 LINE",
"34 0 LINE"
);
},
{
closed = 1;
nodes = (
"65 -149 OFFCURVE",
"82 -143 OFFCURVE",
"82 -143 CURVE",
"88 -115 LINE",
"88 -115 OFFCURVE",
"67 -120 OFFCURVE",
"47 -120 CURVE SMOOTH",
"12 -120 OFFCURVE",
"-6 -106 OFFCURVE",
"-6 -80 CURVE SMOOTH",
"-6 -26 OFFCURVE",
"69 0 OFFCURVE",
"69 0 CURVE",
"51 12 LINE",
"51 12 OFFCURVE",
"-38 -15 OFFCURVE",
"-38 -84 CURVE SMOOTH",
"-38 -125 OFFCURVE",
"-7 -149 OFFCURVE",
"41 -149 CURVE SMOOTH"
);
}
);
width = 214;
},
{
anchors = (
{
name = bottom;
position = "{78, 0}";
},
{
name = ogonek;
position = "{127, 0}";
},
{
name = top;
position = "{227, 700}";
},
{
name = topleft;
position = "{123, 700}";
}
);
layerId = "DFC78E06-237F-4D33-BFB3-2388B696AEC9";
paths = (
{
closed = 1;
nodes = (
"127 0 LINE",
"284 740 LINE",
"186 740 LINE",
"29 0 LINE"
);
},
{
closed = 1;
nodes = (
"113 -167 OFFCURVE",
"132 -161 OFFCURVE",
"132 -161 CURVE",
"144 -103 LINE",
"144 -103 OFFCURVE",
"125 -108 OFFCURVE",
"107 -108 CURVE SMOOTH",
"73 -108 OFFCURVE",
"57 -94 OFFCURVE",
"57 -72 CURVE SMOOTH",
"57 -25 OFFCURVE",
"127 0 OFFCURVE",
"127 0 CURVE",
"95 19 LINE",
"95 19 OFFCURVE",
"-16 -8 OFFCURVE",
"-16 -90 CURVE SMOOTH",
"-16 -136 OFFCURVE",
"20 -167 OFFCURVE",
"85 -167 CURVE SMOOTH"
);
}
);
width = 265;
},
{
anchors = (
{
name = bottom;
position = "{98, 0}";
},
{
name = ogonek;
position = "{194, 0}";
},
{
name = top;
position = "{254, 736}";
},
{
name = topleft;
position = "{128, 736}";
}
);
layerId = "1F0C3569-068D-41D8-99BF-71FC09839D59";
paths = (
{
closed = 1;
nodes = (
"194 0 LINE",
"351 740 LINE",
"159 740 LINE",
"2 0 LINE"
);
},
{
closed = 1;
nodes = (
"166 -194 OFFCURVE",
"189 -189 OFFCURVE",
"189 -189 CURVE",
"210 -87 LINE",
"210 -87 OFFCURVE",
"193 -90 OFFCURVE",
"178 -90 CURVE SMOOTH",
"145 -90 OFFCURVE",
"132 -77 OFFCURVE",
"132 -60 CURVE SMOOTH",
"132 -24 OFFCURVE",
"194 0 OFFCURVE",
"194 0 CURVE",
"141 29 LINE",
"141 29 OFFCURVE",
"-7 3 OFFCURVE",
"-7 -99 CURVE SMOOTH",
"-7 -154 OFFCURVE",
"36 -194 OFFCURVE",
"132 -194 CURVE SMOOTH"
);
}
);
width = 311;
}
);
leftKerningGroup = l;
rightKerningGroup = l;
unicode = 012E;
},
{
glyphname = Itilde;
lastChange = "2021-03-14 09:41:58 +0000";
layers = (
{
anchors = (
{
name = bottom;
position = "{52, 0}";
},
{
name = ogonek;
position = "{69, 0}";
},
{
name = top;
position = "{250, 935}";
},
{
name = topleft;
position = "{119, 740}";
}
);
layerId = "3EF6EAEC-888F-4BA2-8550-D36A3DFF40E2";
paths = (
{
closed = 1;
nodes = (
"69 0 LINE",
"226 740 LINE",
"191 740 LINE",
"34 0 LINE"
);
},
{
closed = 1;
nodes = (
"338 831 OFFCURVE",
"364 878 OFFCURVE",
"375 936 CURVE",
"344 936 LINE",
"336 887 OFFCURVE",
"319 860 OFFCURVE",
"295 860 CURVE SMOOTH",
"254 860 OFFCURVE",
"253 941 OFFCURVE",
"190 941 CURVE SMOOTH",
"143 941 OFFCURVE",
"116 897 OFFCURVE",
"105 836 CURVE",
"136 836 LINE",
"143 881 OFFCURVE",
"161 912 OFFCURVE",
"187 912 CURVE SMOOTH",
"229 912 OFFCURVE",
"232 831 OFFCURVE",
"292 831 CURVE SMOOTH"
);
}
);
width = 214;
},
{
anchors = (
{
name = bottom;
position = "{78, 0}";
},
{
name = ogonek;
position = "{127, 0}";
},
{
name = top;
position = "{275, 921}";
},
{
name = topleft;
position = "{123, 700}";
}
);
layerId = "DFC78E06-237F-4D33-BFB3-2388B696AEC9";
paths = (
{
closed = 1;
nodes = (
"127 0 LINE",
"284 740 LINE",
"186 740 LINE",
"29 0 LINE"
);
},
{
closed = 1;
nodes = (
"386 786 OFFCURVE",
"413 840 OFFCURVE",
"428 918 CURVE",
"366 918 LINE",
"359 877 OFFCURVE",
"348 854 OFFCURVE",
"326 854 CURVE SMOOTH",
"289 854 OFFCURVE",
"270 923 OFFCURVE",
"199 923 CURVE SMOOTH",
"137 923 OFFCURVE",
"110 870 OFFCURVE",
"95 792 CURVE",
"157 792 LINE",
"164 833 OFFCURVE",
"177 857 OFFCURVE",
"198 857 CURVE SMOOTH",
"236 857 OFFCURVE",
"256 786 OFFCURVE",
"325 786 CURVE SMOOTH"
);
}
);
width = 265;
},
{
anchors = (
{
name = bottom;
position = "{98, 0}";
},
{
name = ogonek;
position = "{194, 0}";
},
{
name = top;
position = "{304, 968}";
},
{
name = topleft;
position = "{128, 736}";
}
);
layerId = "1F0C3569-068D-41D8-99BF-71FC09839D59";
paths = (
{
closed = 1;
nodes = (
"194 0 LINE",
"351 740 LINE",
"159 740 LINE",
"2 0 LINE"
);
},
{
closed = 1;
nodes = (
"450 818 OFFCURVE",
"475 898 OFFCURVE",
"492 977 CURVE",
"399 977 LINE",
"391 942 OFFCURVE",
"381 924 OFFCURVE",
"362 924 CURVE SMOOTH",
"328 924 OFFCURVE",
"299 983 OFFCURVE",
"226 983 CURVE SMOOTH",
"135 983 OFFCURVE",
"111 903 OFFCURVE",
"94 824 CURVE",
"187 824 LINE",
"194 858 OFFCURVE",
"205 877 OFFCURVE",
"224 877 CURVE SMOOTH",
"259 877 OFFCURVE",
"287 818 OFFCURVE",
"360 818 CURVE SMOOTH"
);
}
);
width = 311;
}
);
leftKerningGroup = l;
rightKerningGroup = l;
unicode = 0128;
},
{
glyphname = J;
lastChange = "2021-05-14 08:51:38 +0000";
layers = (
{
layerId = "3EF6EAEC-888F-4BA2-8550-D36A3DFF40E2";
paths = (
{
closed = 1;
nodes = (
"207 -10 OFFCURVE",
"306 66 OFFCURVE",
"336 207 CURVE SMOOTH",
"449 740 LINE",
"414 740 LINE",
"301 207 LINE SMOOTH",
"277 95 OFFCURVE",
"193 23 OFFCURVE",
"84 23 CURVE SMOOTH",
"46 23 OFFCURVE",
"6 29 OFFCURVE",
"6 29 CURVE",
"-1 -4 LINE",
"-1 -4 OFFCURVE",
"38 -10 OFFCURVE",
"77 -10 CURVE SMOOTH"
);
}
);
width = 437;
},
{
layerId = "DFC78E06-237F-4D33-BFB3-2388B696AEC9";
paths = (
{
closed = 1;
nodes = (
"268 -10 OFFCURVE",
"357 92 OFFCURVE",
"390 248 CURVE SMOOTH",
"495 740 LINE",
"397 740 LINE",
"292 248 LINE SMOOTH",
"271 151 OFFCURVE",
"213 79 OFFCURVE",
"91 79 CURVE SMOOTH",
"54 79 OFFCURVE",
"10 89 OFFCURVE",
"10 89 CURVE",
"-8 2 LINE",
"-8 2 OFFCURVE",
"34 -10 OFFCURVE",
"85 -10 CURVE SMOOTH"
);
}
);
width = 476;
},
{
layerId = "1F0C3569-068D-41D8-99BF-71FC09839D59";
paths = (
{
closed = 1;
nodes = (
"323 -10 OFFCURVE",
"426 130 OFFCURVE",
"459 286 CURVE SMOOTH",
"555 740 LINE",
"365 740 LINE",
"272 301 LINE SMOOTH",
"250 198 OFFCURVE",
"179 152 OFFCURVE",
"101 152 CURVE SMOOTH",
"60 152 OFFCURVE",
"23 157 OFFCURVE",
"23 157 CURVE",
"-10 0 LINE",
"-10 0 OFFCURVE",
"39 -10 OFFCURVE",
"106 -10 CURVE SMOOTH"
);
}
);
width = 516;
}
);
leftKerningGroup = J;
rightKerningGroup = U;
rightMetricsKey = l;
unicode = 004A;
},
{
glyphname = K;
lastChange = "2021-05-14 08:51:38 +0000";
layers = (
{
anchors = (
{
name = bottom;
position = "{254, 0}";
},
{
name = ogonek;
position = "{69, 0}";
},
{
name = top;
position = "{411, 740}";
},
{
name = topleft;
position = "{119, 740}";
}
);
layerId = "3EF6EAEC-888F-4BA2-8550-D36A3DFF40E2";
paths = (
{
closed = 1;
nodes = (
"510 0 LINE",
"162 402 LINE",
"157 359 LINE",
"638 739 LINE",
"586 739 LINE",
"135 381 LINE",
"465 0 LINE"
);
},
{
closed = 1;
nodes = (
"69 0 LINE",
"226 740 LINE",
"191 740 LINE",
"34 0 LINE"
);
}
);
width = 571;
},
{
anchors = (
{
name = bottom;
position = "{260, 0}";
},
{
name = ogonek;
position = "{127, 0}";
},
{
name = top;
position = "{418, 740}";
},
{
name = topleft;
position = "{123, 700}";
}
);
layerId = "DFC78E06-237F-4D33-BFB3-2388B696AEC9";
paths = (
{
closed = 1;
nodes = (
"571 0 LINE",
"264 406 LINE",
"250 338 LINE",
"716 739 LINE",
"580 739 LINE",
"169 380 LINE",
"454 0 LINE"
);
},
{
closed = 1;
nodes = (
"127 0 LINE",
"284 740 LINE",
"186 740 LINE",
"29 0 LINE"
);
}
);
width = 642;
},
{
anchors = (
{
name = bottom;
position = "{370, 0}";
},
{
name = ogonek;
position = "{194, 0}";
},
{
name = top;
position = "{527, 740}";
},
{
name = topleft;
position = "{128, 736}";
}
);
layerId = "1F0C3569-068D-41D8-99BF-71FC09839D59";
paths = (
{
closed = 1;
nodes = (
"655 0 LINE",
"429 412 LINE",
"405 307 LINE",
"826 740 LINE",
"577 740 LINE",
"242 378 LINE",
"440 0 LINE"
);
},
{
closed = 1;
nodes = (
"194 0 LINE",
"351 740 LINE",
"159 740 LINE",
"2 0 LINE"
);
}
);
width = 730;
}
);
leftKerningGroup = l;
leftMetricsKey = l;
rightKerningGroup = K;
unicode = 004B;
},
{
glyphname = L;
lastChange = "2021-05-14 08:51:38 +0000";
layers = (
{
anchors = (
{
name = bottom;
position = "{275, 0}";
},
{
name = center;
position = "{349, 350}";
},
{
name = ogonek;
position = "{69, 0}";
},
{
name = top;
position = "{209, 740}";
},
{
name = topleft;
position = "{119, 740}";
},
{
name = topright;
position = "{666, 700}";
}
);
layerId = "3EF6EAEC-888F-4BA2-8550-D36A3DFF40E2";
paths = (
{
closed = 1;
nodes = (
"473 0 LINE",
"480 34 LINE",
"70 34 LINE",
"63 0 LINE"
);
},
{
closed = 1;
nodes = (
"69 0 LINE",
"226 740 LINE",
"191 740 LINE",
"34 0 LINE"
);
}
);
width = 574;
},
{
anchors = (
{
name = bottom;
position = "{331, 0}";
},
{
name = center;
position = "{405, 350}";
},
{
name = ogonek;
position = "{127, 0}";
},
{
name = top;
position = "{237, 740}";
},
{
name = topleft;
position = "{123, 700}";
},
{
name = topright;
position = "{753, 700}";
}
);
layerId = "DFC78E06-237F-4D33-BFB3-2388B696AEC9";
paths = (
{
closed = 1;
nodes = (
"479 0 LINE",
"497 86 LINE",
"123 86 LINE",
"105 0 LINE"
);
},
{
closed = 1;
nodes = (
"127 0 LINE",
"284 740 LINE",
"186 740 LINE",
"29 0 LINE"
);
}
);
width = 605;
},
{
anchors = (
{
name = bottom;
position = "{286, 0}";
},
{
name = center;
position = "{397, 370}";
},
{
name = ogonek;
position = "{194, 0}";
},
{
name = top;
position = "{254, 740}";
},
{
name = topleft;
position = "{128, 736}";
},
{
name = topright;
position = "{773, 740}";
}
);
layerId = "1F0C3569-068D-41D8-99BF-71FC09839D59";
paths = (
{
closed = 1;
nodes = (
"541 0 LINE",
"576 166 LINE",
"95 166 LINE",
"60 0 LINE"
);
},
{
closed = 1;
nodes = (
"194 0 LINE",
"351 740 LINE",
"159 740 LINE",
"2 0 LINE"
);
}
);
width = 637;
}
);
leftKerningGroup = l;
leftMetricsKey = l;
rightKerningGroup = L;
rightMetricsKey = E;
unicode = 004C;
},
{
glyphname = Lacute;
lastChange = "2021-03-14 09:41:58 +0000";
layers = (
{
anchors = (
{
name = bottom;
position = "{275, 0}";
},
{
name = center;
position = "{349, 350}";
},
{
name = ogonek;
position = "{69, 0}";
},
{
name = top;
position = "{292, 980}";
},
{
name = topleft;
position = "{119, 740}";
},
{
name = topright;
position = "{666, 700}";
}
);
layerId = "3EF6EAEC-888F-4BA2-8550-D36A3DFF40E2";
paths = (
{
closed = 1;
nodes = (
"473 0 LINE",
"480 34 LINE",
"70 34 LINE",
"63 0 LINE"
);
},
{
closed = 1;
nodes = (
"69 0 LINE",
"226 740 LINE",
"191 740 LINE",
"34 0 LINE"
);
},
{
closed = 1;
nodes = (
"319 980 LINE",
"282 980 LINE",
"209 828 LINE",
"239 828 LINE"
);
}
);
width = 574;
},
{
anchors = (
{
name = bottom;
position = "{331, 0}";
},
{
name = center;
position = "{405, 350}";
},
{
name = ogonek;
position = "{127, 0}";
},
{
name = top;
position = "{335, 1001}";
},
{
name = topleft;
position = "{123, 700}";
},
{
name = topright;
position = "{753, 700}";
}
);
layerId = "DFC78E06-237F-4D33-BFB3-2388B696AEC9";
paths = (
{
closed = 1;
nodes = (
"479 0 LINE",
"497 86 LINE",
"123 86 LINE",
"105 0 LINE"
);
},
{
closed = 1;
nodes = (
"127 0 LINE",
"284 740 LINE",
"186 740 LINE",
"29 0 LINE"
);
},
{
closed = 1;
nodes = (
"410 1001 LINE",
"315 1001 LINE",
"222 821 LINE",
"300 820 LINE"
);
}
);
width = 605;
},
{
anchors = (
{
name = bottom;
position = "{286, 0}";
},
{
name = center;
position = "{397, 370}";
},
{
name = ogonek;
position = "{194, 0}";
},
{
name = top;
position = "{355, 989}";
},
{
name = topleft;
position = "{128, 736}";
},
{
name = topright;
position = "{773, 740}";
}
);
layerId = "1F0C3569-068D-41D8-99BF-71FC09839D59";
paths = (
{
closed = 1;
nodes = (
"531 0 LINE",
"566 166 LINE",
"95 166 LINE",
"60 0 LINE"
);
},
{
closed = 1;
nodes = (
"194 0 LINE",
"351 740 LINE",
"159 740 LINE",
"2 0 LINE"
);
},
{
closed = 1;
nodes = (
"459 989 LINE",
"289 989 LINE",
"212 810 LINE",
"345 809 LINE"
);
}
);
width = 636;
}
);
leftKerningGroup = l;
rightKerningGroup = L;
unicode = 0139;
},
{
glyphname = Lcaron;
lastChange = "2021-03-14 09:41:58 +0000";
layers = (
{
anchors = (
{
name = bottom;
position = "{275, 0}";
},
{
name = center;
position = "{349, 350}";
},
{
name = ogonek;
position = "{69, 0}";
},
{
name = top;
position = "{257, 970}";
},
{
name = topleft;
position = "{119, 740}";
},
{
name = topright;
position = "{666, 700}";
}
);
layerId = "3EF6EAEC-888F-4BA2-8550-D36A3DFF40E2";
paths = (
{
closed = 1;
nodes = (
"473 0 LINE",
"480 34 LINE",
"70 34 LINE",
"63 0 LINE"
);
},
{
closed = 1;
nodes = (
"69 0 LINE",
"226 740 LINE",
"191 740 LINE",
"34 0 LINE"
);
},
{
closed = 1;
nodes = (
"238 818 LINE",
"381 970 LINE",
"338 970 LINE",
"211 832 LINE",
"228 832 LINE",
"158 970 LINE",
"122 970 LINE",
"201 818 LINE"
);
}
);
width = 574;
},
{
anchors = (
{
name = bottom;
position = "{331, 0}";
},
{
name = center;
position = "{405, 350}";
},
{
name = ogonek;
position = "{127, 0}";
},
{
name = top;
position = "{286, 972}";
},
{
name = topleft;
position = "{123, 700}";
},
{
name = topright;
position = "{753, 700}";
}
);
layerId = "DFC78E06-237F-4D33-BFB3-2388B696AEC9";
paths = (
{
closed = 1;
nodes = (
"479 0 LINE",
"497 86 LINE",
"123 86 LINE",
"105 0 LINE"
);
},
{
closed = 1;
nodes = (
"127 0 LINE",
"284 740 LINE",
"186 740 LINE",
"29 0 LINE"
);
},
{
closed = 1;
nodes = (
"289 815 LINE",
"445 982 LINE",
"353 982 LINE",
"225 842 LINE",
"275 835 LINE",
"202 982 LINE",
"122 982 LINE",
"208 815 LINE"
);
}
);
width = 605;
},
{
anchors = (
{
name = bottom;
position = "{286, 0}";
},
{
name = center;
position = "{397, 370}";
},
{
name = ogonek;
position = "{194, 0}";
},
{
name = top;
position = "{306, 989}";
},
{
name = topleft;
position = "{128, 736}";
},
{
name = topright;
position = "{773, 740}";
}
);
layerId = "1F0C3569-068D-41D8-99BF-71FC09839D59";
paths = (
{
closed = 1;
nodes = (
"531 0 LINE",
"566 166 LINE",
"95 166 LINE",
"60 0 LINE"
);
},
{
closed = 1;
nodes = (
"194 0 LINE",
"351 740 LINE",
"159 740 LINE",
"2 0 LINE"
);
},
{
closed = 1;
nodes = (
"344 800 LINE",
"519 989 LINE",
"371 989 LINE",
"251 853 LINE",
"299 846 LINE",
"236 989 LINE",
"102 989 LINE",
"197 800 LINE"
);
}
);
width = 636;
}
);
leftKerningGroup = l;
rightKerningGroup = L;
unicode = 013D;
},
